<svg width="202" height="202" viewBox="0 0 202 202" fill="none" xmlns="http://www.w3.org/2000/svg">
<g filter="url(#filter0_ddddd_3094_493)">
<path fill-rule="evenodd" clip-rule="evenodd" d="M172.067 159.31C185.146 143.433 193 123.096 193 100.927C193 50.1571 151.81 9 101 9C50.1898 9 9 50.1571 9 100.927C9 151.697 50.1898 192.854 101 192.854C121.147 192.854 139.781 186.383 154.935 175.408L182.902 181.67L172.067 159.31Z" fill="white"/>
</g>
<path d="M57.2414 86.3853V128.875C57.2414 128.875 40.49 127.863 40.49 107.633C40.49 87.4032 57.2414 86.3914 57.2414 86.3914V86.3853Z" fill="#F8CD8A"/>
<path d="M144.864 128.875V86.3853C144.864 86.3853 161.615 87.3971 161.615 107.627C161.615 127.857 144.864 128.869 144.864 128.869V128.875Z" fill="#F8CD8A"/>
<path d="M48.8688 89.4208C48.8688 89.4208 46.9855 50.3364 101.722 50.3364C156.459 50.3364 153.236 91.2161 153.236 91.2161H144.857C144.857 91.2161 145.864 56.7713 101.062 56.7713C56.2596 56.7713 57.2414 91.2161 57.2414 91.2161" fill="#F8CD8A"/>
<path d="M148.007 126.142C148.007 126.142 134.157 143.522 109.669 143.522V148.026C109.669 148.026 148.655 145.058 153.242 125.84C157.83 106.622 148.007 126.136 148.007 126.136V126.142Z" fill="#F8CD8A"/>
<path d="M107.354 150.932C111.708 150.932 115.238 148.769 115.238 146.101C115.238 143.433 111.708 141.27 107.354 141.27C102.999 141.27 99.4688 143.433 99.4688 146.101C99.4688 148.769 102.999 150.932 107.354 150.932Z" fill="#F8CD8A"/>
<path d="M75.2832 67.0743C75.2832 67.0743 23.7385 140.789 106.853 138.21C106.853 138.21 171.284 144.972 129.082 68.3576C129.082 68.3576 105.884 57.4127 75.2832 67.0681V67.0743Z" fill="#EFEFEF"/>
<path d="M101.499 100.31C101.499 100.31 77.8213 112.154 82.4619 116.321C82.4619 116.321 92.9663 125.605 101.832 125.605C110.699 125.605 120.365 119.843 120.751 116.002C121.136 112.16 106.999 100.635 101.499 100.31Z" fill="#F8CD8A"/>
<defs>
<filter id="filter0_ddddd_3094_493" x="0" y="0" width="202" height="201.854" filterUnits="userSpaceOnUse" color-interpolation-filters="sRGB">
<feFlood flood-opacity="0" result="BackgroundImageFix"/>
<feColorMatrix in="SourceAlpha" type="matrix" values="0 0 0 0 0 0 0 0 0 0 0 0 0 0 0 0 0 0 127 0" result="hardAlpha"/>
<feOffset/>
<feGaussianBlur stdDeviation="1.5"/>
<feColorMatrix type="matrix" values="0 0 0 0 0.968627 0 0 0 0 0.537255 0 0 0 0 0.0745098 0 0 0 0.49 0"/>
<feBlend mode="normal" in2="BackgroundImageFix" result="effect1_dropShadow_3094_493"/>
<feColorMatrix in="SourceAlpha" type="matrix" values="0 0 0 0 0 0 0 0 0 0 0 0 0 0 0 0 0 0 127 0" result="hardAlpha"/>
<feOffset/>
<feGaussianBlur stdDeviation="2.5"/>
<feColorMatrix type="matrix" values="0 0 0 0 0.968627 0 0 0 0 0.537255 0 0 0 0 0.0745098 0 0 0 0.43 0"/>
<feBlend mode="normal" in2="effect1_dropShadow_3094_493" result="effect2_dropShadow_3094_493"/>
<feColorMatrix in="SourceAlpha" type="matrix" values="0 0 0 0 0 0 0 0 0 0 0 0 0 0 0 0 0 0 127 0" result="hardAlpha"/>
<feOffset/>
<feGaussianBlur stdDeviation="3.5"/>
<feColorMatrix type="matrix" values="0 0 0 0 0.968627 0 0 0 0 0.537255 0 0 0 0 0.0745098 0 0 0 0.25 0"/>
<feBlend mode="normal" in2="effect2_dropShadow_3094_493" result="effect3_dropShadow_3094_493"/>
<feColorMatrix in="SourceAlpha" type="matrix" values="0 0 0 0 0 0 0 0 0 0 0 0 0 0 0 0 0 0 127 0" result="hardAlpha"/>
<feOffset/>
<feGaussianBlur stdDeviation="4"/>
<feColorMatrix type="matrix" values="0 0 0 0 0.968627 0 0 0 0 0.537255 0 0 0 0 0.0745098 0 0 0 0.07 0"/>
<feBlend mode="normal" in2="effect3_dropShadow_3094_493" result="effect4_dropShadow_3094_493"/>
<feColorMatrix in="SourceAlpha" type="matrix" values="0 0 0 0 0 0 0 0 0 0 0 0 0 0 0 0 0 0 127 0" result="hardAlpha"/>
<feOffset/>
<feGaussianBlur stdDeviation="4.5"/>
<feColorMatrix type="matrix" values="0 0 0 0 0.968627 0 0 0 0 0.537255 0 0 0 0 0.0745098 0 0 0 0.01 0"/>
<feBlend mode="normal" in2="effect4_dropShadow_3094_493" result="effect5_dropShadow_3094_493"/>
<feBlend mode="normal" in="SourceGraphic" in2="effect5_dropShadow_3094_493" result="shape"/>
</filter>
</defs>
</svg>
