<svg width="844" height="360" viewBox="0 0 844 360" fill="none" xmlns="http://www.w3.org/2000/svg">
<path d="M757.943 236.739L754.961 238.61C754.961 238.61 700.361 198.401 681.227 185.172C662.45 172.182 638.007 170.717 622.38 192.418C613.922 204.169 606.991 227.181 600.562 248.442C592.414 248.668 592.653 260.013 598.438 269.166C604.224 278.33 622.535 286.041 632.436 286.005C638.508 285.052 651.607 285.636 653.479 276.912C664.908 285.874 683.183 300.64 705.681 318.564C714.986 325.976 733.035 341.826 761.987 341.826C790.939 341.826 814.929 326.179 819.772 299.21L757.931 236.739H757.943Z" fill="#303030"/>
<path d="M664.478 253.924C667.496 244.581 665.289 227.312 661.221 217.028C659.873 213.607 658.215 213.405 657.332 215.908C657.034 216.742 656.569 218.16 656.569 218.16" stroke="#303030" stroke-width="1.5" stroke-linecap="round" stroke-linejoin="round"/>
<path fill-rule="evenodd" clip-rule="evenodd" d="M662.498 224.679C664.18 236.107 663.834 245.296 662.009 258.524C662.009 258.524 662.796 259.895 665.146 263.696C669.727 252.363 666.816 234.928 662.498 224.679Z" fill="#303030"/>
<path d="M667.365 302.952L658.645 258.762L632.4 282.275L637.339 303.762L667.365 302.952Z" fill="#FFC4B0"/>
<path d="M762.584 140.423C750.69 137.634 740.813 140.721 717.885 144.32C696.723 147.645 682.527 149.48 668.725 154.128C654.923 158.775 633.653 169.322 620.663 180.56L652.776 199.712L685.581 189.224C685.581 189.224 713.71 187.496 723.647 187.437C740.062 187.341 762.572 207.041 762.572 207.041V140.423H762.584Z" fill="white" stroke="#303030" stroke-width="1.5" stroke-linecap="round" stroke-linejoin="round"/>
<path d="M686.213 167.88C689.112 173.446 687.872 184.684 685.605 189.212" stroke="#303030" stroke-width="1.5" stroke-linecap="round" stroke-linejoin="round"/>
<path d="M615.199 190.75C614.054 187.747 615.235 181.812 619.565 178.666C623.895 175.519 632.007 173.934 639.546 175.698C644.02 176.735 646.298 180.108 645.666 182.169C645.034 184.243 640.62 190.75 640.62 190.75C640.62 190.75 627.152 184.207 615.199 190.75Z" fill="white" stroke="#303030" stroke-width="1.5" stroke-linecap="round" stroke-linejoin="round"/>
<path d="M605.321 278.617C608.506 271.597 609.222 268.928 613.469 258.131C620.686 239.754 625.517 222.903 635.228 203.585C650.557 173.076 675.966 174.757 703.773 197.638C717.825 209.198 739.477 230.756 757.848 247.774L768.739 236.739L801.902 271.824C789.269 293.644 774.584 316.347 751.788 314.011C718.243 310.579 668.474 246.309 668.474 246.309C668.474 246.309 667.472 253.101 660.577 264.232C654.398 274.219 634.273 302.022 634.273 302.022C634.273 302.022 634.798 307.79 630.492 316.847C627.939 322.198 626.329 327.597 620.674 328.932C617.787 329.611 608.387 329.265 605.429 329.122C595.969 328.681 591.853 330.695 582.441 331.661C574.759 332.435 564.19 333.377 556.674 331.661C549.147 329.933 542.013 327.704 536.192 322.615C532.327 319.243 530.084 310.996 534.975 308.613C541.942 305.204 549.338 304.596 556.925 302.964C566.003 301.009 574.986 299.365 583.563 295.813C587.296 294.264 594.728 291.094 598.283 289.092C601.957 287.018 603.997 281.572 605.333 278.617H605.321Z" fill="#FFC4B0"/>
<path d="M528.176 310.746C526.315 317.694 531.42 329.313 555.1 333.568C580.64 338.156 594.442 330.612 604.952 331.292C613.171 331.828 619.911 332.543 624.372 330.112" stroke="#303030" stroke-width="1.5" stroke-linecap="round" stroke-linejoin="round"/>
<path d="M608.172 308.053C612.443 298.006 603.949 281.715 595.122 286.005C585.59 290.629 577.825 294.729 558.344 299.591C543.755 303.238 529.595 305.49 528.187 310.746C526.326 317.694 531.432 329.313 555.111 333.568C580.652 338.156 594.454 330.612 604.963 331.291C613.183 331.828 619.923 332.543 624.384 330.112C631.005 325.523 630.778 319.052 636.313 308.517C638.21 304.895 635.967 302.571 634.285 302.011C627.545 310.281 618.288 311.687 608.184 308.041L608.172 308.053Z" fill="#F48656"/>
<path d="M624.384 330.124C619.923 332.555 613.195 331.84 604.964 331.303C594.454 330.612 580.64 338.156 555.112 333.58C531.432 329.325 526.326 317.706 528.187 310.758C525.825 312.998 524.776 318.027 524.776 318.027C522.915 324.975 528.02 336.595 551.7 340.849C577.24 345.437 591.042 337.894 601.552 338.573C609.771 339.109 616.511 339.824 620.972 337.393C622.75 336.07 624.384 330.791 624.384 330.124Z" fill="white" stroke="#303030" stroke-width="1.5" stroke-linecap="round" stroke-linejoin="round"/>
<path d="M606.359 264.006L602.339 276.877C609.294 287.161 630.826 295.897 642.708 295.861L651.714 285.743C639.833 285.779 613.314 274.291 606.359 264.006Z" fill="#303030"/>
<path d="M768.727 236.739L765.745 238.61C765.745 238.61 711.145 198.401 692.011 185.172C673.235 172.182 648.792 170.717 633.165 192.418C624.707 204.169 617.776 227.181 611.346 248.442C603.198 248.668 603.234 258.762 606.348 264.006C614.245 279.939 641.813 285.779 651.702 285.743C657.774 284.79 663.477 277.794 666.101 274.302C669.274 270.072 670.908 267.247 672.781 258.524C678.877 268.511 696.139 298.232 716.466 318.564C724.876 326.977 743.819 341.826 772.771 341.826C801.724 341.826 825.713 326.179 830.556 299.21L768.716 236.739H768.727Z" fill="#FFE39C"/>
<path d="M613.243 261.992C611.358 255.711 611.358 251.576 611.358 247.131" stroke="#303030" stroke-width="1.5" stroke-linecap="round" stroke-linejoin="round"/>
<path d="M675.263 253.924C678.281 244.581 676.074 227.312 672.006 217.028C670.658 213.607 669 213.405 668.117 215.908C667.819 216.742 667.354 218.16 667.354 218.16" stroke="#303030" stroke-width="1.5" stroke-linecap="round" stroke-linejoin="round"/>
<path fill-rule="evenodd" clip-rule="evenodd" d="M673.282 224.679C674.964 236.107 674.618 245.296 672.793 258.524C672.793 258.524 673.58 259.895 675.93 263.696C680.511 252.363 677.6 234.928 673.282 224.679Z" fill="#303030"/>
<path d="M649.388 298.042C642.779 299.496 642.147 301.617 637.351 303.762L636.289 299.234C629.37 300.152 631.756 307.433 604.784 314.166C590.124 317.825 576.584 316.872 571.025 328.98C585.423 320.149 607.898 323.247 625.959 325.595C652.084 328.98 664.848 319.267 679.759 325.714C679.759 325.714 673.974 313.106 672.017 307.195C670.252 301.844 670.001 300.283 667.365 298.65C665.039 297.208 659.289 295.873 649.388 298.054V298.042Z" fill="#F48656"/>
<path d="M571.025 328.979C576.584 316.871 590.171 318.027 604.784 314.166C629.275 307.707 629.37 300.151 636.289 299.234L640.011 294.264" stroke="#303030" stroke-width="1.5" stroke-linecap="round" stroke-linejoin="round"/>
<path d="M571.025 328.98C585.424 320.149 607.898 323.247 625.959 325.595C652.084 328.98 663.202 319.148 678.113 325.595C680.881 329.742 681.632 332.769 681.632 335.546C672.662 323.879 645.773 336.44 625.434 332.972C601.993 328.98 574.568 328.98 567.625 340.23C567.005 341.433 566.802 342.053 566.802 343.471C565.812 340.945 567.733 330.696 571.037 328.98H571.025Z" fill="white" stroke="#303030" stroke-width="1.5" stroke-linecap="round" stroke-linejoin="round"/>
<path d="M567.613 340.229C574.544 328.979 601.981 328.979 625.422 332.972C645.773 336.44 672.65 323.879 681.62 335.546C684.102 342.053 679.557 347.857 659.396 349.489C643.256 350.8 629.418 359.107 606.896 359.107C584.374 359.107 562.209 350.574 567.625 340.229H567.613Z" fill="#303030" stroke="#303030" stroke-width="1.5" stroke-linecap="round" stroke-linejoin="round"/>
<path d="M725.675 87.0805C729.158 106.506 757.704 133.141 777.793 129.542C784.748 120.175 793.325 104.146 790.343 84.6374C789.174 76.9626 780.382 59.9804 752.479 56.3813C752.479 56.3813 710.095 67.9293 725.663 87.0805H725.675Z" fill="#303030"/>
<path d="M790.438 150.159L784.915 145.928L777.793 129.554C773.797 130.71 764.588 128.934 761.224 123.595C757.86 118.256 757.49 112.011 757.49 112.011C757.49 112.011 760.52 105.242 761.534 101.965C761.534 101.965 760.687 100.571 759.124 98.1635C755.724 100.833 755.868 103.526 754.126 104.182C751.788 105.064 748.674 98.4018 753.327 89.7736C742.793 86.0077 737.389 74.5313 741.338 66.5586C734.216 67.071 729.743 70.3126 724.864 77.749C724.864 77.749 721.535 82.8854 722.227 91.4659C722.669 96.9836 722.37 99.0334 722.227 102.68C722.096 106.243 721.034 109.831 720.832 114.741C720.581 121.247 721.547 126.646 724.685 130.603C727.822 134.547 733.751 135.274 737.377 135.572C740.992 135.87 743.771 136.347 748.853 135.334L751.68 148.741L740.061 165.437C740.061 165.437 762.452 167.165 779.965 166.224C798.717 165.223 790.426 150.159 790.426 150.159H790.438Z" fill="#FFC4B0"/>
<path d="M731.46 78.3093C732.104 79.8228 733.405 81.5389 735.003 82.6114C736.125 83.3741 737.616 82.4446 737.484 81.0979C737.365 79.8824 737.389 78.6549 737.723 77.487C738.164 75.9496 739.131 74.6268 740.061 73.3278C741.385 71.5044 743.855 69.7168 743.855 67.2976C743.855 66.7375 743.723 66.1655 743.342 65.7603C743.055 65.4623 742.662 65.2955 742.268 65.1644C737.675 63.5436 732.558 64.0323 731.043 69.264C730.255 71.9811 730.327 75.6874 731.46 78.3093Z" fill="#303030"/>
<path d="M757.848 99.1648C760.019 96.6503 764.206 95.0295 768.823 96.9124C772.986 98.6047 775.133 102.919 774.37 107.054C773.618 111.142 770.326 113.907 766.687 114.943C762.238 116.207 758.933 114.586 756.512 112.643" fill="#FFC4B0"/>
<path d="M757.848 99.1648C760.019 96.6503 764.206 95.0295 768.823 96.9124C772.986 98.6047 775.133 102.919 774.37 107.054C773.618 111.142 770.326 113.907 766.687 114.943C762.238 116.207 758.933 114.586 756.512 112.643" stroke="#303030" stroke-width="1.5" stroke-linecap="round" stroke-linejoin="round"/>
<path d="M768.154 105.922C767.618 103.908 766.115 102.644 764.313 102.668C762.524 102.704 760.496 104.027 759.124 106.077" stroke="#303030" stroke-width="1.5" stroke-linecap="round" stroke-linejoin="round"/>
<path d="M764.265 107.054C764.075 106.136 763.574 105.457 762.977 104.992C762.381 104.527 761.617 104.313 760.901 104.17" stroke="#303030" stroke-width="1.5" stroke-linecap="round" stroke-linejoin="round"/>
<path d="M740.073 98.1164C740.073 98.1164 738.391 96.019 735.993 94.6366C734.168 93.5759 731.448 93.5521 730.41 94.1599C729.838 94.7677 729.492 95.876 729.969 98.2833C731.615 100.536 736.077 99.9875 740.061 98.1283L740.073 98.1164Z" fill="white"/>
<path d="M730.601 97.5802C730.887 99.2963 732.474 100.417 734.132 100.083C735.79 99.7492 736.9 98.0808 736.613 96.3647C736.327 94.6486 734.741 93.5283 733.082 93.862C731.424 94.1957 730.315 95.8641 730.601 97.5802Z" fill="#303030"/>
<path d="M736.971 97.1509L733.607 96.9722L736.399 98.7598L736.971 97.1509Z" fill="white"/>
<path d="M730.422 94.1479C733.965 93.2899 737.401 94.8391 740.073 98.1164" stroke="#303030" stroke-width="1.5" stroke-linecap="round" stroke-linejoin="round"/>
<path d="M721.989 110.701C718.637 109.903 714.39 107.102 716.084 103.563C717.241 101.143 722.239 97.866 723.635 89.7622" fill="#FFC4B0"/>
<path d="M721.989 110.701C718.637 109.903 714.39 107.102 716.084 103.563C717.241 101.143 722.239 97.866 723.635 89.7622" stroke="#303030" stroke-width="1.5" stroke-linecap="round" stroke-linejoin="round"/>
<path d="M730.554 86.9258C734.92 86.9258 739.62 88.8921 742.089 92.0979" stroke="#303030" stroke-width="1.5" stroke-linecap="round" stroke-linejoin="round"/>
<path d="M723.635 116.708C726.104 117.041 729.79 116.708 732.236 115.683C731.532 119.067 728.418 120.354 726.164 120.724" stroke="#303030" stroke-width="1.5" stroke-linecap="round" stroke-linejoin="round"/>
<path d="M748.114 131.223L748.865 135.322C741.624 136.764 735.874 136.514 729.349 133.916C738.547 135.143 748.102 131.223 748.102 131.223H748.114Z" fill="#303030"/>
<path d="M790.426 105.612L723.635 73.6019C723.635 73.6019 731.842 57.5492 745.62 55.4875C762.333 52.9729 786.549 67.2857 790.963 76.4859C797.142 89.3686 790.426 105.612 790.426 105.612Z" fill="#FFE39C"/>
<path d="M790.426 106.875C790.247 106.875 790.057 106.839 789.89 106.756L706.493 67.0474C705.86 66.7494 705.598 65.9986 705.896 65.367C706.194 64.7354 706.958 64.4732 707.578 64.7711L790.975 104.48C791.607 104.778 791.87 105.529 791.572 106.16C791.357 106.613 790.903 106.875 790.426 106.875Z" fill="#303030"/>
<path d="M776.123 98.7594C779.833 88.6535 784.772 71.3376 771.924 62.0539C755.522 57.5134 746.623 69.3593 740.92 80.645" stroke="#303030" stroke-width="1.5" stroke-linecap="round" stroke-linejoin="round"/>
<path d="M833.574 290.582C833.574 290.582 834.576 297.148 829.84 302.964C792.347 296.087 763.502 268.392 749.784 232.508L833.574 290.582Z" fill="white" stroke="#303030" stroke-width="1.5" stroke-linecap="round" stroke-linejoin="round"/>
<path d="M781.897 138.993C795.031 143.712 809.429 154.116 815.62 162.839C825.689 177.021 831.94 190.774 837.57 222.319C843.475 255.33 843.26 266.246 842.998 276.972C842.735 287.698 833.574 290.57 833.574 290.57C833.574 290.57 822.062 292.107 797.703 278.009C764.11 258.572 749.783 232.496 749.783 232.496C749.783 232.496 736.9 220.996 733.596 197.936C731.377 182.42 735.659 167.88 740.073 161.874C748.292 153.448 764.719 147.394 781.897 139.005V138.993Z" fill="white" stroke="#303030" stroke-width="1.5" stroke-linecap="round" stroke-linejoin="round"/>
<path d="M740.073 161.874C742.793 152.471 764.492 138.909 773.01 133.892C781.515 128.875 790.808 125.55 795.377 127.194C803 129.935 801.902 134.512 806.531 139.493C813.605 143.319 827.085 149.754 813.342 159.395C802.153 152.257 796.45 149.885 780.43 149.885C769.145 149.885 757.573 153.83 740.085 161.862L740.073 161.874Z" fill="white" stroke="#303030" stroke-width="1.5" stroke-linecap="round" stroke-linejoin="round"/>
<path d="M777.102 140.625C786.669 137.991 795.723 136.442 806.066 139.493" stroke="#303030" stroke-width="1.5" stroke-linecap="round" stroke-linejoin="round"/>
<path d="M774.143 163.34C759.232 162.422 751.478 174.471 741.469 187.854C732.415 199.962 714.08 223.749 714.08 223.749C714.08 223.749 684.471 214.62 673.89 210.759C668.319 208.733 662.76 206.707 657.154 204.776C652.633 203.215 646.286 202.953 641.515 202.762C639.26 202.667 629.526 204.443 627.056 205.003C622.774 205.968 619.672 208.876 620.579 211.736C620.794 212.404 620.782 213.166 620.555 213.822C620.412 214.215 620.149 214.561 619.875 214.87C618.778 216.158 617.406 217.457 617.346 219.161C617.275 221.151 619.088 222.915 618.754 224.881C618.563 226.061 617.704 227.038 616.821 227.86C613.648 230.852 615.318 233.736 616.785 233.497C621.545 232.723 628.56 232.294 631.804 232.401C634.274 232.484 638.735 233.605 643.149 233.211C649.173 232.675 650.533 231.245 655.15 231.686C664.884 232.615 686.452 251.433 702.818 259.918C715.809 266.651 727.894 269.106 737.664 258.762C747.434 248.418 768.119 225.858 776.028 214.215C783.937 202.572 788.029 173.362 774.131 163.328L774.143 163.34Z" fill="#FFC4B0"/>
<path d="M779.809 164.782C777.507 162.196 774.215 160.599 770.743 160.551C762.417 160.432 753.088 166.45 741.529 183.027C727.309 203.43 713.09 221.008 713.09 221.008C713.09 221.008 691.939 214.096 688.014 212.594C684.09 211.093 682.67 213.774 682.67 213.774L686.81 214.811C686.81 214.811 689.697 221.759 685.951 230.172C682.205 238.586 674.308 242.388 674.308 242.388L670.001 239.837C670.001 239.837 670.324 242.888 675.525 245.879C680.714 248.871 701.494 261.765 710.286 265.889C719.078 270 728.061 270.322 736.673 262.778C745.286 255.235 772.974 224.011 778.223 216.348C783.114 209.198 794.101 180.834 779.821 164.794L779.809 164.782Z" fill="white" stroke="#303030" stroke-width="1.5" stroke-linecap="round" stroke-linejoin="round"/>
<path d="M686.81 214.811L675 210.89C675 210.89 676.706 216.396 672.972 224.81C669.226 233.223 662.522 236 662.522 236L674.308 242.4C674.308 242.4 682.205 238.598 685.951 230.184C689.697 221.771 686.81 214.823 686.81 214.823V214.811Z" fill="white" stroke="#303030" stroke-width="1.5" stroke-linecap="round" stroke-linejoin="round"/>
<path d="M728.92 231.674C724.876 226.859 721.547 224.011 713.078 221.008" stroke="#303030" stroke-width="1.5" stroke-linecap="round" stroke-linejoin="round"/>
<path d="M617.465 185.625C615.02 191.298 611.835 197.829 611.441 200.117C610.463 205.778 608.912 217.111 609.294 220.138C609.675 223.165 611.155 227.432 613.23 232.27C614.948 236.286 616.976 239.981 618.109 239.802C621.628 239.218 621.103 236.119 619.66 230.542C621.533 235.13 624.897 238.789 626.328 239.015C627.903 239.266 629.573 237.43 629.179 235.512C629.716 236.501 631.076 238.026 632.377 238.157C634.082 238.324 636.289 236.536 635.55 233.593C636.444 234.677 637.852 235.821 639.009 235.917C641.228 236.096 642.588 233.724 642.027 231.352C641.478 228.981 639.749 226.407 637.411 218.577C635.872 213.441 635.049 209.46 635.896 206.612C636.743 203.764 641.526 202.763 641.526 202.763C641.526 202.763 640.739 201.297 638.985 198.139C637.625 195.684 637.232 192.788 638.031 190.285C639.009 187.21 641.932 183.242 641.932 183.242C634.5 178.678 622.809 179.738 617.477 185.649L617.465 185.625Z" fill="#FFC4B0"/>
<path d="M640.011 235.81C644.258 233.069 641.097 229.255 639.248 224.119C636.779 217.254 634.834 210.306 635.896 206.612C636.743 203.764 641.526 202.763 641.526 202.763" stroke="#303030" stroke-width="1.5" stroke-linecap="round" stroke-linejoin="round"/>
<path d="M629.263 216.396C630.719 222.808 631.744 227.527 635.538 233.593" stroke="#303030" stroke-width="1.5" stroke-linecap="round" stroke-linejoin="round"/>
<path d="M622.738 218.088C624.193 224.5 625.386 230.125 629.168 235.512" stroke="#303030" stroke-width="1.5" stroke-linecap="round" stroke-linejoin="round"/>
<path d="M616.964 218.029C616.618 222.176 618.634 226.502 619.66 230.542C619.946 231.674 622.213 238.133 618.872 239.611C616.737 240.553 614.256 234.546 614.256 234.546" stroke="#303030" stroke-width="1.5" stroke-linecap="round" stroke-linejoin="round"/>
<path d="M651.714 17.6377C677.302 17.6377 698.047 33.0349 698.047 52.0431C698.047 60.3257 694.098 67.929 687.525 73.8758C688.778 78.0349 693.275 81.05 696.758 81.634C698.571 81.9319 696.973 84.077 691.02 84.7206C685.76 85.2926 680.821 84.0175 677.194 80.7759C669.882 84.3631 661.126 86.4486 651.714 86.4486C626.126 86.4486 605.381 71.0514 605.381 52.0431C605.381 33.0349 626.126 17.6377 651.714 17.6377Z" fill="white" stroke="#303030" stroke-width="1.5" stroke-linecap="round" stroke-linejoin="round"/>
<path d="M627.343 47.1807C623.895 47.1807 621.104 49.9693 621.104 53.4134C621.104 56.8576 623.895 59.6462 627.343 59.6462C630.79 59.6462 633.581 56.8576 633.581 53.4134C633.581 49.9693 630.79 47.1807 627.343 47.1807ZM652.096 47.1807C648.648 47.1807 645.857 49.9693 645.857 53.4134C645.857 56.8576 648.648 59.6462 652.096 59.6462C655.543 59.6462 658.334 56.8576 658.334 53.4134C658.334 49.9693 655.543 47.1807 652.096 47.1807ZM676.86 47.1807C673.413 47.1807 670.621 49.9693 670.621 53.4134C670.621 56.8576 673.413 59.6462 676.86 59.6462C680.308 59.6462 683.099 56.8576 683.099 53.4134C683.099 49.9693 680.308 47.1807 676.86 47.1807Z" fill="#FF95FB"/>
<path d="M117.531 92.7054C120.704 113.656 106.281 133.201 85.3219 136.371C64.3504 139.541 44.7866 125.133 41.6134 104.194C38.4403 83.243 52.8626 63.6986 73.8222 60.5285C101.653 56.3217 124.402 69.109 117.531 92.7054Z" fill="#303030"/>
<path d="M34.1336 113.728C33.3583 115.992 33.5611 118.781 34.3842 120.843C34.4557 121.022 34.5273 121.212 34.4796 121.391C34.4319 121.546 34.3007 121.653 34.1814 121.772C32.5113 123.333 32.2369 125.884 32.5351 128.148C32.9407 131.139 34.1933 133.988 36.0304 136.383C37.7482 138.635 40.0863 140.554 42.8658 141.114C45.6453 141.674 48.8542 140.59 50.2022 138.111C51.7411 139.994 54.6637 140.351 56.8468 139.279C59.0298 138.206 60.4732 135.978 61.0458 133.618C61.6184 131.259 61.4276 128.78 61.01 126.396C60.2466 121.975 58.6839 117.589 55.8089 114.145C53.2919 111.13 49.5342 108.747 45.5379 108.484C41.649 108.234 37.7243 108.449 35.1357 111.821C34.7062 112.381 34.3722 113.025 34.1456 113.716L34.1336 113.728Z" fill="#303030"/>
<path d="M44.3213 110.212C43.9038 108.818 42.6154 107.793 41.2078 107.412C39.8001 107.03 38.2971 107.197 36.8894 107.579C35.8754 107.853 34.8734 108.246 34.0741 108.925C33.1914 109.676 32.6069 110.725 32.2251 111.809C30.2687 117.22 32.6069 122.153 37.3308 125.133C36.7582 125.49 36.5196 126.182 36.3526 126.825C35.5295 129.9 35.2193 133.189 35.959 136.287C36.6986 139.386 38.5595 142.306 41.3271 143.891C44.0946 145.476 47.7927 145.535 50.3932 143.688C51.109 143.176 51.7412 142.52 52.1587 141.734C53.1369 139.851 52.6836 137.575 52.2065 135.513" stroke="#303030" stroke-width="1.5" stroke-linecap="round" stroke-linejoin="round"/>
<path d="M28.4912 137.241C29.0519 135.298 30.2806 133.57 31.9387 132.403C33.5969 131.235 35.6368 130.651 37.6528 130.782" stroke="#303030" stroke-width="1.5" stroke-linecap="round" stroke-linejoin="round"/>
<path d="M27 131.163C29.8034 129.59 33.2151 129.149 36.3167 129.971" stroke="#303030" stroke-width="1.5" stroke-linecap="round" stroke-linejoin="round"/>
<path d="M118.389 109.473C118.27 107.256 116.373 104.051 115.586 99.1884C115.133 96.3997 116.338 94.1116 115.538 90.8462C113.904 84.0652 109.264 74.7577 94.3521 74.293C95.0917 97.2697 76.4226 105.612 76.4226 105.612C77.4604 109.02 79.3333 118.244 79.3333 118.244C76.2913 125.681 72.5694 128.863 62.2388 132.7L56.2026 148.336C56.2026 148.336 63.05 168.655 94.531 154.902L85.9182 152.483L88.3875 139.064C91.7754 139.755 95.2229 140.256 98.6943 140.22C101.975 140.184 104.897 140.113 108.166 139.41C110.015 139.016 112.544 137.86 113.618 135.846C115.145 132.95 114.31 130.543 115.693 128.303C115.944 127.897 116.242 127.516 116.433 127.075C116.815 126.229 116.743 125.275 116.672 124.382C116.612 123.631 116.397 122.63 116.719 121.915C116.922 121.462 117.256 121.092 117.554 120.699C118.688 119.198 118.449 117.267 118.485 115.479C118.521 113.477 118.485 111.487 118.365 109.485L118.389 109.473Z" fill="#FFC4B0"/>
<path d="M80.2159 102.728C77.9852 100.106 73.6787 98.4259 68.9309 100.368C64.6484 102.12 62.4295 106.613 63.2049 110.915C63.9684 115.17 67.3563 118.054 71.102 119.126C75.6709 120.449 79.0826 118.769 81.5758 116.743" fill="#FFC4B0"/>
<path d="M80.2159 102.728C77.9852 100.106 73.6787 98.4259 68.9309 100.368C64.6484 102.12 62.4295 106.613 63.2049 110.915C63.9684 115.17 67.3563 118.054 71.102 119.126C75.6709 120.449 79.0826 118.769 81.5758 116.743" stroke="#303030" stroke-width="1.5" stroke-linecap="round" stroke-linejoin="round"/>
<path d="M69.6108 109.736C70.1715 107.65 71.7104 106.327 73.5594 106.363C75.4084 106.399 77.496 107.781 78.8917 109.914" stroke="#303030" stroke-width="1.5" stroke-linecap="round" stroke-linejoin="round"/>
<path d="M73.6069 110.915C73.7978 109.962 74.3108 109.247 74.943 108.77C75.5633 108.293 76.3387 108.067 77.0783 107.912" stroke="#303030" stroke-width="1.5" stroke-linecap="round" stroke-linejoin="round"/>
<path d="M97.9904 101.369C97.9904 101.369 99.5054 99.2718 101.772 97.5557C103.502 96.2448 106.293 95.8992 107.414 96.3997C108.071 96.9599 108.822 98.235 108.619 100.773C107.021 102.347 100.877 102.895 97.9785 101.369H97.9904Z" fill="white"/>
<path d="M108.094 100.368C107.701 102.001 106.114 102.978 104.551 102.549C102.989 102.108 102.046 100.428 102.44 98.7954C102.834 97.1508 104.42 96.1854 105.983 96.6145C107.546 97.0435 108.488 98.7358 108.094 100.368Z" fill="#303030"/>
<path d="M102.046 99.5342L105.267 99.5819L102.488 101.131L102.046 99.5342Z" fill="white"/>
<path d="M107.426 96.3999C103.967 96.6502 101.498 97.7942 97.895 101" stroke="#303030" stroke-width="1.5" stroke-linecap="round" stroke-linejoin="round"/>
<path d="M108.679 95.792C108.178 96.3044 107.426 96.3998 106.365 96.4832" stroke="#303030" stroke-width="1.5" stroke-linecap="round" stroke-linejoin="round"/>
<path d="M117.351 114.479C120.799 113.645 125.165 110.236 122.743 106.947C120.489 103.872 116.147 104.278 114.727 93.1348" fill="#FFC4B0"/>
<path d="M117.351 114.479C120.799 113.645 125.165 110.236 122.743 106.947C120.489 103.872 116.147 104.278 114.727 93.1348" stroke="#303030" stroke-width="1.5" stroke-linecap="round" stroke-linejoin="round"/>
<path d="M107.522 86.0437C103.657 85.0069 99.0164 86.0795 95.5688 91.3112" stroke="#303030" stroke-width="1.5" stroke-linecap="round" stroke-linejoin="round"/>
<path d="M112.246 120.127C113.176 119.913 114.13 119.722 115.085 119.829C114.822 119.877 114.631 120.067 114.512 120.282C114.405 120.497 114.369 120.735 114.345 120.973C114.274 121.712 114.286 122.451 114.381 123.178C114.417 123.428 114.429 123.726 114.214 123.869C114.118 123.929 113.999 123.953 113.88 123.964C112.938 124.084 111.971 123.857 111.077 123.512C110.146 123.142 109.228 122.606 108.75 121.795C108.667 121.652 108.595 121.486 108.583 121.319C108.56 120.699 109.74 120.675 110.23 120.592C110.802 120.485 111.375 120.318 111.947 120.187C112.043 120.163 112.15 120.139 112.246 120.115V120.127Z" fill="#303030"/>
<path d="M112.532 121.772C112.103 121.128 111.625 120.747 110.767 120.64C110.242 120.58 109.407 120.52 109.013 120.89C108.572 121.307 108.798 121.879 109.216 122.237C109.943 122.856 111.136 123.714 112.174 123.75C113.379 123.786 113.093 122.618 112.52 121.772H112.532Z" fill="#FF95FB"/>
<path d="M116.779 119.651C114.035 119.329 113.295 119.937 111.685 120.294C110.337 120.592 108.5 121.045 106.734 119.925" stroke="#303030" stroke-width="1.5" stroke-linecap="round" stroke-linejoin="round"/>
<path d="M115.383 119.782C114.751 120.139 114.357 120.819 114.214 121.486C114.035 122.296 114.297 122.904 114.417 123.464C114.453 123.619 114.488 123.822 114.226 124C114.142 124.06 113.82 124.132 113.617 124.132C112.46 124.132 109.228 123.524 107.844 120.568" stroke="#303030" stroke-width="1.5" stroke-linecap="round" stroke-linejoin="round"/>
<path d="M110.433 126.777C111.614 127.254 112.962 127.385 114.214 127.147" stroke="#303030" stroke-width="1.5" stroke-linecap="round" stroke-linejoin="round"/>
<path d="M88.0298 134.023L88.3996 139.076C95.2469 140.458 102.357 140.899 108.19 139.41C97.4896 138.611 88.0298 134.023 88.0298 134.023Z" fill="#303030"/>
<path d="M94.0417 72.1958C96.3321 74.901 98.539 86.9376 93.9582 95.1367C90.797 100.786 85.5601 103.181 80.0488 101.608" stroke="#303030" stroke-width="1.5" stroke-linecap="round" stroke-linejoin="round"/>
<path d="M111.876 98.1634C112.818 103.479 110.456 108.329 106.615 109.008C102.774 109.687 98.8967 105.922 97.9543 100.618C97.0119 95.3032 99.3739 90.4528 103.215 89.7735C107.056 89.0942 110.933 92.8601 111.876 98.1634Z" stroke="#303030" stroke-width="1.5" stroke-linecap="round" stroke-linejoin="round"/>
<path d="M111.959 98.3421C112.795 97.4245 114.131 96.9955 115.335 97.2577" stroke="#303030" stroke-width="1.5" stroke-linecap="round" stroke-linejoin="round"/>
<path d="M97.7636 99.5576L80.2158 102.728" stroke="#303030" stroke-width="1.5" stroke-linecap="round" stroke-linejoin="round"/>
<path d="M38.3567 256.546C66.4618 268.368 94.6742 269.524 116.576 261.015C123.686 255.139 119.881 239.254 123.447 226.43C123.447 226.43 136.76 206.54 126 181.323C120.405 168.202 97.9905 154.819 97.9905 154.819C85.1667 146.942 62.1911 140.482 52.9222 151.458C45.2756 160.504 41.1719 172.719 37.6528 205.146C34.6705 232.604 26.8331 250.349 38.3447 256.546H38.3567Z" fill="white" stroke="#303030" stroke-width="1.5" stroke-linecap="round" stroke-linejoin="round"/>
<path d="M155.06 160.551C155.06 160.551 189.356 137.193 191.694 134.917C194.223 132.438 196.418 129.971 198.028 126.789C199.007 124.847 199.436 122.606 200.343 120.604C201.285 118.519 202.418 116.517 203.671 114.598C206.164 110.76 209.087 107.233 212.033 103.729C212.88 102.728 214.348 101.894 215.505 103.002C217.461 104.873 216.877 107.269 215.863 109.533C215.183 111.035 214.312 112.453 213.739 113.99C213.441 114.789 213.214 115.694 213.536 116.493C215.195 120.7 232.826 109.926 235.104 108.782C237.466 107.602 240.699 106.196 243.359 107.078C244.874 107.578 246.64 108.687 246.031 110.462C246.031 110.462 249.837 109.33 251.471 111.952C253.01 114.419 250.302 116.755 250.302 116.755C250.302 116.755 253.606 119.83 246.377 125.395C243.968 128.541 241.009 133.129 235.856 136.812C231.716 139.779 224.01 142.079 215.397 147.716C208.896 151.971 198.768 163.721 189.308 173.744C180.54 183.027 172.405 193.801 162.706 194.742C155.095 195.481 149.966 195.362 150.336 182.98C150.765 169.072 155.072 160.539 155.072 160.539L155.06 160.551Z" fill="#FFC4B0"/>
<path d="M215.911 129.101C208.407 128.78 204.84 132.009 201.965 135.406" stroke="#303030" stroke-width="1.5" stroke-linecap="round" stroke-linejoin="round"/>
<path d="M231.752 131.401C231.752 131.401 237.454 127.039 240.234 124.99C241.63 123.965 243.98 123.083 245.566 123.774C247.368 124.561 246.354 126.074 245.566 127.039C242.668 130.591 240.103 133.117 235.104 136.812C228.782 141.471 224.511 142.246 214.718 149.587C206.486 155.748 197.707 164.675 197.707 164.675" stroke="#303030" stroke-width="1.5" stroke-linecap="round" stroke-linejoin="round"/>
<path d="M250.29 116.743C247.594 114.884 241.51 117.97 228.245 126.515" stroke="#303030" stroke-width="1.5" stroke-linecap="round" stroke-linejoin="round"/>
<path d="M245.578 110.308C240.329 111.416 224.654 121.498 224.654 121.498" stroke="#303030" stroke-width="1.5" stroke-linecap="round" stroke-linejoin="round"/>
<path d="M82.0771 156.785C94.3403 155.021 103.228 155.808 126.549 156.845C149.871 157.881 156.539 158.001 156.539 158.001L183.225 140.47C183.225 140.47 183.594 145.797 189.619 152.638C195.75 159.61 201.977 162.267 201.977 162.267C201.977 162.267 184.656 180.763 174.934 189.034C169.088 194.003 165.08 195.457 154.141 195.719C143.703 195.969 97.2749 197.686 97.2749 197.686L82.0891 156.785H82.0771Z" fill="#FFE39C"/>
<path d="M271.214 335.724C268.124 335.605 265.023 335.462 261.933 335.283C258.879 335.116 255.658 334.866 253.165 333.102C249.777 330.695 248.704 326.155 248.477 321.995C248.107 315.024 249.407 307.849 247.618 300.997C245.996 294.752 240.639 290.855 235.915 286.78C226.992 279.081 218.916 272.002 211.449 263.707C202.013 253.232 198.863 248.692 195.022 236.119C195.022 236.119 170.138 290.522 157.791 308.278C146.59 324.391 129.996 345.902 90.499 345.902C51.0015 345.902 34.3604 304.62 34.3604 304.62L106.854 254.781C106.854 254.781 145.218 207.028 160.607 191.774C184.024 168.547 201.333 167.153 214.085 179.547C223.688 188.878 241.618 217.826 251.769 235.976C261.468 253.316 276.415 279.999 284.002 289.234C286.245 291.964 289.346 294.037 292.352 295.861C308.91 305.955 326.649 314.13 345.079 320.172C347.942 321.113 350.924 322.055 353.119 324.117C355.314 326.178 356.436 329.73 354.813 332.256C353.441 334.389 350.698 335.104 348.193 335.474C343.54 336.153 338.816 336.189 334.104 336.225C313.145 336.38 292.173 336.535 271.226 335.7L271.214 335.724Z" fill="#FFCCCC"/>
<path d="M235.928 286.792C234.58 289.473 235.522 291.32 239.113 295.944C241.57 299.114 248.25 307.635 248.656 313.844C248.763 315.572 251.638 320.995 251.412 323.89C251.185 326.786 251.006 330.695 254.418 333.627C257.829 336.559 264.617 337.81 269.389 337.536C274.16 337.262 283.835 338.132 287.151 339.216C290.468 340.301 305.916 345.783 315.316 345.902C324.716 346.033 333.556 345.27 340.534 341.278C347.513 337.286 348.682 332.709 348.765 330.481C348.849 328.252 347.907 325.916 341.512 323.89C335.118 321.865 323.845 317.908 317.093 314.428C310.33 310.948 300.655 304.036 293.796 297.434C286.937 290.832 283.131 284.11 281.199 280.118C279.254 276.126 277.763 269.881 271.906 271.037L274.435 275.244C274.435 275.244 273.409 282.513 261.038 287.566C245.697 293.847 239.769 290.129 239.769 290.129L235.951 286.792H235.928Z" fill="white" stroke="#303030" stroke-width="1.5" stroke-linecap="round" stroke-linejoin="round"/>
<path d="M341.93 317.538C333.937 315.405 329.345 313.641 322.461 309.637C314.481 305.001 300.285 293.644 297.052 290.951C292.841 287.447 282.296 287.924 277.131 295.146C275.377 294.347 273.516 293.716 271.655 294.037C269.878 294.347 268.375 295.491 266.967 296.588C264.331 298.637 260.299 304.62 254.286 305.704C248.691 306.717 245.876 300.628 241.045 297.612C239.017 298.614 239.792 301.271 240.27 304.298C240.747 307.325 242.095 309.137 241.665 313.427C241.26 317.383 240.472 320.577 240.413 331.672C241.355 338.346 248.167 339.621 258.712 339.693C272.275 339.788 318.107 340.11 318.107 340.11C327.83 340.181 342.896 340.289 348.765 340.324C354.634 340.36 359.251 335.724 359.156 333.722C358.75 324.891 355.088 321.042 341.942 317.526L341.93 317.538Z" fill="#FFE39C"/>
<path d="M241.021 297.625C239.697 299.353 239.351 301.343 240.246 304.31C241.128 307.242 242.071 309.149 241.641 313.439C241.236 317.395 240.448 320.589 240.389 331.684" stroke="#303030" stroke-width="1.5" stroke-linecap="round" stroke-linejoin="round"/>
<path d="M311.367 321.34C315.387 316.335 323.917 311.616 331.384 314.118" stroke="#303030" stroke-width="1.5" stroke-linecap="round" stroke-linejoin="round"/>
<path d="M318.775 307.337C315.197 309.22 313.181 311.651 310.747 315.572" stroke="#303030" stroke-width="1.5" stroke-linecap="round" stroke-linejoin="round"/>
<path d="M322.449 309.637C317.869 309.411 311.379 310.662 300.428 312.402" stroke="#303030" stroke-width="1.5" stroke-linecap="round" stroke-linejoin="round"/>
<path d="M309.781 301.343C306.202 303.226 304.508 305.156 302.062 309.077" stroke="#303030" stroke-width="1.5" stroke-linecap="round" stroke-linejoin="round"/>
<path d="M313.455 303.643C308.874 303.416 302.385 304.668 291.434 306.408" stroke="#303030" stroke-width="1.5" stroke-linecap="round" stroke-linejoin="round"/>
<path d="M300.989 294.395C297.41 296.278 295.203 299.663 292.758 303.583" stroke="#303030" stroke-width="1.5" stroke-linecap="round" stroke-linejoin="round"/>
<path d="M304.472 297.648C299.892 297.422 293.402 298.673 282.451 300.413" stroke="#303030" stroke-width="1.5" stroke-linecap="round" stroke-linejoin="round"/>
<path d="M241.594 310.388C242.608 311.818 244.373 313.582 246.019 314.428C249.312 316.132 253.296 316.502 256.863 315.441C262.482 313.773 266.824 308.803 272.645 308.028C276.868 307.456 281.032 309.232 284.861 311.103C291.923 314.559 302.981 320.995 304.401 323.164C305.82 325.332 306.942 332.09 308.015 338.597" stroke="#303030" stroke-width="1.5" stroke-linecap="round" stroke-linejoin="round"/>
<path d="M355.529 347.213C350.304 348.559 321.448 348.166 321.448 348.166C321.448 348.166 273.469 347.832 262.494 347.749C251.519 347.666 245.674 347.284 242.906 343.459C241.272 341.206 239.363 337.583 239.888 331.815C244.421 335.808 244.266 336.916 263.019 337.047C281.771 337.178 327.531 337.643 337.48 337.572C344.399 337.524 355.159 338.513 359.657 333.865C361.279 336.022 363.51 345.151 355.529 347.201V347.213Z" fill="white" stroke="#303030" stroke-width="1.5" stroke-linecap="round" stroke-linejoin="round"/>
<path d="M258.211 245.557C258.211 245.557 255.348 254.317 243.025 263.922L225.644 247.154L235.868 268.463C235.868 268.463 227.255 275.16 221.732 276.769C221.732 276.769 196.573 256.045 194.629 238.991C185.121 261.408 170.472 291.844 160.964 306.598C151.457 321.352 133.826 347.677 88.8169 347.677C62.8471 347.677 41.1718 340.324 32.2726 308.398C26.487 287.626 38.3565 256.545 38.3565 256.545C56.3099 263.708 74.7882 266.794 93.8987 264.828C93.8987 264.828 137.929 213.261 148.343 201.344C165.426 181.799 177.212 169.632 194.963 169.632C212.713 169.632 223.724 185.279 232.026 198.937C246.246 222.283 258.211 245.546 258.211 245.546V245.557Z" fill="#303030"/>
<path d="M191.384 201.356C188.831 215.728 192.112 234.272 194.975 244.175" stroke="#00826F" stroke-width="1.5" stroke-linecap="round" stroke-linejoin="round"/>
<path d="M69.6108 274.386C83.2936 278.08 90.809 267.772 107.713 251.004" stroke="#00826F" stroke-width="1.5" stroke-linecap="round" stroke-linejoin="round"/>
<path d="M218.093 207.446C225.024 204.931 232.611 201.404 229.867 186.936C226.586 169.644 215.218 168.857 209.11 173.338C209.11 173.338 212.462 175.066 211.747 177.223C207.989 178.332 158.638 191.488 158.638 191.488C158.638 191.488 125.558 172.051 118.568 166.939C111.577 161.826 96.3677 153.532 81.7783 155.069L87.7429 201.725C87.7429 201.725 117.578 216.884 126.358 221.139C135.137 225.393 149.118 230.422 154.379 230.244C159.64 230.065 165.569 229.302 179.729 223.117C193.877 216.932 211.162 209.972 218.093 207.47V207.446Z" fill="#FFC4B0"/>
<path d="M77.0665 152.96C88.5304 146.524 106.722 156.69 120.775 165.318C134.637 173.827 158.304 188.76 158.304 188.76L196.68 180.084C203.086 185.697 209.122 206.588 206.546 214.43C191.61 220.865 179.383 225.155 171.211 228.289C160.415 232.425 153.091 233.652 137.583 227.753C123.161 222.259 104.062 213.512 85.3453 202.953C66.6285 192.382 65.5906 159.407 77.0545 152.972L77.0665 152.96Z" fill="#FFE39C"/>
<path d="M77.0664 152.96C88.5303 146.524 106.722 156.69 120.775 165.318C134.637 173.827 158.304 188.76 158.304 188.76" stroke="#303030" stroke-width="1.5" stroke-linecap="round" stroke-linejoin="round"/>
<path d="M176.89 0.894043C151.302 0.894043 130.557 16.2913 130.557 35.2995C130.557 43.5821 134.506 51.1854 141.079 57.1202C139.826 61.2794 135.329 64.2945 131.845 64.8784C130.032 65.1764 131.631 67.3215 137.583 67.965C142.844 68.537 147.783 67.2619 151.409 64.0204C158.722 67.6075 167.478 69.693 176.89 69.693C202.478 69.693 223.223 54.2958 223.223 35.2876C223.223 16.2794 202.49 0.894043 176.89 0.894043Z" fill="white" stroke="#303030" stroke-width="1.5" stroke-linecap="round" stroke-linejoin="round"/>
<path d="M195.034 36.6698C195.034 40.1139 197.826 42.9026 201.273 42.9026C204.721 42.9026 207.512 40.1139 207.512 36.6698C207.512 33.2257 204.721 30.437 201.273 30.437C197.826 30.437 195.034 33.2257 195.034 36.6698ZM170.269 36.6698C170.269 40.1139 173.061 42.9026 176.508 42.9026C179.956 42.9026 182.747 40.1139 182.747 36.6698C182.747 33.2257 179.956 30.437 176.508 30.437C173.061 30.437 170.269 33.2257 170.269 36.6698ZM145.504 36.6698C145.504 40.1139 148.296 42.9026 151.743 42.9026C155.191 42.9026 157.982 40.1139 157.982 36.6698C157.982 33.2257 155.191 30.437 151.743 30.437C148.296 30.437 145.504 33.2257 145.504 36.6698Z" fill="#FF95FB"/>
</svg>
