<svg width="631" height="248" viewBox="0 0 631 248" fill="none" xmlns="http://www.w3.org/2000/svg">
<path fill-rule="evenodd" clip-rule="evenodd" d="M101.497 104.557C90.8272 117.129 75.4396 125.022 58.3318 125.022C26.1161 125.022 0 97.0346 0 62.5108C0 27.987 26.1161 0 58.3318 0C75.4396 0 90.8272 7.89234 101.497 20.4648C112.167 7.89234 127.555 0 144.663 0C176.878 0 202.995 27.987 202.995 62.5108C202.995 97.0346 176.878 125.022 144.663 125.022C127.555 125.022 112.167 117.129 101.497 104.557Z" fill="#FFD159"/>
<path fill-rule="evenodd" clip-rule="evenodd" d="M441.132 229.291C430.679 240.785 415.604 248 398.844 248C367.283 248 341.698 222.415 341.698 190.854C341.698 159.293 367.283 133.708 398.844 133.708C415.604 133.708 430.679 140.923 441.132 152.417C451.585 140.923 466.66 133.708 483.42 133.708C501.673 133.708 517.928 142.266 528.39 155.589C538.852 142.266 555.107 133.708 573.36 133.708C604.921 133.708 630.506 159.293 630.506 190.854C630.506 222.415 604.921 248 573.36 248C555.107 248 538.852 239.442 528.39 226.119C517.928 239.442 501.673 248 483.42 248C466.66 248 451.585 240.785 441.132 229.291Z" fill="#EEFF2E"/>
<path d="M52.8015 96.3938H119.921V105.034H52.8015V96.3938ZM80.6415 79.9138H91.2815V98.7138H80.6415V79.9138ZM80.3215 43.7538H89.6015V49.1138C89.6015 52.2605 89.1482 55.3005 88.2415 58.2338C87.3882 61.1671 86.0815 63.9405 84.3215 66.5538C82.6148 69.1671 80.5082 71.5405 78.0015 73.6738C75.4948 75.7538 72.6148 77.5405 69.3615 79.0338C66.1615 80.5271 62.6148 81.6205 58.7215 82.3138L54.3215 73.4338C57.7348 72.9005 60.8015 72.0471 63.5215 70.8738C66.2415 69.7005 68.6415 68.3138 70.7215 66.7138C72.8548 65.0605 74.6148 63.2738 76.0015 61.3538C77.4415 59.3805 78.5082 57.3538 79.2015 55.2738C79.9482 53.1938 80.3215 51.1405 80.3215 49.1138V43.7538ZM82.3215 43.7538H91.6815V49.1138C91.6815 51.1938 92.0282 53.2738 92.7215 55.3538C93.4682 57.4338 94.5348 59.4338 95.9215 61.3538C97.3615 63.2738 99.1215 65.0605 101.201 66.7138C103.281 68.3138 105.681 69.7005 108.401 70.8738C111.175 72.0471 114.241 72.9005 117.601 73.4338L113.201 82.3138C109.308 81.5671 105.761 80.4738 102.561 79.0338C99.3615 77.5405 96.5082 75.7538 94.0015 73.6738C91.4948 71.5938 89.3615 69.2738 87.6015 66.7138C85.8948 64.1005 84.5882 61.3271 83.6815 58.3938C82.7748 55.4071 82.3215 52.3138 82.3215 49.1138V43.7538ZM126.235 77.7538H193.275V86.0738H126.235V77.7538ZM154.475 69.9138H165.035V80.8738H154.475V69.9138ZM134.635 65.1938H186.235V73.2738H134.635V65.1938ZM134.635 41.5138H185.595V49.5938H145.195V69.8338H134.635V41.5138ZM142.155 53.4338H183.995V61.1938H142.155V53.4338ZM159.675 89.4338C167.835 89.4338 174.155 90.4738 178.635 92.5538C183.169 94.6338 185.435 97.6471 185.435 101.594C185.435 105.54 183.169 108.554 178.635 110.634C174.155 112.714 167.835 113.754 159.675 113.754C151.569 113.754 145.249 112.714 140.715 110.634C136.235 108.554 133.995 105.54 133.995 101.594C133.995 97.6471 136.235 94.6338 140.715 92.5538C145.249 90.4738 151.569 89.4338 159.675 89.4338ZM159.675 97.1938C154.555 97.1938 150.769 97.5405 148.315 98.2338C145.862 98.9271 144.635 100.047 144.635 101.594C144.635 103.14 145.862 104.26 148.315 104.954C150.769 105.594 154.555 105.914 159.675 105.914C164.795 105.914 168.582 105.594 171.035 104.954C173.489 104.26 174.715 103.14 174.715 101.594C174.715 100.047 173.489 98.9271 171.035 98.2338C168.582 97.5405 164.795 97.1938 159.675 97.1938ZM233.349 41.7538C241.349 41.7538 247.589 42.8471 252.069 45.0338C256.549 47.1671 258.789 50.2338 258.789 54.2338C258.789 58.2871 256.549 61.4071 252.069 63.5938C247.589 65.7271 241.349 66.7938 233.349 66.7938C225.402 66.7938 219.162 65.7271 214.629 63.5938C210.149 61.4071 207.909 58.2871 207.909 54.2338C207.909 50.2338 210.149 47.1671 214.629 45.0338C219.162 42.8471 225.402 41.7538 233.349 41.7538ZM233.349 46.7138C229.456 46.7138 226.122 47.0071 223.349 47.5938C220.576 48.1805 218.442 49.0338 216.949 50.1538C215.509 51.2738 214.789 52.6338 214.789 54.2338C214.789 55.8338 215.509 57.2205 216.949 58.3938C218.442 59.5138 220.576 60.3671 223.349 60.9538C226.122 61.4871 229.456 61.7538 233.349 61.7538C237.296 61.7538 240.656 61.4871 243.429 60.9538C246.202 60.3671 248.309 59.5138 249.749 58.3938C251.242 57.2205 251.989 55.8338 251.989 54.2338C251.989 52.6338 251.242 51.2738 249.749 50.1538C248.309 49.0338 246.202 48.1805 243.429 47.5938C240.656 47.0071 237.296 46.7138 233.349 46.7138ZM200.709 71.6738H266.069V77.0338H200.709V71.6738ZM208.629 83.1938H257.669V99.5138H215.269V108.234H208.789V94.6338H251.189V88.3138H208.629V83.1938ZM208.789 106.874H259.829V112.074H208.789V106.874ZM319.856 43.9138C323.483 43.9138 326.683 44.5538 329.456 45.8338C332.229 47.0605 334.389 48.7938 335.936 51.0338C337.536 53.2205 338.336 55.8071 338.336 58.7938C338.336 61.6738 337.536 64.2605 335.936 66.5538C334.389 68.7938 332.229 70.5538 329.456 71.8338C326.683 73.0605 323.483 73.6738 319.856 73.6738C316.336 73.6738 313.189 73.0605 310.416 71.8338C307.643 70.5538 305.456 68.7938 303.856 66.5538C302.256 64.2605 301.456 61.6738 301.456 58.7938C301.456 55.8071 302.256 53.2205 303.856 51.0338C305.456 48.7938 307.643 47.0605 310.416 45.8338C313.189 44.5538 316.336 43.9138 319.856 43.9138ZM319.856 49.3538C317.563 49.3538 315.509 49.7538 313.696 50.5538C311.883 51.3538 310.443 52.4738 309.376 53.9138C308.363 55.3005 307.856 56.9271 307.856 58.7938C307.856 60.6071 308.363 62.2338 309.376 63.6738C310.443 65.0605 311.883 66.1538 313.696 66.9538C315.509 67.7538 317.563 68.1538 319.856 68.1538C322.256 68.1538 324.363 67.7538 326.176 66.9538C327.989 66.1538 329.403 65.0605 330.416 63.6738C331.483 62.2338 332.016 60.6071 332.016 58.7938C332.016 56.9271 331.483 55.3005 330.416 53.9138C329.403 52.4738 327.989 51.3538 326.176 50.5538C324.363 49.7538 322.256 49.3538 319.856 49.3538ZM316.976 81.7538H323.616V110.634H316.976V81.7538ZM348.976 40.5538H355.536V112.874H348.976V40.5538ZM296.976 85.3538L296.096 79.7538C300.576 79.7538 305.483 79.7005 310.816 79.5938C316.203 79.4871 321.723 79.2471 327.376 78.8738C333.083 78.5005 338.549 77.9138 343.776 77.1138L344.256 82.0738C338.869 83.0871 333.376 83.8338 327.776 84.3138C322.176 84.7405 316.736 85.0071 311.456 85.1138C306.229 85.2205 301.403 85.3005 296.976 85.3538ZM419.37 40.5538H426.01V94.7938H419.37V40.5538ZM423.93 64.3138H436.65V69.8338H423.93V64.3138ZM370.01 49.3538H412.73V54.7138H370.01V49.3538ZM391.37 58.6338C394.783 58.6338 397.796 59.2205 400.41 60.3938C403.023 61.5138 405.05 63.0871 406.49 65.1138C407.93 67.0871 408.65 69.4338 408.65 72.1538C408.65 74.8738 407.93 77.2471 406.49 79.2738C405.05 81.2471 403.023 82.7938 400.41 83.9138C397.796 85.0338 394.783 85.5938 391.37 85.5938C387.956 85.5938 384.943 85.0338 382.33 83.9138C379.716 82.7938 377.663 81.2471 376.17 79.2738C374.73 77.2471 374.01 74.8738 374.01 72.1538C374.01 69.4338 374.73 67.0871 376.17 65.1138C377.663 63.0871 379.716 61.5138 382.33 60.3938C384.943 59.2205 387.956 58.6338 391.37 58.6338ZM391.37 63.8338C388.116 63.8338 385.476 64.6071 383.45 66.1538C381.423 67.6471 380.41 69.6471 380.41 72.1538C380.41 74.6605 381.423 76.6605 383.45 78.1538C385.476 79.6471 388.116 80.3938 391.37 80.3938C394.676 80.3938 397.316 79.6471 399.29 78.1538C401.316 76.6605 402.33 74.6605 402.33 72.1538C402.33 69.6471 401.316 67.6471 399.29 66.1538C397.316 64.6071 394.676 63.8338 391.37 63.8338ZM388.09 40.5538H394.73V52.0738H388.09V40.5538ZM380.97 105.834H429.21V111.274H380.97V105.834ZM380.97 90.4738H387.53V108.074H380.97V90.4738ZM134.181 164.954H139.301V168.714C139.301 172.287 138.928 175.834 138.181 179.354C137.434 182.82 136.341 186.127 134.901 189.274C133.514 192.42 131.781 195.247 129.701 197.754C127.674 200.26 125.328 202.287 122.661 203.834L118.741 198.794C121.141 197.354 123.301 195.54 125.221 193.354C127.141 191.167 128.768 188.74 130.101 186.074C131.434 183.354 132.448 180.527 133.141 177.594C133.834 174.607 134.181 171.647 134.181 168.714V164.954ZM135.381 164.954H140.501V168.714C140.501 171.54 140.848 174.394 141.541 177.274C142.234 180.1 143.248 182.794 144.581 185.354C145.968 187.86 147.594 190.154 149.461 192.234C151.381 194.26 153.568 195.94 156.021 197.274L152.181 202.234C148.661 200.26 145.648 197.54 143.141 194.074C140.634 190.607 138.714 186.687 137.381 182.314C136.048 177.887 135.381 173.354 135.381 168.714V164.954ZM120.501 159.914H154.101V165.434H120.501V159.914ZM134.181 149.114H140.501V163.994H134.181V149.114ZM174.661 146.474H181.061V218.874H174.661V146.474ZM163.221 175.674H177.141V181.274H163.221V175.674ZM158.901 147.994H165.221V215.194H158.901V147.994ZM197.135 180.794H202.975C208.201 180.794 212.735 180.767 216.575 180.714C220.468 180.607 224.068 180.394 227.375 180.074C230.681 179.754 234.015 179.327 237.375 178.794L238.095 184.154C234.575 184.687 231.135 185.114 227.775 185.434C224.415 185.754 220.761 185.967 216.815 186.074C212.868 186.18 208.255 186.234 202.975 186.234H197.135V180.794ZM197.135 151.834H231.535V157.194H203.775V183.514H197.135V151.834ZM201.615 166.154H229.535V171.434H201.615V166.154ZM245.615 146.554H252.255V191.274H245.615V146.554ZM228.335 192.394C233.401 192.394 237.721 192.927 241.295 193.994C244.921 195.007 247.721 196.474 249.695 198.394C251.668 200.314 252.655 202.687 252.655 205.514C252.655 209.674 250.495 212.9 246.175 215.194C241.855 217.54 235.908 218.714 228.335 218.714C220.815 218.714 214.895 217.54 210.575 215.194C206.255 212.9 204.095 209.674 204.095 205.514C204.095 201.354 206.255 198.127 210.575 195.834C214.895 193.54 220.815 192.394 228.335 192.394ZM228.335 197.594C224.708 197.594 221.561 197.914 218.895 198.554C216.228 199.194 214.175 200.1 212.735 201.274C211.348 202.447 210.655 203.86 210.655 205.514C210.655 207.167 211.348 208.607 212.735 209.834C214.175 211.007 216.228 211.914 218.895 212.554C221.561 213.194 224.708 213.514 228.335 213.514C232.015 213.514 235.161 213.194 237.775 212.554C240.441 211.914 242.468 211.007 243.855 209.834C245.295 208.607 246.015 207.167 246.015 205.514C246.015 203.86 245.295 202.447 243.855 201.274C242.468 200.1 240.441 199.194 237.775 198.554C235.161 197.914 232.015 197.594 228.335 197.594ZM269.848 154.394H302.488V159.834H269.848V154.394ZM281.128 175.114H287.688V199.594H281.128V175.114ZM299.768 154.394H306.328V158.314C306.328 161.247 306.222 165.087 306.008 169.834C305.848 174.58 305.262 180.314 304.248 187.034L297.688 186.474C298.755 179.914 299.368 174.314 299.528 169.674C299.688 165.034 299.768 161.247 299.768 158.314V154.394ZM315.368 146.474H322.008V218.874H315.368V146.474ZM320.168 176.714H333.528V182.394H320.168V176.714ZM266.648 203.034L265.848 197.514C270.168 197.46 274.888 197.407 280.008 197.354C285.182 197.247 290.408 197.034 295.688 196.714C301.022 196.394 306.115 195.94 310.968 195.354L311.368 200.314C306.355 201.114 301.208 201.7 295.928 202.074C290.702 202.447 285.582 202.714 280.568 202.874C275.555 202.98 270.915 203.034 266.648 203.034ZM415.151 145.594H425.311V219.674H415.151V145.594ZM385.871 173.994H401.631V182.474H385.871V173.994ZM399.551 147.194H409.471V216.394H399.551V147.194ZM383.471 154.314H393.711C393.711 161.354 392.885 167.914 391.231 173.994C389.578 180.074 386.778 185.647 382.831 190.714C378.938 195.78 373.525 200.314 366.591 204.314L360.591 196.874C366.191 193.514 370.645 189.86 373.951 185.914C377.311 181.914 379.738 177.514 381.231 172.714C382.725 167.86 383.471 162.447 383.471 156.474V154.314ZM364.671 154.314H386.751V162.874H364.671V154.314ZM453.145 151.354H461.865V162.074C461.865 166.874 461.439 171.487 460.585 175.914C459.732 180.287 458.425 184.394 456.665 188.234C454.959 192.02 452.745 195.38 450.025 198.314C447.359 201.194 444.185 203.487 440.505 205.194L434.185 196.394C437.439 194.954 440.239 193.06 442.585 190.714C444.985 188.314 446.959 185.594 448.505 182.554C450.052 179.46 451.199 176.18 451.945 172.714C452.745 169.247 453.145 165.7 453.145 162.074V151.354ZM455.225 151.354H463.865V162.074C463.865 165.54 464.239 168.927 464.985 172.234C465.732 175.54 466.852 178.66 468.345 181.594C469.892 184.527 471.812 187.14 474.105 189.434C476.452 191.674 479.199 193.46 482.345 194.794L476.185 203.434C472.612 201.78 469.492 199.567 466.825 196.794C464.212 194.02 462.052 190.82 460.345 187.194C458.639 183.514 457.359 179.567 456.505 175.354C455.652 171.087 455.225 166.66 455.225 162.074V151.354ZM485.945 145.514H496.585V219.834H485.945V145.514ZM510.179 151.674H549.779V160.154H510.179V151.674ZM509.379 190.394L508.259 181.754C512.472 181.754 517.059 181.727 522.019 181.674C527.032 181.567 532.152 181.38 537.379 181.114C542.606 180.794 547.592 180.34 552.339 179.754L552.979 187.514C548.179 188.367 543.192 189.007 538.019 189.434C532.846 189.807 527.806 190.074 522.899 190.234C517.992 190.34 513.486 190.394 509.379 190.394ZM516.019 158.234H526.259V183.434H516.019V158.234ZM533.699 158.234H543.939V183.434H533.699V158.234ZM556.339 145.674H566.979V200.234H556.339V145.674ZM564.019 166.554H576.819V175.274H564.019V166.554ZM519.219 209.914H569.619V218.474H519.219V209.914ZM519.219 195.114H529.939V212.154H519.219V195.114Z" fill="black"/>
</svg>
