<svg width="692" height="292" viewBox="0 0 692 292" fill="none" xmlns="http://www.w3.org/2000/svg">
<rect x="1" y="1" width="129" height="124" rx="39" stroke="#F67F00" stroke-opacity="0.9" stroke-width="2"/>
<path d="M43.7527 38.73H84.6327V46.22H43.7527V38.73ZM37.1027 83.25H95.7627V90.74H37.1027V83.25ZM80.8527 38.73H90.0927V44.47C90.0927 47.0833 90.0461 49.8833 89.9527 52.87C89.9061 55.8567 89.6727 59.1933 89.2527 62.88C88.8327 66.5667 88.1327 70.79 87.1527 75.55L77.9127 74.57C79.4061 67.99 80.2694 62.2733 80.5027 57.42C80.7361 52.52 80.8527 48.2033 80.8527 44.47V38.73ZM82.5327 54.34V61.41L42.9827 63.51L41.7927 55.6L82.5327 54.34ZM57.8927 67.71H67.2727V85.98H57.8927V67.71Z" fill="black"/>
<rect x="140" y="1" width="129" height="124" rx="39" stroke="#F67F00" stroke-opacity="0.9" stroke-width="2"/>
<path d="M222.863 33.41H231.753V77.72H222.863V33.41ZM204.733 50.42H214.603V57.77H204.733V50.42ZM210.613 34.67H219.293V71.84H210.613V34.67ZM176.663 38.24H206.413V45.66H176.663V38.24ZM176.593 70.72L175.613 63.16C177.713 63.16 180.093 63.16 182.753 63.16C185.413 63.1133 188.166 63.0433 191.013 62.95C193.906 62.8567 196.753 62.74 199.553 62.6C202.353 62.4133 204.943 62.1567 207.323 61.83L207.813 68.62C204.499 69.2733 200.953 69.74 197.173 70.02C193.393 70.3 189.706 70.4867 186.113 70.58C182.519 70.6733 179.346 70.72 176.593 70.72ZM180.653 43.42H189.053V64.98H180.653V43.42ZM193.813 43.42H202.213V64.98H193.813V43.42ZM204.663 74.43H212.643V76.11C212.643 78.8167 212.083 81.3833 210.963 83.81C209.843 86.2367 208.186 88.43 205.993 90.39C203.846 92.3033 201.209 93.9133 198.083 95.22C194.956 96.5267 191.363 97.46 187.303 98.02L183.943 90.81C186.789 90.4833 189.333 89.97 191.573 89.27C193.813 88.57 195.749 87.7533 197.383 86.82C199.016 85.84 200.369 84.7667 201.443 83.6C202.563 82.4333 203.379 81.22 203.893 79.96C204.406 78.6533 204.663 77.37 204.663 76.11V74.43ZM205.993 74.43H213.973V76.11C213.973 77.37 214.229 78.6533 214.743 79.96C215.256 81.22 216.049 82.4333 217.123 83.6C218.243 84.7667 219.619 85.84 221.253 86.82C222.933 87.7533 224.869 88.57 227.063 89.27C229.303 89.97 231.823 90.4833 234.623 90.81L231.333 98.02C228.113 97.5533 225.149 96.8533 222.443 95.92C219.783 94.9867 217.426 93.8433 215.373 92.49C213.366 91.1833 211.663 89.6667 210.263 87.94C208.863 86.2133 207.789 84.3467 207.043 82.34C206.343 80.3333 205.993 78.2567 205.993 76.11V74.43Z" fill="black"/>
<path d="M356 40C356 17.9086 373.909 0 396 0H682C687.523 0 692 4.47715 692 10V116C692 121.523 687.523 126 682 126H396C373.909 126 356 108.091 356 86V40Z" fill="black"/>
<path d="M445.888 43.63H453.308V50.91C453.308 54.6433 452.912 58.3067 452.118 61.9C451.372 65.4933 450.228 68.8767 448.688 72.05C447.195 75.1767 445.305 77.9533 443.018 80.38C440.732 82.76 438.072 84.65 435.038 86.05L429.718 78.7C432.425 77.44 434.782 75.8067 436.788 73.8C438.842 71.7933 440.522 69.5533 441.828 67.08C443.182 64.56 444.185 61.9233 444.838 59.17C445.538 56.37 445.888 53.6167 445.888 50.91V43.63ZM447.918 43.63H455.268V50.91C455.268 53.4767 455.595 56.09 456.248 58.75C456.948 61.3633 457.952 63.86 459.258 66.24C460.565 68.5733 462.222 70.6733 464.228 72.54C466.235 74.4067 468.615 75.9 471.368 77.02L466.258 84.44C463.178 83.0867 460.495 81.2667 458.208 78.98C455.922 76.6933 454.008 74.0567 452.468 71.07C450.928 68.0833 449.785 64.8867 449.038 61.48C448.292 58.0267 447.918 54.5033 447.918 50.91V43.63ZM432.308 39.57H468.708V47.27H432.308V39.57ZM474.728 33.41H484.038V98.23H474.728V33.41ZM501.533 62.25H547.103V69.74H501.533V62.25ZM494.673 83.32H553.403V90.95H494.673V83.32ZM519.313 65.68H528.553V85.77H519.313V65.68ZM501.533 37.82H546.613V45.24H510.773V65.47H501.533V37.82ZM579.927 37.68C583.287 37.68 586.321 38.3567 589.027 39.71C591.734 41.0633 593.857 42.9533 595.397 45.38C596.937 47.76 597.707 50.5133 597.707 53.64C597.707 56.72 596.937 59.4733 595.397 61.9C593.857 64.3267 591.734 66.2167 589.027 67.57C586.321 68.9233 583.287 69.6 579.927 69.6C576.521 69.6 573.464 68.9233 570.757 67.57C568.051 66.2167 565.904 64.3267 564.317 61.9C562.777 59.4733 562.007 56.72 562.007 53.64C562.007 50.5133 562.777 47.76 564.317 45.38C565.904 42.9533 568.051 41.0633 570.757 39.71C573.464 38.3567 576.521 37.68 579.927 37.68ZM579.927 45.66C578.247 45.66 576.731 45.9867 575.377 46.64C574.071 47.2467 573.021 48.1567 572.227 49.37C571.481 50.5367 571.107 51.96 571.107 53.64C571.107 55.32 571.481 56.7667 572.227 57.98C573.021 59.1933 574.071 60.1267 575.377 60.78C576.731 61.3867 578.247 61.69 579.927 61.69C581.561 61.69 583.031 61.3867 584.337 60.78C585.644 60.1267 586.671 59.1933 587.417 57.98C588.211 56.7667 588.607 55.32 588.607 53.64C588.607 51.96 588.211 50.5367 587.417 49.37C586.671 48.1567 585.644 47.2467 584.337 46.64C583.031 45.9867 581.561 45.66 579.927 45.66ZM603.797 33.27H613.107V98.3H603.797V33.27ZM560.397 85.21L559.347 77.65C563.127 77.65 567.304 77.6267 571.877 77.58C576.497 77.4867 581.234 77.3 586.087 77.02C590.987 76.6933 595.724 76.2033 600.297 75.55L600.927 82.27C596.261 83.2033 591.524 83.88 586.717 84.3C581.911 84.6733 577.267 84.93 572.787 85.07C568.307 85.1633 564.177 85.21 560.397 85.21Z" fill="white"/>
<rect y="166" width="388" height="126" rx="40" fill="black"/>
<path d="M141.648 199.27H151.028V264.3H141.648V199.27ZM148.998 223.28H160.408V230.98H148.998V223.28ZM102.728 241.06H108.188C111.875 241.06 115.328 241.013 118.548 240.92C121.768 240.78 124.895 240.57 127.928 240.29C130.962 239.963 134.065 239.52 137.238 238.96L138.148 246.66C134.882 247.22 131.662 247.663 128.488 247.99C125.362 248.317 122.142 248.527 118.828 248.62C115.515 248.713 111.968 248.76 108.188 248.76H102.728V241.06ZM102.728 205.29H132.968V212.78H112.038V244.7H102.728V205.29ZM212.833 207.32H223.963V214.88H212.833V207.32ZM212.833 221.39H223.963V229.02H212.833V221.39ZM182.663 202.91C186.023 202.91 189.033 203.587 191.693 204.94C194.353 206.293 196.453 208.16 197.993 210.54C199.533 212.873 200.303 215.58 200.303 218.66C200.303 221.693 199.533 224.4 197.993 226.78C196.453 229.113 194.353 230.957 191.693 232.31C189.033 233.663 186.023 234.34 182.663 234.34C179.349 234.34 176.363 233.663 173.703 232.31C171.043 230.957 168.943 229.113 167.403 226.78C165.863 224.4 165.093 221.693 165.093 218.66C165.093 215.58 165.863 212.873 167.403 210.54C168.943 208.16 171.043 206.293 173.703 204.94C176.363 203.587 179.349 202.91 182.663 202.91ZM182.663 210.68C181.076 210.68 179.629 211.007 178.323 211.66C177.016 212.267 175.989 213.177 175.243 214.39C174.543 215.557 174.193 216.98 174.193 218.66C174.193 220.293 174.543 221.717 175.243 222.93C175.989 224.097 177.016 224.983 178.323 225.59C179.629 226.197 181.076 226.5 182.663 226.5C184.343 226.5 185.813 226.197 187.073 225.59C188.333 224.983 189.336 224.097 190.083 222.93C190.829 221.717 191.203 220.293 191.203 218.66C191.203 216.98 190.829 215.557 190.083 214.39C189.336 213.177 188.333 212.267 187.073 211.66C185.813 211.007 184.343 210.68 182.663 210.68ZM206.323 199.41H215.633V237.21H206.323V199.41ZM194.493 238.54C198.973 238.54 202.846 239.053 206.113 240.08C209.426 241.107 211.969 242.577 213.743 244.49C215.516 246.403 216.403 248.713 216.403 251.42C216.403 254.08 215.516 256.367 213.743 258.28C211.969 260.193 209.426 261.663 206.113 262.69C202.846 263.717 198.973 264.23 194.493 264.23C190.013 264.23 186.116 263.717 182.803 262.69C179.536 261.663 176.993 260.193 175.173 258.28C173.399 256.367 172.513 254.08 172.513 251.42C172.513 248.713 173.399 246.403 175.173 244.49C176.993 242.577 179.536 241.107 182.803 240.08C186.116 239.053 190.013 238.54 194.493 238.54ZM194.493 245.89C191.739 245.89 189.429 246.1 187.563 246.52C185.696 246.893 184.273 247.477 183.293 248.27C182.313 249.063 181.823 250.113 181.823 251.42C181.823 252.633 182.313 253.66 183.293 254.5C184.273 255.34 185.696 255.97 187.563 256.39C189.429 256.763 191.739 256.95 194.493 256.95C197.246 256.95 199.556 256.763 201.423 256.39C203.336 255.97 204.759 255.34 205.693 254.5C206.673 253.66 207.163 252.633 207.163 251.42C207.163 250.113 206.673 249.063 205.693 248.27C204.759 247.477 203.336 246.893 201.423 246.52C199.556 246.1 197.246 245.89 194.493 245.89ZM270.717 199.41H280.027V247.85H270.717V199.41ZM277.437 219.15H288.637V226.85H277.437V219.15ZM229.067 206.2H267.147V213.48H229.067V206.2ZM248.107 215.79C251.234 215.79 253.987 216.327 256.367 217.4C258.794 218.427 260.684 219.897 262.037 221.81C263.391 223.677 264.067 225.823 264.067 228.25C264.067 230.723 263.391 232.917 262.037 234.83C260.684 236.697 258.794 238.167 256.367 239.24C253.987 240.267 251.234 240.78 248.107 240.78C245.027 240.78 242.274 240.267 239.847 239.24C237.421 238.167 235.531 236.697 234.177 234.83C232.824 232.917 232.147 230.723 232.147 228.25C232.147 225.823 232.824 223.677 234.177 221.81C235.531 219.897 237.421 218.427 239.847 217.4C242.274 216.327 245.027 215.79 248.107 215.79ZM248.107 222.86C246.054 222.86 244.374 223.327 243.067 224.26C241.761 225.193 241.107 226.547 241.107 228.32C241.107 230.047 241.761 231.377 243.067 232.31C244.374 233.243 246.054 233.71 248.107 233.71C250.207 233.71 251.887 233.243 253.147 232.31C254.454 231.377 255.107 230.047 255.107 228.32C255.107 226.547 254.454 225.193 253.147 224.26C251.887 223.327 250.207 222.86 248.107 222.86ZM243.487 199.34H252.727V209.7H243.487V199.34ZM238.237 255.62H282.337V263.11H238.237V255.62ZM238.237 244.21H247.617V258.84H238.237V244.21Z" fill="white"/>
<mask id="path-11-inside-1_2623_4044" fill="white">
<path d="M486 166H692V292H486V166Z"/>
</mask>
<path d="M692 287H486V297H692V287Z" fill="#F67F00" fill-opacity="0.9" mask="url(#path-11-inside-1_2623_4044)"/>
<path d="M549.577 199.34H558.887V264.16H549.577V199.34ZM530.467 206.06H539.637C539.637 211.007 539.147 215.743 538.167 220.27C537.234 224.75 535.647 228.973 533.407 232.94C531.214 236.907 528.18 240.593 524.307 244C520.48 247.36 515.697 250.44 509.957 253.24L505.057 245.89C511.31 242.857 516.28 239.52 519.967 235.88C523.7 232.193 526.384 228.04 528.017 223.42C529.65 218.753 530.467 213.527 530.467 207.74V206.06ZM508.557 206.06H534.807V213.48H508.557V206.06ZM576.661 215.51H621.461V222.86H576.661V215.51ZM576.661 200.46H585.971V218.87H576.661V200.46ZM569.381 228.39H627.971V235.81H569.381V228.39ZM598.431 240.01C605.431 240.01 610.938 241.06 614.951 243.16C618.965 245.213 620.971 248.177 620.971 252.05C620.971 255.83 618.965 258.77 614.951 260.87C610.938 263.017 605.431 264.09 598.431 264.09C591.431 264.09 585.925 263.017 581.911 260.87C577.945 258.77 575.961 255.83 575.961 252.05C575.961 248.177 577.945 245.213 581.911 243.16C585.925 241.06 591.431 240.01 598.431 240.01ZM598.431 247.08C595.538 247.08 593.111 247.267 591.151 247.64C589.238 247.967 587.791 248.503 586.811 249.25C585.831 249.95 585.341 250.86 585.341 251.98C585.341 253.1 585.831 254.033 586.811 254.78C587.791 255.48 589.238 256.017 591.151 256.39C593.111 256.763 595.538 256.95 598.431 256.95C601.325 256.95 603.728 256.763 605.641 256.39C607.601 256.017 609.071 255.48 610.051 254.78C611.031 254.033 611.521 253.1 611.521 251.98C611.521 250.86 611.031 249.95 610.051 249.25C609.071 248.503 607.601 247.967 605.641 247.64C603.728 247.267 601.325 247.08 598.431 247.08ZM668.878 241.491H657.188L655.343 208.986H670.689L668.878 241.491ZM671.236 251.916C671.236 253.944 670.496 255.607 669.015 256.906C667.556 258.205 665.597 258.854 663.136 258.854C660.743 258.854 658.784 258.194 657.257 256.872C655.753 255.55 655.001 253.898 655.001 251.916C655.001 249.911 655.73 248.293 657.188 247.062C658.67 245.809 660.652 245.183 663.136 245.183C665.551 245.183 667.499 245.809 668.98 247.062C670.484 248.293 671.236 249.911 671.236 251.916Z" fill="black"/>
</svg>
