<svg width="75" height="96" viewBox="0 0 75 96" fill="none" xmlns="http://www.w3.org/2000/svg">
<path d="M37.361 2.09961L37.3575 2.09961C27.8423 2.11059 18.7253 5.96221 12.0051 12.8008C5.28583 19.6385 1.51077 28.9037 1.5 38.5626V38.5642C1.5 54.0379 9.56512 67.5034 17.6351 77.1232C25.7167 86.7568 33.9629 92.7246 34.6964 93.2458C35.4742 93.8002 36.4039 94.0996 37.3593 94.0996C38.3146 94.0996 39.2443 93.8002 40.0221 93.2458C40.7556 92.7246 49.0018 86.7568 57.0834 77.1232C65.1534 67.5034 73.2185 54.0379 73.2185 38.5642V38.5626C73.2077 28.9037 69.4327 19.6385 62.7134 12.8008C55.9932 5.96221 46.8762 2.11059 37.361 2.09961ZM37.3593 27.3498C39.5278 27.3498 41.6499 28.0041 43.4573 29.233C45.265 30.4622 46.6778 32.212 47.5131 34.2642C48.3486 36.3166 48.5675 38.5764 48.1413 40.7569C47.7151 42.9373 46.6638 44.9366 45.1242 46.5033C43.5848 48.0698 41.6268 49.1335 39.4992 49.5642C37.3717 49.9948 35.1662 49.774 33.1605 48.9286C31.1545 48.0831 29.4357 46.6493 28.2245 44.8047C27.0131 42.9598 26.365 40.788 26.365 38.5642C26.365 35.5816 27.5296 32.7263 29.5943 30.6252C31.6583 28.5249 34.4519 27.3498 37.3593 27.3498Z" fill="#F67F00" fill-opacity="0.9" stroke="white" stroke-width="3"/>
</svg>
