<svg width="526" height="516" viewBox="0 0 526 516" fill="none" xmlns="http://www.w3.org/2000/svg">
<rect x="49.7403" y="248.994" width="436" height="125" rx="19.5" transform="rotate(-1.19865 49.7403 248.994)" fill="black"/>
<rect x="49.7403" y="248.994" width="436" height="125" rx="19.5" transform="rotate(-1.19865 49.7403 248.994)" stroke="#33FF00"/>
<path d="M111.402 286.012L141.145 285.39L141.301 292.808L111.557 293.43L111.402 286.012ZM111.997 317.787L110.859 310.249C112.912 310.206 115.221 310.157 117.787 310.104C120.399 310.002 123.104 309.876 125.901 309.724C128.744 309.524 131.563 309.302 134.359 309.057C137.153 308.765 139.784 308.43 142.25 308.052L142.88 314.76C139.583 315.576 136.025 316.187 132.206 316.594C128.434 316.999 124.776 317.286 121.232 317.453C117.734 317.62 114.656 317.731 111.997 317.787ZM115.495 290.897L123.893 290.722L124.341 312.137L115.943 312.313L115.495 290.897ZM128.862 290.618L137.26 290.442L137.708 311.857L129.31 312.033L128.862 290.618ZM157.199 279.663L166.017 279.478L166.937 323.428L158.119 323.613L157.199 279.663ZM150.034 295.286L160.252 295.072L160.409 302.56L150.191 302.774L150.034 295.286ZM144.137 281.126L152.815 280.945L153.592 318.106L144.914 318.288L144.137 281.126ZM139.931 321.053L147.839 320.887L147.873 322.497C147.931 325.25 147.425 327.851 146.356 330.301C145.287 332.75 143.677 334.978 141.525 336.983C139.419 338.941 136.816 340.606 133.717 341.977C130.619 343.349 127.045 344.334 122.997 344.932L119.558 337.863C122.351 337.478 124.86 336.912 127.084 336.165C129.309 335.418 131.228 334.538 132.84 333.524C134.453 332.51 135.783 331.409 136.832 330.22C137.928 329.03 138.719 327.8 139.206 326.529C139.739 325.258 139.992 323.969 139.965 322.663L139.931 321.053ZM141.261 321.025L149.169 320.86L149.203 322.469C149.23 323.776 149.514 325.053 150.053 326.302C150.639 327.55 151.481 328.746 152.579 329.89C153.723 331.033 155.122 332.078 156.775 333.023C158.429 333.969 160.359 334.769 162.567 335.423C164.821 336.076 167.351 336.536 170.157 336.804L167.017 344.011C163.789 343.659 160.812 343.044 158.087 342.168C155.408 341.29 153.028 340.196 150.947 338.886C148.913 337.622 147.178 336.141 145.743 334.444C144.307 332.747 143.218 330.903 142.476 328.911C141.734 326.92 141.34 324.828 141.294 322.635L141.261 321.025ZM180.254 280.861L228.613 279.849L228.76 286.847L180.4 287.859L180.254 280.861ZM181.061 296.037L228.371 295.047L228.517 302.046L181.208 303.035L181.061 296.037ZM188.569 283.417L197.877 283.222L198.231 300.159L188.923 300.353L188.569 283.417ZM211.104 282.946L220.412 282.751L220.766 299.687L211.458 299.882L211.104 282.946ZM175.678 306.442L234.325 305.215L234.477 312.493L175.83 313.72L175.678 306.442ZM182.623 317.149L227.414 316.212L227.752 332.378L192.27 333.121L192.395 339.139L183.157 339.333L182.901 327.085L218.453 326.341L218.385 323.052L182.762 323.797L182.623 317.149ZM183.103 336.743L229.573 335.771L229.715 342.559L183.245 343.532L183.103 336.743ZM242.19 319.964L246.809 319.867C250.728 319.785 254.482 319.613 258.07 319.351C261.705 319.042 265.521 318.518 269.52 317.781L270.447 325.254C266.356 326.086 262.424 326.635 258.648 326.901C254.92 327.165 251.026 327.34 246.967 327.425L242.348 327.522L242.19 319.964ZM241.303 284.274L264.258 283.794L264.776 308.569L250.989 308.857L251.278 322.644L242.25 322.833L241.808 301.698L255.665 301.408L255.454 291.33L241.457 291.623L241.303 284.274ZM286.308 276.891L295.196 276.705L296.552 341.511L287.664 341.697L286.308 276.891ZM267.244 299.345L277.252 299.135L277.411 306.764L267.404 306.973L267.244 299.345ZM273.176 278.356L281.784 278.176L283.051 338.713L274.443 338.893L273.176 278.356ZM348.378 275.522L357.686 275.328L359.046 340.343L349.738 340.538L348.378 275.522ZM322.859 280.607C326.171 280.538 329.131 281.433 331.737 283.292C334.342 285.105 336.404 287.746 337.924 291.215C339.489 294.636 340.321 298.703 340.42 303.415C340.519 308.174 339.859 312.319 338.439 315.849C337.065 319.332 335.115 322.057 332.589 324.023C330.062 325.943 327.142 326.938 323.829 327.007C320.564 327.076 317.628 326.203 315.023 324.391C312.417 322.532 310.331 319.891 308.766 316.47C307.246 313.001 306.437 308.887 306.337 304.128C306.238 299.416 306.876 295.318 308.25 291.835C309.67 288.305 311.644 285.58 314.171 283.66C316.697 281.693 319.593 280.676 322.859 280.607ZM323.036 289.076C321.45 289.109 320.062 289.698 318.872 290.843C317.682 291.988 316.76 293.664 316.106 295.872C315.498 298.032 315.228 300.721 315.295 303.941C315.361 307.113 315.745 309.813 316.445 312.038C317.19 314.217 318.182 315.853 319.418 316.947C320.655 318.042 322.066 318.572 323.652 318.539C325.285 318.505 326.697 317.915 327.886 316.77C329.076 315.625 329.974 313.949 330.582 311.743C331.235 309.488 331.528 306.775 331.462 303.602C331.394 300.383 330.988 297.708 330.243 295.576C329.544 293.397 328.577 291.76 327.34 290.666C326.104 289.571 324.669 289.041 323.036 289.076ZM392.473 278.451L400.522 278.282L400.62 282.971C400.678 285.771 400.339 288.508 399.601 291.184C398.909 293.813 397.841 296.309 396.397 298.673C394.953 301.037 393.154 303.198 391.002 305.157C388.895 307.068 386.455 308.73 383.684 310.141C380.913 311.553 377.855 312.621 374.509 313.344L370.358 305.659C373.24 305.086 375.86 304.261 378.218 303.184C380.621 302.06 382.717 300.733 384.506 299.202C386.294 297.671 387.8 296.029 389.024 294.276C390.246 292.477 391.141 290.638 391.709 288.759C392.322 286.832 392.609 284.959 392.571 283.14L392.473 278.451ZM394.293 278.413L402.411 278.243L402.509 282.932C402.548 284.798 402.891 286.681 403.538 288.581C404.231 290.481 405.203 292.304 406.453 294.052C407.749 295.752 409.321 297.306 411.171 298.714C413.021 300.122 415.147 301.338 417.549 302.361C419.95 303.338 422.649 304.052 425.646 304.502L421.819 312.354C418.446 311.771 415.346 310.833 412.518 309.538C409.69 308.244 407.161 306.686 404.929 304.866C402.743 303.045 400.856 300.984 399.268 298.683C397.726 296.381 396.531 293.909 395.682 291.266C394.88 288.623 394.45 285.901 394.391 283.102L394.293 278.413ZM369.352 324.514L428.069 323.286L428.229 330.914L369.511 332.143L369.352 324.514Z" fill="#FFD159"/>
<rect x="121.897" y="85.3629" width="362.982" height="115.307" rx="20" transform="rotate(6.22729 121.897 85.3629)" fill="black"/>
<path d="M231.27 180.459C227.847 181.679 223.515 182.002 218.275 181.431C211.441 180.685 206.286 178.089 202.81 173.645C199.334 169.2 197.961 163.632 198.691 156.943C199.468 149.819 202.294 144.28 207.168 140.327C212.063 136.376 218.021 134.784 225.042 135.55C229.391 136.025 232.997 136.973 235.86 138.397L234.805 148.058C232.017 145.951 228.718 144.69 224.907 144.274C220.724 143.818 217.205 144.765 214.349 147.115C211.494 149.465 209.822 152.887 209.331 157.381C208.861 161.689 209.698 165.259 211.841 168.091C213.986 170.903 217.109 172.533 221.209 172.98C225.124 173.407 228.81 172.846 232.27 171.295L231.27 180.459ZM256.797 185.634C250.418 184.938 245.446 182.3 241.88 177.719C238.316 173.118 236.898 167.483 237.626 160.814C238.394 153.773 241.056 148.3 245.61 144.396C250.165 140.492 255.807 138.907 262.538 139.642C268.896 140.335 273.805 142.977 277.265 147.567C280.746 152.159 282.115 157.862 281.371 164.676C280.607 171.676 277.952 177.097 273.404 180.939C268.877 184.783 263.341 186.348 256.797 185.634ZM261.316 148.247C257.795 147.863 254.855 148.883 252.495 151.308C250.137 153.713 248.72 157.089 248.246 161.439C247.764 165.85 248.419 169.453 250.21 172.247C252.001 175.041 254.574 176.621 257.929 176.987C261.387 177.364 264.267 176.421 266.568 174.157C268.871 171.873 270.264 168.515 270.748 164.083C271.252 159.464 270.66 155.764 268.973 152.981C267.286 150.198 264.733 148.62 261.316 148.247ZM298.04 173.819L296.366 189.166L286.332 188.071L291.193 143.523L306.912 145.238C318.137 146.463 323.233 151.807 322.2 161.272C321.712 165.746 319.701 169.194 316.168 171.616C312.657 174.021 308.209 174.929 302.824 174.341L298.04 173.819ZM300.386 152.322L298.871 166.208L302.816 166.639C308.159 167.222 311.086 165.173 311.597 160.492C312.097 155.915 309.675 153.335 304.331 152.752L300.386 152.322ZM352.129 195.25L325.412 192.335L330.273 147.787L355.964 150.59L355.073 158.761L339.416 157.052L338.334 166.962L352.904 168.552L352.016 176.691L337.446 175.101L336.334 185.291L353.017 187.111L352.129 195.25ZM395.085 163.127L382.379 161.74L378.41 198.118L368.345 197.02L372.314 160.642L359.671 159.262L360.562 151.092L395.977 154.956L395.085 163.127Z" fill="white"/>
<rect x="76.48" y="389.363" width="353" height="126" rx="20" fill="black"/>
<path d="M216.045 426.413H225.845C225.845 432.106 224.679 437.193 222.345 441.673C220.059 446.153 216.722 449.98 212.335 453.153C207.995 456.28 202.652 458.73 196.305 460.503L192.735 453.223C197.915 451.823 202.232 450.026 205.685 447.833C209.139 445.593 211.729 443.05 213.455 440.203C215.182 437.31 216.045 434.183 216.045 430.823V426.413ZM196.235 426.413H222.555V433.833H196.235V426.413ZM237.325 422.703H246.705V458.963H237.325V422.703ZM226.195 438.103H238.655V445.663H226.195V438.103ZM203.935 461.623H246.705V486.893H203.935V461.623ZM237.535 468.903H213.105V479.543H237.535V468.903ZM268.47 426.413H275.75V433.903C275.75 437.59 275.237 441.183 274.21 444.683C273.183 448.183 271.573 451.31 269.38 454.063C267.233 456.816 264.387 458.963 260.84 460.503L255.94 453.293C258.927 451.94 261.33 450.213 263.15 448.113C265.017 446.013 266.37 443.726 267.21 441.253C268.05 438.78 268.47 436.33 268.47 433.903V426.413ZM270.22 426.413H277.5V433.903C277.5 436.283 277.897 438.616 278.69 440.903C279.483 443.143 280.767 445.196 282.54 447.063C284.313 448.93 286.623 450.47 289.47 451.683L284.57 458.753C281.21 457.353 278.457 455.393 276.31 452.873C274.21 450.306 272.67 447.413 271.69 444.193C270.71 440.926 270.22 437.496 270.22 433.903V426.413ZM303.19 422.773H312.08V462.113H303.19V422.773ZM295.49 438.523H305.78V446.013H295.49V438.523ZM289.54 423.753H298.22V461.763H289.54V423.753ZM267.49 464.913H312.08V487.593H302.77V472.333H267.49V464.913Z" fill="white"/>
<mask id="path-8-outside-1_2754_8549" maskUnits="userSpaceOnUse" x="5.74844" y="16.4527" width="238.056" height="110.89" fill="black">
<rect fill="white" x="5.74844" y="16.4527" width="238.056" height="110.89"/>
<path d="M35.1036 122.48L30.1901 123.352C21.826 116.643 16.6111 107.466 14.5456 95.8221C12.4721 84.1328 14.1846 73.5655 19.6832 64.1201L24.664 63.2365C19.1314 73.012 17.37 83.5648 19.3799 94.8951C21.3738 106.136 26.615 115.331 35.1036 122.48ZM72.7918 45.6845L78.5125 44.6697L86.7407 91.0556L81.02 92.0703L72.7918 45.6845ZM29.9864 58.4673L62.7943 52.6476L63.6257 57.3345L30.8178 63.1541L29.9864 58.4673ZM34.6255 90.6314L33.0805 85.929C36.5267 85.3177 40.3134 84.6223 44.4407 83.8428C48.6058 83.0092 52.8276 82.0944 57.1061 81.0985C61.3845 80.1026 65.44 79.0514 69.2723 77.9451L70.306 82.1694C66.4685 83.5137 62.4145 84.7068 58.1442 85.7486C53.9198 86.7823 49.771 87.7079 45.6978 88.5252C41.6706 89.3343 37.9798 90.0364 34.6255 90.6314ZM36.842 61.4457L42.4249 60.4554L46.6674 84.372L41.0845 85.3623L36.842 61.4457ZM51.7985 58.7926L57.3125 57.8145L61.5549 81.7312L56.041 82.7092L51.7985 58.7926ZM64.4871 59.3855L77.8584 57.0137L78.6898 61.7005L65.3185 64.0724L64.4871 59.3855ZM66.59 71.2405L79.9613 68.8686L80.8049 73.6244L67.4336 75.9962L66.59 71.2405ZM48.5942 108.06L90.1554 100.687L90.9868 105.374L49.4256 112.746L48.5942 108.06ZM46.1612 94.3437L51.8819 93.3289L54.8406 110.009L49.12 111.023L46.1612 94.3437ZM136.059 34.4618L141.71 33.4592L152.787 95.9044L147.136 96.907L136.059 34.4618ZM101.778 84.4781L106.947 83.5612C110.485 82.9336 113.877 82.2844 117.123 81.6138C120.407 80.8891 123.698 80.0685 126.995 79.1518C130.338 78.227 133.795 77.1399 137.365 75.8905L138.747 80.4795C133.305 82.3929 128.13 83.9506 123.225 85.1525C118.311 86.3085 113.167 87.3633 107.79 88.3169L102.621 89.2339L101.778 84.4781ZM95.1109 47.6971L123.921 42.5866L127.87 64.8491L104.987 68.9082L107.885 85.2432L102.095 86.2701L98.3787 65.3172L121.261 61.2582L118.963 48.3004L95.9423 52.384L95.1109 47.6971ZM196.719 23.7726L202.439 22.7579L210.729 69.4884L205.008 70.5031L196.719 23.7726ZM204.278 43.5462L215.237 41.6022L216.081 46.358L205.122 48.302L204.278 43.5462ZM155.537 38.8978L192.343 32.3691L193.162 36.987L156.357 43.5157L155.537 38.8978ZM175.358 43.6286C178.299 43.107 180.985 43.1519 183.416 43.7634C185.838 44.329 187.825 45.3747 189.375 46.9007C190.917 48.3808 191.896 50.2925 192.312 52.6359C192.728 54.9794 192.47 57.1341 191.539 59.1003C190.6 61.0205 189.091 62.6627 187.01 64.0271C184.93 65.3914 182.419 66.3344 179.479 66.856C176.538 67.3777 173.856 67.3557 171.433 66.7902C169.011 66.2246 167.005 65.2059 165.417 63.734C163.867 62.208 162.884 60.2733 162.468 57.9299C162.052 55.5865 162.314 53.4546 163.253 51.5345C164.23 49.5602 165.759 47.8908 167.839 46.5265C169.911 45.1162 172.418 44.1503 175.358 43.6286ZM176.153 48.1087C173.35 48.6059 171.194 49.6756 169.684 51.3179C168.166 52.9142 167.599 54.7922 167.982 56.9518C168.365 59.1114 169.544 60.6796 171.518 61.6565C173.492 62.6333 175.881 62.8732 178.684 62.376C181.533 61.8706 183.693 60.8239 185.165 59.2357C186.683 57.6394 187.25 55.7614 186.867 53.6018C186.484 51.4422 185.305 49.874 183.331 48.8971C181.395 47.8662 179.002 47.6033 176.153 48.1087ZM169.769 28.5531L175.49 27.5383L177.251 37.4634L171.53 38.4781L169.769 28.5531ZM173.612 85.8832L215.173 78.5108L216.004 83.1977L174.443 90.57L173.612 85.8832ZM171.264 72.6498L176.916 71.6473L179.606 86.8105L173.954 87.8131L171.264 72.6498ZM231.779 87.5925L226.866 88.4641C232.377 78.8312 234.136 68.3945 232.142 57.154C230.133 45.8237 224.849 36.5205 216.292 29.2445L221.273 28.3609C229.729 35.3309 234.994 44.6605 237.068 56.3497C239.133 67.9941 237.371 78.4084 231.779 87.5925Z"/>
</mask>
<path d="M35.1036 122.48L30.1901 123.352C21.826 116.643 16.6111 107.466 14.5456 95.8221C12.4721 84.1328 14.1846 73.5655 19.6832 64.1201L24.664 63.2365C19.1314 73.012 17.37 83.5648 19.3799 94.8951C21.3738 106.136 26.615 115.331 35.1036 122.48ZM72.7918 45.6845L78.5125 44.6697L86.7407 91.0556L81.02 92.0703L72.7918 45.6845ZM29.9864 58.4673L62.7943 52.6476L63.6257 57.3345L30.8178 63.1541L29.9864 58.4673ZM34.6255 90.6314L33.0805 85.929C36.5267 85.3177 40.3134 84.6223 44.4407 83.8428C48.6058 83.0092 52.8276 82.0944 57.1061 81.0985C61.3845 80.1026 65.44 79.0514 69.2723 77.9451L70.306 82.1694C66.4685 83.5137 62.4145 84.7068 58.1442 85.7486C53.9198 86.7823 49.771 87.7079 45.6978 88.5252C41.6706 89.3343 37.9798 90.0364 34.6255 90.6314ZM36.842 61.4457L42.4249 60.4554L46.6674 84.372L41.0845 85.3623L36.842 61.4457ZM51.7985 58.7926L57.3125 57.8145L61.5549 81.7312L56.041 82.7092L51.7985 58.7926ZM64.4871 59.3855L77.8584 57.0137L78.6898 61.7005L65.3185 64.0724L64.4871 59.3855ZM66.59 71.2405L79.9613 68.8686L80.8049 73.6244L67.4336 75.9962L66.59 71.2405ZM48.5942 108.06L90.1554 100.687L90.9868 105.374L49.4256 112.746L48.5942 108.06ZM46.1612 94.3437L51.8819 93.3289L54.8406 110.009L49.12 111.023L46.1612 94.3437ZM136.059 34.4618L141.71 33.4592L152.787 95.9044L147.136 96.907L136.059 34.4618ZM101.778 84.4781L106.947 83.5612C110.485 82.9336 113.877 82.2844 117.123 81.6138C120.407 80.8891 123.698 80.0685 126.995 79.1518C130.338 78.227 133.795 77.1399 137.365 75.8905L138.747 80.4795C133.305 82.3929 128.13 83.9506 123.225 85.1525C118.311 86.3085 113.167 87.3633 107.79 88.3169L102.621 89.2339L101.778 84.4781ZM95.1109 47.6971L123.921 42.5866L127.87 64.8491L104.987 68.9082L107.885 85.2432L102.095 86.2701L98.3787 65.3172L121.261 61.2582L118.963 48.3004L95.9423 52.384L95.1109 47.6971ZM196.719 23.7726L202.439 22.7579L210.729 69.4884L205.008 70.5031L196.719 23.7726ZM204.278 43.5462L215.237 41.6022L216.081 46.358L205.122 48.302L204.278 43.5462ZM155.537 38.8978L192.343 32.3691L193.162 36.987L156.357 43.5157L155.537 38.8978ZM175.358 43.6286C178.299 43.107 180.985 43.1519 183.416 43.7634C185.838 44.329 187.825 45.3747 189.375 46.9007C190.917 48.3808 191.896 50.2925 192.312 52.6359C192.728 54.9794 192.47 57.1341 191.539 59.1003C190.6 61.0205 189.091 62.6627 187.01 64.0271C184.93 65.3914 182.419 66.3344 179.479 66.856C176.538 67.3777 173.856 67.3557 171.433 66.7902C169.011 66.2246 167.005 65.2059 165.417 63.734C163.867 62.208 162.884 60.2733 162.468 57.9299C162.052 55.5865 162.314 53.4546 163.253 51.5345C164.23 49.5602 165.759 47.8908 167.839 46.5265C169.911 45.1162 172.418 44.1503 175.358 43.6286ZM176.153 48.1087C173.35 48.6059 171.194 49.6756 169.684 51.3179C168.166 52.9142 167.599 54.7922 167.982 56.9518C168.365 59.1114 169.544 60.6796 171.518 61.6565C173.492 62.6333 175.881 62.8732 178.684 62.376C181.533 61.8706 183.693 60.8239 185.165 59.2357C186.683 57.6394 187.25 55.7614 186.867 53.6018C186.484 51.4422 185.305 49.874 183.331 48.8971C181.395 47.8662 179.002 47.6033 176.153 48.1087ZM169.769 28.5531L175.49 27.5383L177.251 37.4634L171.53 38.4781L169.769 28.5531ZM173.612 85.8832L215.173 78.5108L216.004 83.1977L174.443 90.57L173.612 85.8832ZM171.264 72.6498L176.916 71.6473L179.606 86.8105L173.954 87.8131L171.264 72.6498ZM231.779 87.5925L226.866 88.4641C232.377 78.8312 234.136 68.3945 232.142 57.154C230.133 45.8237 224.849 36.5205 216.292 29.2445L221.273 28.3609C229.729 35.3309 234.994 44.6605 237.068 56.3497C239.133 67.9941 237.371 78.4084 231.779 87.5925Z" fill="#FFD159"/>
<path d="M35.1036 122.48L35.2782 123.465L37.3819 123.092L35.7478 121.715L35.1036 122.48ZM30.1901 123.352L29.5644 124.132L29.9182 124.416L30.3647 124.336L30.1901 123.352ZM19.6832 64.1201L19.5085 63.1355L19.0522 63.2164L18.819 63.617L19.6832 64.1201ZM24.664 63.2365L25.5343 63.7291L26.5803 61.881L24.4894 62.2519L24.664 63.2365ZM34.9289 121.495L30.0154 122.367L30.3647 124.336L35.2782 123.465L34.9289 121.495ZM30.8157 122.572C22.6607 116.031 17.5581 107.08 15.5302 95.6474L13.561 95.9968C15.6641 107.853 20.9913 117.255 29.5644 124.132L30.8157 122.572ZM15.5302 95.6474C13.4942 84.1696 15.1785 73.8458 20.5474 64.6232L18.819 63.617C13.1907 73.2852 11.4499 84.0961 13.561 95.9968L15.5302 95.6474ZM19.8579 65.1047L24.8387 64.2212L24.4894 62.2519L19.5085 63.1355L19.8579 65.1047ZM23.7938 62.744C18.1436 72.7271 16.3459 83.5167 18.3952 95.0698L20.3645 94.7205C18.3942 83.613 20.1192 73.2969 25.5343 63.7291L23.7938 62.744ZM18.3952 95.0698C20.4288 106.534 25.7862 115.94 34.4594 123.245L35.7478 121.715C27.4438 114.721 22.3188 105.738 20.3645 94.7205L18.3952 95.0698ZM72.7918 45.6845L72.6171 44.6998L71.6325 44.8745L71.8071 45.8591L72.7918 45.6845ZM78.5125 44.6697L79.4971 44.495L79.3224 43.5104L78.3378 43.6851L78.5125 44.6697ZM86.7407 91.0556L86.9153 92.0402L87.9 91.8655L87.7253 90.8809L86.7407 91.0556ZM81.02 92.0703L80.0354 92.245L80.21 93.2296L81.1946 93.055L81.02 92.0703ZM29.9864 58.4673L29.8118 57.4827L28.8272 57.6573L29.0018 58.642L29.9864 58.4673ZM62.7943 52.6476L63.7789 52.473L63.6043 51.4884L62.6196 51.663L62.7943 52.6476ZM63.6257 57.3345L63.8003 58.3191L64.785 58.1444L64.6103 57.1598L63.6257 57.3345ZM30.8178 63.1541L29.8332 63.3288L30.0079 64.3134L30.9925 64.1388L30.8178 63.1541ZM34.6255 90.6314L33.6755 90.9436L33.9462 91.7676L34.8002 91.6161L34.6255 90.6314ZM33.0805 85.929L32.9058 84.9444L31.7705 85.1458L32.1304 86.2412L33.0805 85.929ZM44.4407 83.8428L44.6263 84.8255L44.6369 84.8233L44.4407 83.8428ZM57.1061 81.0985L56.8793 80.1245L57.1061 81.0985ZM69.2723 77.9451L70.2436 77.7074L69.996 76.6953L68.9949 76.9843L69.2723 77.9451ZM70.306 82.1694L70.6366 83.1132L71.493 82.8132L71.2774 81.9317L70.306 82.1694ZM58.1442 85.7486L57.9072 84.7771L57.9065 84.7773L58.1442 85.7486ZM45.6978 88.5252L45.5011 87.5447L45.5009 87.5448L45.6978 88.5252ZM36.842 61.4457L36.6674 60.4611L35.6827 60.6357L35.8574 61.6203L36.842 61.4457ZM42.4249 60.4554L43.4095 60.2807L43.2348 59.2961L42.2502 59.4707L42.4249 60.4554ZM46.6674 84.372L46.842 85.3566L47.8266 85.182L47.652 84.1973L46.6674 84.372ZM41.0845 85.3623L40.0999 85.537L40.2745 86.5216L41.2592 86.347L41.0845 85.3623ZM51.7985 58.7926L51.6239 57.808L50.6393 57.9826L50.8139 58.9673L51.7985 58.7926ZM57.3125 57.8145L58.2971 57.6399L58.1224 56.6552L57.1378 56.8299L57.3125 57.8145ZM61.5549 81.7312L61.7296 82.7158L62.7142 82.5411L62.5396 81.5565L61.5549 81.7312ZM56.041 82.7092L55.0564 82.8839L55.2311 83.8685L56.2157 83.6939L56.041 82.7092ZM64.4871 59.3855L64.3125 58.4009L63.3279 58.5756L63.5025 59.5602L64.4871 59.3855ZM77.8584 57.0137L78.843 56.839L78.6684 55.8544L77.6837 56.029L77.8584 57.0137ZM78.6898 61.7005L78.8644 62.6851L79.8491 62.5105L79.6744 61.5258L78.6898 61.7005ZM65.3185 64.0724L64.3339 64.247L64.5086 65.2317L65.4932 65.057L65.3185 64.0724ZM66.59 71.2405L66.4154 70.2558L65.4308 70.4305L65.6054 71.4151L66.59 71.2405ZM79.9613 68.8686L80.9459 68.6939L80.7713 67.7093L79.7866 67.884L79.9613 68.8686ZM80.8049 73.6244L80.9796 74.609L81.9642 74.4343L81.7895 73.4497L80.8049 73.6244ZM67.4336 75.9962L66.449 76.1709L66.6237 77.1555L67.6083 76.9809L67.4336 75.9962ZM48.5942 108.06L48.4196 107.075L47.4349 107.25L47.6096 108.234L48.5942 108.06ZM90.1554 100.687L91.14 100.513L90.9654 99.5279L89.9808 99.7026L90.1554 100.687ZM90.9868 105.374L91.1615 106.359L92.1461 106.184L91.9714 105.199L90.9868 105.374ZM49.4256 112.746L48.441 112.921L48.6156 113.906L49.6003 113.731L49.4256 112.746ZM46.1612 94.3437L45.9866 93.3591L45.0019 93.5337L45.1766 94.5183L46.1612 94.3437ZM51.8819 93.3289L52.8665 93.1543L52.6919 92.1696L51.7073 92.3443L51.8819 93.3289ZM54.8406 110.009L55.0153 110.993L55.9999 110.818L55.8253 109.834L54.8406 110.009ZM49.12 111.023L48.1353 111.198L48.31 112.183L49.2946 112.008L49.12 111.023ZM72.9664 46.6691L78.6871 45.6543L78.3378 43.6851L72.6171 44.6998L72.9664 46.6691ZM77.5278 44.8443L85.756 91.2302L87.7253 90.8809L79.4971 44.495L77.5278 44.8443ZM86.566 90.0709L80.8453 91.0857L81.1946 93.055L86.9153 92.0402L86.566 90.0709ZM82.0046 91.8957L73.7764 45.5098L71.8071 45.8591L80.0354 92.245L82.0046 91.8957ZM30.1611 59.4519L62.9689 53.6323L62.6196 51.663L29.8118 57.4827L30.1611 59.4519ZM61.8097 52.8223L62.641 57.5091L64.6103 57.1598L63.7789 52.473L61.8097 52.8223ZM63.451 56.3498L30.6432 62.1695L30.9925 64.1388L63.8003 58.3191L63.451 56.3498ZM31.8025 62.9795L30.9711 58.2926L29.0018 58.642L29.8332 63.3288L31.8025 62.9795ZM35.5756 90.3193L34.0305 85.6169L32.1304 86.2412L33.6755 90.9436L35.5756 90.3193ZM33.2551 86.9137C36.7056 86.3016 40.496 85.6055 44.6263 84.8254L44.2551 82.8602C40.1308 83.6391 36.3477 84.3338 32.9058 84.9444L33.2551 86.9137ZM44.6369 84.8233C48.8126 83.9876 53.0445 83.0706 57.3328 82.0724L56.8793 80.1245C52.6106 81.1182 48.399 82.0307 44.2444 82.8622L44.6369 84.8233ZM57.3328 82.0724C61.6266 81.0729 65.699 80.0175 69.5497 78.9058L68.9949 76.9843C65.1809 78.0854 61.1425 79.1322 56.8793 80.1245L57.3328 82.0724ZM68.3009 78.1827L69.3347 82.4071L71.2774 81.9317L70.2436 77.7074L68.3009 78.1827ZM69.9754 81.2257C66.1709 82.5583 62.1484 83.7424 57.9072 84.7771L58.3812 86.7201C62.6807 85.6712 66.766 84.469 70.6366 83.1132L69.9754 81.2257ZM57.9065 84.7773C53.6951 85.8078 49.56 86.7303 45.5011 87.5447L45.8946 89.5056C49.9821 88.6854 54.1446 87.7569 58.3819 86.72L57.9065 84.7773ZM45.5009 87.5448C41.4796 88.3527 37.7964 89.0534 34.4509 89.6468L34.8002 91.6161C38.1633 91.0195 41.8616 90.316 45.8948 89.5056L45.5009 87.5448ZM37.0167 62.4303L42.5995 61.44L42.2502 59.4707L36.6674 60.4611L37.0167 62.4303ZM41.4402 60.63L45.6827 84.5467L47.652 84.1973L43.4095 60.2807L41.4402 60.63ZM46.4927 83.3874L40.9098 84.3777L41.2592 86.347L46.842 85.3566L46.4927 83.3874ZM42.0691 85.1877L37.8267 61.271L35.8574 61.6203L40.0999 85.537L42.0691 85.1877ZM51.9732 59.7772L57.4871 58.7991L57.1378 56.8299L51.6239 57.808L51.9732 59.7772ZM56.3278 57.9892L60.5703 81.9058L62.5396 81.5565L58.2971 57.6399L56.3278 57.9892ZM61.3803 80.7465L55.8664 81.7246L56.2157 83.6939L61.7296 82.7158L61.3803 80.7465ZM57.0257 82.5346L52.7832 58.618L50.8139 58.9673L55.0564 82.8839L57.0257 82.5346ZM64.6618 60.3702L78.0331 57.9983L77.6837 56.029L64.3125 58.4009L64.6618 60.3702ZM76.8738 57.1883L77.7052 61.8752L79.6744 61.5258L78.843 56.839L76.8738 57.1883ZM78.5151 60.7159L65.1439 63.0877L65.4932 65.057L78.8644 62.6851L78.5151 60.7159ZM66.3031 63.8977L65.4718 59.2109L63.5025 59.5602L64.3339 64.247L66.3031 63.8977ZM66.7647 72.2251L80.136 69.8532L79.7866 67.884L66.4154 70.2558L66.7647 72.2251ZM78.9767 69.0433L79.8203 73.799L81.7895 73.4497L80.9459 68.6939L78.9767 69.0433ZM80.6302 72.6397L67.259 75.0116L67.6083 76.9809L80.9796 74.609L80.6302 72.6397ZM68.4183 75.8216L67.5747 71.0658L65.6054 71.4151L66.449 76.1709L68.4183 75.8216ZM48.7689 109.044L90.3301 101.672L89.9808 99.7026L48.4196 107.075L48.7689 109.044ZM89.1708 100.862L90.0022 105.549L91.9714 105.199L91.14 100.513L89.1708 100.862ZM90.8121 104.389L49.2509 111.762L49.6003 113.731L91.1615 106.359L90.8121 104.389ZM50.4102 112.572L49.5789 107.885L47.6096 108.234L48.441 112.921L50.4102 112.572ZM46.3359 95.3283L52.0566 94.3135L51.7073 92.3443L45.9866 93.3591L46.3359 95.3283ZM50.8973 93.5036L53.856 110.183L55.8253 109.834L52.8665 93.1543L50.8973 93.5036ZM54.666 109.024L48.9453 110.039L49.2946 112.008L55.0153 110.993L54.666 109.024ZM50.1046 110.849L47.1459 94.169L45.1766 94.5183L48.1353 111.198L50.1046 110.849ZM136.059 34.4618L135.884 33.4772L134.899 33.6518L135.074 34.6365L136.059 34.4618ZM141.71 33.4593L142.695 33.2846L142.52 32.3L141.536 32.4746L141.71 33.4593ZM152.787 95.9044L152.962 96.889L153.947 96.7144L153.772 95.7298L152.787 95.9044ZM147.136 96.907L146.151 97.0816L146.326 98.0662L147.31 97.8916L147.136 96.907ZM101.778 84.4781L101.603 83.4935L100.618 83.6682L100.793 84.6528L101.778 84.4781ZM117.123 81.6138L117.325 82.5933L117.339 82.5903L117.123 81.6138ZM126.995 79.1518L126.728 78.188L126.727 78.1883L126.995 79.1518ZM137.365 75.8905L138.322 75.602L138.021 74.6014L137.034 74.9466L137.365 75.8905ZM138.747 80.4795L139.079 81.4229L139.981 81.106L139.705 80.191L138.747 80.4795ZM123.225 85.1525L123.454 86.126L123.463 86.1238L123.225 85.1525ZM102.621 89.2339L101.637 89.4085L101.811 90.3932L102.796 90.2185L102.621 89.2339ZM95.1109 47.6971L94.9362 46.7125L93.9516 46.8872L94.1263 47.8718L95.1109 47.6971ZM123.921 42.5866L124.906 42.4119L124.731 41.4273L123.746 41.602L123.921 42.5866ZM127.87 64.8491L128.045 65.8337L129.029 65.659L128.855 64.6744L127.87 64.8491ZM104.987 68.9082L104.813 67.9235L103.828 68.0982L104.003 69.0828L104.987 68.9082ZM107.885 85.2432L108.06 86.2278L109.044 86.0531L108.87 85.0685L107.885 85.2432ZM102.095 86.2701L101.111 86.4448L101.285 87.4294L102.27 87.2548L102.095 86.2701ZM98.3787 65.3172L98.204 64.3326L97.2194 64.5073L97.394 65.4919L98.3787 65.3172ZM121.261 61.2582L121.436 62.2428L122.421 62.0681L122.246 61.0835L121.261 61.2582ZM118.963 48.3004L119.948 48.1258L119.773 47.1412L118.788 47.3158L118.963 48.3004ZM95.9423 52.384L94.9577 52.5586L95.1323 53.5433L96.1169 53.3686L95.9423 52.384ZM136.233 35.4464L141.885 34.4439L141.536 32.4746L135.884 33.4772L136.233 35.4464ZM140.726 33.6339L151.803 96.0791L153.772 95.7298L142.695 33.2846L140.726 33.6339ZM152.613 94.9198L146.961 95.9223L147.31 97.8916L152.962 96.889L152.613 94.9198ZM148.12 96.7323L137.043 34.2871L135.074 34.6365L146.151 97.0816L148.12 96.7323ZM101.952 85.4628L107.121 84.5458L106.772 82.5765L101.603 83.4935L101.952 85.4628ZM107.121 84.5458C110.668 83.9167 114.069 83.2658 117.325 82.5932L116.921 80.6345C113.685 81.3031 110.302 81.9504 106.772 82.5765L107.121 84.5458ZM117.339 82.5903C120.64 81.8617 123.948 81.0367 127.263 80.1153L126.727 78.1883C123.447 79.1003 120.174 79.9166 116.908 80.6373L117.339 82.5903ZM127.261 80.1156C130.628 79.1844 134.106 78.0905 137.695 76.8344L137.034 74.9466C133.483 76.1893 130.048 77.2696 126.728 78.188L127.261 80.1156ZM136.407 76.179L137.79 80.768L139.705 80.191L138.322 75.602L136.407 76.179ZM138.416 79.5361C132.999 81.4402 127.857 82.988 122.987 84.1812L123.463 86.1238C128.404 84.9131 133.61 83.3456 139.079 81.4229L138.416 79.5361ZM122.996 84.1791C118.102 85.3305 112.975 86.3816 107.616 87.3323L107.965 89.3015C113.358 88.3449 118.521 87.2865 123.454 86.1259L122.996 84.1791ZM107.616 87.3323L102.446 88.2493L102.796 90.2185L107.965 89.3015L107.616 87.3323ZM103.606 89.0592L102.762 84.3035L100.793 84.6528L101.637 89.4085L103.606 89.0592ZM95.2856 48.6818L124.096 43.5712L123.746 41.602L94.9362 46.7125L95.2856 48.6818ZM122.937 42.7613L126.886 65.0237L128.855 64.6744L124.906 42.4119L122.937 42.7613ZM127.696 63.8644L104.813 67.9235L105.162 69.8928L128.045 65.8337L127.696 63.8644ZM104.003 69.0828L106.9 85.4178L108.87 85.0685L105.972 68.7335L104.003 69.0828ZM107.71 84.2585L101.921 85.2855L102.27 87.2548L108.06 86.2278L107.71 84.2585ZM103.08 86.0955L99.3633 65.1426L97.394 65.4919L101.111 86.4448L103.08 86.0955ZM98.5533 66.3019L121.436 62.2428L121.087 60.2735L98.204 64.3326L98.5533 66.3019ZM122.246 61.0835L119.948 48.1258L117.978 48.4751L120.277 61.4328L122.246 61.0835ZM118.788 47.3158L95.7676 51.3994L96.1169 53.3686L119.138 49.2851L118.788 47.3158ZM96.9269 52.2093L96.0955 47.5225L94.1263 47.8718L94.9577 52.5586L96.9269 52.2093ZM196.719 23.7726L196.544 22.788L195.559 22.9627L195.734 23.9473L196.719 23.7726ZM202.439 22.7579L203.424 22.5832L203.249 21.5986L202.265 21.7732L202.439 22.7579ZM210.729 69.4884L210.903 70.473L211.888 70.2983L211.713 69.3137L210.729 69.4884ZM205.008 70.5031L204.023 70.6778L204.198 71.6624L205.183 71.4878L205.008 70.5031ZM204.278 43.5462L204.104 42.5616L203.119 42.7362L203.294 43.7208L204.278 43.5462ZM215.237 41.6022L216.222 41.4276L216.047 40.4429L215.063 40.6176L215.237 41.6022ZM216.081 46.358L216.256 47.3426L217.24 47.168L217.066 46.1833L216.081 46.358ZM205.122 48.3019L204.137 48.4766L204.312 49.4612L205.297 49.2866L205.122 48.3019ZM155.537 38.8978L155.363 37.9132L154.378 38.0879L154.553 39.0725L155.537 38.8978ZM192.343 32.3691L193.327 32.1944L193.153 31.2098L192.168 31.3844L192.343 32.3691ZM193.162 36.987L193.337 37.9716L194.321 37.7969L194.147 36.8123L193.162 36.987ZM156.357 43.5157L155.372 43.6904L155.547 44.675L156.531 44.5004L156.357 43.5157ZM183.416 43.7634L183.172 44.7332L183.18 44.7353L183.188 44.7372L183.416 43.7634ZM189.375 46.9007L188.674 47.6135L188.683 47.6222L189.375 46.9007ZM191.539 59.1003L192.438 59.5396L192.443 59.5282L191.539 59.1003ZM187.01 64.0271L186.462 63.1909L187.01 64.0271ZM165.417 63.734L164.716 64.4467L164.726 64.4572L164.737 64.4674L165.417 63.734ZM163.253 51.5345L162.357 51.091L162.355 51.0951L163.253 51.5345ZM167.839 46.5265L168.387 47.3627L168.394 47.358L168.402 47.3532L167.839 46.5265ZM169.684 51.3179L170.409 52.007L170.415 52.0009L170.42 51.9947L169.684 51.3179ZM171.518 61.6565L171.075 62.5528L171.518 61.6565ZM185.165 59.2357L184.44 58.5466L184.432 58.556L185.165 59.2357ZM183.331 48.8971L182.861 49.7798L182.874 49.7868L182.888 49.7934L183.331 48.8971ZM169.769 28.5531L169.595 27.5684L168.61 27.7431L168.785 28.7277L169.769 28.5531ZM175.49 27.5383L176.475 27.3636L176.3 26.379L175.315 26.5537L175.49 27.5383ZM177.251 37.4634L177.425 38.448L178.41 38.2733L178.235 37.2887L177.251 37.4634ZM171.53 38.4781L170.545 38.6528L170.72 39.6374L171.705 39.4628L171.53 38.4781ZM173.612 85.8832L173.437 84.8986L172.452 85.0732L172.627 86.0579L173.612 85.8832ZM215.173 78.5108L216.157 78.3362L215.983 77.3515L214.998 77.5262L215.173 78.5108ZM216.004 83.1977L216.179 84.1823L217.163 84.0076L216.989 83.023L216.004 83.1977ZM174.443 90.57L173.458 90.7447L173.633 91.7293L174.618 91.5547L174.443 90.57ZM171.264 72.6498L171.09 71.6652L170.105 71.8398L170.28 72.8245L171.264 72.6498ZM176.916 71.6473L177.901 71.4726L177.726 70.488L176.741 70.6626L176.916 71.6473ZM179.606 86.8105L179.78 87.7952L180.765 87.6205L180.59 86.6359L179.606 86.8105ZM173.954 87.8131L172.969 87.9877L173.144 88.9724L174.129 88.7977L173.954 87.8131ZM196.893 24.7573L202.614 23.7425L202.265 21.7732L196.544 22.788L196.893 24.7573ZM201.455 22.9325L209.744 69.663L211.713 69.3137L203.424 22.5832L201.455 22.9325ZM210.554 68.5037L204.833 69.5185L205.183 71.4878L210.903 70.473L210.554 68.5037ZM205.993 70.3285L197.703 23.598L195.734 23.9473L204.023 70.6778L205.993 70.3285ZM204.453 44.5308L215.412 42.5869L215.063 40.6176L204.104 42.5616L204.453 44.5308ZM214.253 41.7769L215.096 46.5327L217.066 46.1833L216.222 41.4276L214.253 41.7769ZM215.906 45.3734L204.947 47.3173L205.297 49.2866L216.256 47.3426L215.906 45.3734ZM206.107 48.1273L205.263 43.3715L203.294 43.7208L204.137 48.4766L206.107 48.1273ZM155.712 39.8825L192.517 33.3537L192.168 31.3844L155.363 37.9132L155.712 39.8825ZM191.358 32.5437L192.177 37.1616L194.147 36.8123L193.327 32.1944L191.358 32.5437ZM192.987 36.0023L156.182 42.5311L156.531 44.5004L193.337 37.9716L192.987 36.0023ZM157.341 43.3411L156.522 38.7232L154.553 39.0725L155.372 43.6904L157.341 43.3411ZM175.533 44.6133C178.361 44.1116 180.902 44.1621 183.172 44.7332L183.66 42.7936C181.068 42.1417 178.237 42.1023 175.184 42.644L175.533 44.6133ZM183.188 44.7372C185.458 45.2671 187.272 46.2341 188.674 47.6134L190.077 46.1881C188.377 44.5154 186.219 43.3908 183.643 42.7896L183.188 44.7372ZM188.683 47.6222C190.055 48.939 190.944 50.651 191.328 52.8106L193.297 52.4613C192.848 49.934 191.78 47.8225 190.068 46.1792L188.683 47.6222ZM191.328 52.8106C191.711 54.9698 191.469 56.9115 190.636 58.6724L192.443 59.5282C193.471 57.3567 193.745 54.9889 193.297 52.4613L191.328 52.8106ZM190.641 58.661C189.793 60.395 188.417 61.9087 186.462 63.1909L187.559 64.8633C189.764 63.4168 191.408 61.6459 192.438 59.5396L190.641 58.661ZM186.462 63.1909C184.515 64.4676 182.138 65.3688 179.304 65.8714L179.653 67.8407C182.701 67.3 185.345 66.3152 187.559 64.8633L186.462 63.1909ZM179.304 65.8714C176.47 66.374 173.928 66.3456 171.661 65.8164L171.206 67.764C173.784 68.3659 176.605 68.3813 179.653 67.8407L179.304 65.8714ZM171.661 65.8164C169.382 65.2843 167.54 64.3378 166.097 63.0006L164.737 64.4674C166.471 66.074 168.64 67.1649 171.206 67.764L171.661 65.8164ZM166.119 63.0213C164.73 61.6547 163.836 59.9144 163.453 57.7552L161.483 58.1045C161.932 60.6321 163.003 62.7613 164.716 64.4467L166.119 63.0213ZM163.453 57.7552C163.07 55.5956 163.316 53.6822 164.151 51.9738L162.355 51.0951C161.312 53.2271 161.035 55.5773 161.483 58.1045L163.453 57.7552ZM164.149 51.9779C165.037 50.183 166.436 48.6423 168.387 47.3627L167.29 45.6903C165.081 47.1393 163.422 48.9373 162.357 51.091L164.149 51.9779ZM168.402 47.3532C170.337 46.0361 172.705 45.1149 175.533 44.6133L175.184 42.644C172.13 43.1857 169.485 44.1964 167.276 45.6998L168.402 47.3532ZM175.978 47.1241C173.02 47.6489 170.643 48.7976 168.948 50.6411L170.42 51.9947C171.745 50.5537 173.68 49.5629 176.328 49.0933L175.978 47.1241ZM168.959 50.6288C167.224 52.4542 166.558 54.6524 166.997 57.1264L168.967 56.7771C168.639 54.9319 169.109 53.3742 170.409 52.007L168.959 50.6288ZM166.997 57.1264C167.436 59.6005 168.817 61.4357 171.075 62.5528L171.961 60.7602C170.271 59.9235 169.294 58.6223 168.967 56.7771L166.997 57.1264ZM171.075 62.5528C173.289 63.6487 175.907 63.8842 178.859 63.3606L178.509 61.3913C175.855 61.8622 173.695 61.618 171.961 60.7602L171.075 62.5528ZM178.859 63.3606C181.85 62.8299 184.236 61.7096 185.898 59.9155L184.432 58.556C183.151 59.9381 181.215 60.9113 178.509 61.3913L178.859 63.3606ZM185.89 59.9248C187.625 58.0994 188.291 55.9012 187.852 53.4272L185.883 53.7765C186.21 55.6216 185.74 57.1794 184.44 58.5466L185.89 59.9248ZM187.852 53.4272C187.413 50.9531 186.032 49.1179 183.775 48.0008L182.888 49.7934C184.579 50.6301 185.555 51.9313 185.883 53.7765L187.852 53.4272ZM183.801 48.0144C181.612 46.8491 178.977 46.5921 175.978 47.1241L176.328 49.0933C179.027 48.6146 181.177 48.8832 182.861 49.7798L183.801 48.0144ZM169.944 29.5377L175.665 28.5229L175.315 26.5537L169.595 27.5684L169.944 29.5377ZM174.505 27.713L176.266 37.638L178.235 37.2887L176.475 27.3636L174.505 27.713ZM177.076 36.4787L171.355 37.4935L171.705 39.4628L177.425 38.448L177.076 36.4787ZM172.515 38.3035L170.754 28.3784L168.785 28.7277L170.545 38.6528L172.515 38.3035ZM173.786 86.8678L215.347 79.4955L214.998 77.5262L173.437 84.8986L173.786 86.8678ZM214.188 78.6855L215.02 83.3723L216.989 83.023L216.157 78.3362L214.188 78.6855ZM215.83 82.213L174.268 89.5854L174.618 91.5547L216.179 84.1823L215.83 82.213ZM175.428 90.3954L174.596 85.7086L172.627 86.0579L173.458 90.7447L175.428 90.3954ZM171.439 73.6344L177.091 72.6319L176.741 70.6626L171.09 71.6652L171.439 73.6344ZM175.931 71.8219L178.621 86.9852L180.59 86.6359L177.901 71.4726L175.931 71.8219ZM179.431 85.8259L173.779 86.8285L174.129 88.7977L179.78 87.7952L179.431 85.8259ZM174.939 87.6384L172.249 72.4751L170.28 72.8245L172.969 87.9877L174.939 87.6384ZM231.779 87.5925L231.954 88.5771L232.399 88.4983L232.634 88.1125L231.779 87.5925ZM226.866 88.4641L225.998 87.9675L224.937 89.8219L227.04 89.4487L226.866 88.4641ZM216.292 29.2445L216.117 28.2598L214.026 28.6307L215.644 30.0063L216.292 29.2445ZM221.273 28.3609L221.909 27.5893L221.552 27.2957L221.098 27.3763L221.273 28.3609ZM231.605 86.6079L226.691 87.4795L227.04 89.4487L231.954 88.5771L231.605 86.6079ZM227.734 88.9607C233.365 79.1184 235.161 68.4432 233.127 56.9794L231.158 57.3287C233.112 68.3459 231.39 78.5441 225.998 87.9675L227.734 88.9607ZM233.127 56.9794C231.078 45.4262 225.679 35.9133 216.939 28.4826L215.644 30.0063C224.019 37.1278 229.187 46.2212 231.158 57.3287L233.127 56.9794ZM216.466 30.2291L221.447 29.3456L221.098 27.3763L216.117 28.2598L216.466 30.2291ZM220.636 29.1326C228.894 35.9383 234.048 45.0482 236.083 56.5244L238.052 56.1751C235.941 44.2727 230.565 34.7235 221.909 27.5893L220.636 29.1326ZM236.083 56.5244C238.111 67.9549 236.377 78.1177 230.925 87.0725L232.634 88.1125C238.364 78.6991 240.156 68.0334 238.052 56.1751L236.083 56.5244Z" fill="black" mask="url(#path-8-outside-1_2754_8549)"/>
</svg>
