<svg width="213" height="206" viewBox="0 0 213 206" fill="none" xmlns="http://www.w3.org/2000/svg">
<path d="M208.453 147.371C204.853 113.233 186.183 76.5936 155.33 59.0483C140.87 50.8256 125.939 48.9263 113.509 61.7474C109.52 65.8618 88.1333 91.5662 99.4134 98.9337C121.695 113.487 114.619 61.438 110.719 53.2006C101.924 34.6243 80.1843 13.0483 60.2857 6.53214C52.4612 3.9699 43.6051 5.56966 35.5146 5.9948" stroke="#EEFF2E" stroke-width="9" stroke-linecap="round"/>
<path d="M177.166 187.123C161.725 166.812 135.021 151.15 107.239 152.732C94.2197 153.474 83.2813 158.45 79.6501 171.791C78.4849 176.072 73.6233 201.354 84.1424 201.384C104.921 201.443 80.2924 171.133 74.4921 167.489C61.4118 159.27 38.3345 154.5 22.2419 158.587C15.914 160.193 10.4624 164.886 5.08818 168.511" stroke="#FFE24A" stroke-width="9" stroke-linecap="round"/>
</svg>
