<svg width="685" height="207" viewBox="0 0 685 207" fill="none" xmlns="http://www.w3.org/2000/svg">
<mask id="path-1-outside-1_1699_3543" maskUnits="userSpaceOnUse" x="-2" y="-2" width="689" height="211" fill="black">
<rect fill="white" x="-2" y="-2" width="689" height="211"/>
<path d="M62.0375 82.4H0.5375V4.3H36.5375V54.6H62.0375V82.4ZM64.5508 52.2C64.5508 47.2 65.3841 42.6667 67.0508 38.6C68.7174 34.5333 71.1174 31.1 74.2508 28.3C77.4508 25.4333 81.3508 23.2333 85.9508 21.7C90.5508 20.1667 95.8174 19.4 101.751 19.4C109.484 19.4 115.817 20.2667 120.751 22C125.751 23.6667 129.651 26.3 132.451 29.9V60.8C125.851 60.8 119.384 60.5667 113.051 60.1C106.717 59.5667 100.417 58.6667 94.1508 57.4V60.9C97.0174 61.6333 100.051 62.2333 103.251 62.7C106.451 63.1 109.684 63.4333 112.951 63.7C116.284 63.9 119.584 64.0667 122.851 64.2C126.184 64.2667 129.384 64.3 132.451 64.3V75.1C127.984 78.6333 122.951 81 117.351 82.2C111.817 83.4667 105.484 84.1 98.3508 84.1C93.2841 84.1 88.6508 83.3667 84.4508 81.9C80.3174 80.5 76.7841 78.4333 73.8508 75.7C70.9174 72.9667 68.6174 69.6333 66.9508 65.7C65.3508 61.7667 64.5508 57.2667 64.5508 52.2ZM94.1508 39.2V42.1C95.4174 42.4333 96.8508 42.7333 98.4508 43C100.117 43.2 101.784 43.4 103.451 43.6C105.184 43.8 106.851 43.9667 108.451 44.1C110.051 44.1667 111.484 44.2 112.751 44.2V41.4C111.484 41.4 110.051 41.3667 108.451 41.3C106.917 41.1667 105.317 41 103.651 40.8C102.051 40.6 100.417 40.3667 98.7508 40.1C97.0841 39.8333 95.5508 39.5333 94.1508 39.2ZM184.623 49.1C183.357 49.1 181.923 49.0667 180.323 49C178.79 48.8667 177.19 48.7 175.523 48.5C173.923 48.3 172.29 48.0667 170.623 47.8C168.957 47.5333 167.423 47.2333 166.023 46.9V49.8C167.29 50.1333 168.723 50.4333 170.323 50.7C171.99 50.9 173.657 51.1 175.323 51.3C177.057 51.5 178.723 51.6667 180.323 51.8C181.923 51.8667 183.357 51.9 184.623 51.9V82.3C181.357 83.2333 178.257 83.8 175.323 84C172.39 84.2667 169.757 84.4 167.423 84.4C163.423 84.4 159.757 83.8333 156.423 82.7C153.09 81.6333 150.223 80.0667 147.823 78C145.423 75.9333 143.557 73.4333 142.223 70.5C140.89 67.5667 140.223 64.2333 140.223 60.5V46.5H136.023V21.4H139.523V4.3H173.523V21.4H184.623V49.1ZM190.672 4.39999H219.272C219.005 10.8667 218.639 17.3 218.172 23.7C217.772 30.1 217.072 36.5333 216.072 43H194.272C194.539 41.7333 194.772 40.2667 194.972 38.6C195.172 36.9333 195.339 35.2667 195.472 33.6C195.672 31.9333 195.805 30.3667 195.872 28.9C196.005 27.3667 196.105 26.1333 196.172 25.2H190.672V4.39999ZM252.556 59.6C246.223 58.8 241.156 57.7333 237.356 56.4C233.623 55.0667 230.723 53.5667 228.656 51.9C226.656 50.1667 225.323 48.3667 224.656 46.5C224.056 44.6333 223.756 42.8 223.756 41C223.756 37.4 224.59 34.2667 226.256 31.6C227.99 28.8667 230.29 26.6 233.156 24.8C236.09 23 239.523 21.6667 243.456 20.8C247.39 19.8667 251.623 19.4 256.156 19.4C259.756 19.4 263.056 19.6 266.056 20C269.056 20.4 271.823 20.9667 274.356 21.7C276.89 22.3667 279.223 23.1333 281.356 24C283.556 24.8667 285.623 25.7333 287.556 26.6V46C284.823 44.2 282.123 42.8333 279.456 41.9C276.79 40.9 274.123 40.2 271.456 39.8C268.856 39.4 266.256 39.1667 263.656 39.1C261.123 39.0333 258.623 39 256.156 39V42C277.756 42 288.556 48 288.556 60C288.556 64.1333 287.69 67.7333 285.956 70.8C284.29 73.8 281.99 76.3 279.056 78.3C276.19 80.3 272.756 81.7667 268.756 82.7C264.823 83.7 260.623 84.2 256.156 84.2C250.756 84.2 245.29 83.3 239.756 81.5C234.223 79.7 228.89 77 223.756 73.4V55.4C229.156 57.7333 234.29 59.5333 239.156 60.8C244.09 62 248.556 62.6 252.556 62.6V59.6ZM322.952 49.7C322.952 44.8333 323.618 40.5333 324.952 36.8C326.285 33 328.152 29.8333 330.552 27.3C332.952 24.7 335.785 22.7333 339.052 21.4C342.385 20.0667 346.018 19.4 349.952 19.4C351.952 19.4 353.752 19.5 355.352 19.7C356.952 19.8333 358.418 20.0667 359.752 20.4C361.085 20.7333 362.352 21.2 363.552 21.8C364.818 22.3333 366.085 23 367.352 23.8L369.652 21.4H391.652V73.5C391.652 83.3 388.918 90.7333 383.452 95.8C378.052 100.867 369.818 103.4 358.752 103.4C353.618 103.4 348.418 103.033 343.152 102.3C337.952 101.633 333.452 100.633 329.652 99.3V76.5C332.252 77.7 334.985 78.6667 337.852 79.4C340.718 80.2 343.552 80.7 346.352 80.9C349.218 81.1667 351.952 81.1667 354.552 80.9C357.218 80.7 359.585 80.2333 361.652 79.5V76.4C356.318 77.8667 351.285 78.3667 346.552 77.9C341.885 77.3667 337.785 75.9667 334.252 73.7C330.785 71.3667 328.018 68.2 325.952 64.2C323.952 60.1333 322.952 55.3 322.952 49.7ZM368.252 47.4L366.452 44.9C365.252 45.6333 363.752 46.3333 361.952 47C360.218 47.6 358.352 48.1333 356.352 48.6C354.418 49.0667 352.418 49.4333 350.352 49.7C348.285 49.9667 346.318 50.1 344.452 50.1V52.9C346.318 52.9 348.352 52.8 350.552 52.6C352.752 52.3333 354.918 51.9667 357.052 51.5C359.185 51.0333 361.218 50.4667 363.152 49.8C365.152 49.1333 366.852 48.3333 368.252 47.4ZM395.703 52.2C395.703 47.2 396.603 42.7 398.403 38.7C400.203 34.6333 402.67 31.2 405.803 28.4C409.003 25.5333 412.77 23.3333 417.103 21.8C421.436 20.2 426.136 19.4 431.203 19.4C436.27 19.4 440.97 20.2 445.303 21.8C449.636 23.3333 453.37 25.5333 456.503 28.4C459.703 31.2 462.203 34.6333 464.003 38.7C465.803 42.7 466.703 47.2 466.703 52.2C466.703 57.2 465.803 61.7333 464.003 65.8C462.203 69.8667 459.703 73.3333 456.503 76.2C453.37 79 449.636 81.1667 445.303 82.7C440.97 84.3 436.27 85.1 431.203 85.1C426.136 85.1 421.436 84.3333 417.103 82.8C412.77 81.2667 409.003 79.0667 405.803 76.2C402.67 73.3333 400.203 69.8667 398.403 65.8C396.603 61.7333 395.703 57.2 395.703 52.2ZM445.003 50.1L443.203 47.6C442.003 48.3333 440.403 49.0333 438.403 49.7C436.47 50.3 434.37 50.8333 432.103 51.3C429.903 51.7667 427.67 52.1333 425.403 52.4C423.136 52.6667 421.07 52.8 419.203 52.8V55.6C421.07 55.6 423.203 55.5 425.603 55.3C428.003 55.0333 430.403 54.6667 432.803 54.2C435.203 53.7333 437.47 53.1667 439.603 52.5C441.803 51.8333 443.603 51.0333 445.003 50.1ZM548.905 46.6H537.805V82.5H503.805V46.6H500.305V21.4H504.505C505.771 14.5333 508.605 9.33333 513.005 5.79999C517.471 2.26666 523.705 0.499996 531.705 0.499996C532.905 0.499996 534.338 0.599997 536.005 0.799999C537.671 0.93333 539.338 1.13333 541.005 1.4C542.671 1.66666 544.205 2 545.605 2.4C547.071 2.73333 548.171 3.13333 548.905 3.6V23.6C545.571 23.6 542.338 23.4 539.205 23C536.138 22.6 533.171 22.0667 530.305 21.4V24.3C532.905 24.9 535.805 25.4 539.005 25.8C542.205 26.2 545.505 26.4 548.905 26.4V46.6ZM552.441 52.2C552.441 47.2 553.341 42.7 555.141 38.7C556.941 34.6333 559.408 31.2 562.541 28.4C565.741 25.5333 569.508 23.3333 573.841 21.8C578.175 20.2 582.875 19.4 587.941 19.4C593.008 19.4 597.708 20.2 602.041 21.8C606.375 23.3333 610.108 25.5333 613.241 28.4C616.441 31.2 618.941 34.6333 620.741 38.7C622.541 42.7 623.441 47.2 623.441 52.2C623.441 57.2 622.541 61.7333 620.741 65.8C618.941 69.8667 616.441 73.3333 613.241 76.2C610.108 79 606.375 81.1667 602.041 82.7C597.708 84.3 593.008 85.1 587.941 85.1C582.875 85.1 578.175 84.3333 573.841 82.8C569.508 81.2667 565.741 79.0667 562.541 76.2C559.408 73.3333 556.941 69.8667 555.141 65.8C553.341 61.7333 552.441 57.2 552.441 52.2ZM601.741 50.1L599.941 47.6C598.741 48.3333 597.141 49.0333 595.141 49.7C593.208 50.3 591.108 50.8333 588.841 51.3C586.641 51.7667 584.408 52.1333 582.141 52.4C579.875 52.6667 577.808 52.8 575.941 52.8V55.6C577.808 55.6 579.941 55.5 582.341 55.3C584.741 55.0333 587.141 54.6667 589.541 54.2C591.941 53.7333 594.208 53.1667 596.341 52.5C598.541 51.8333 600.341 51.0333 601.741 50.1ZM660.665 25.5C662.265 24.4333 664.065 23.5 666.065 22.7C668.132 21.9 670.232 21.2667 672.365 20.8C674.565 20.3333 676.732 20.0667 678.865 20C680.998 19.9333 683.032 20.0667 684.965 20.4V45.9C683.165 45.9 681.232 45.9333 679.165 46C677.098 46.0667 674.998 46.2333 672.865 46.5C670.732 46.7667 668.598 47.1667 666.465 47.7C664.398 48.1667 662.432 48.8333 660.565 49.7V82.5H628.565V21.4H657.165L660.665 25.5ZM271.094 186C271.094 180.8 272.094 176.767 274.094 173.9C276.16 171.033 279.394 168.833 283.794 167.3C285.46 166.7 287.36 166.167 289.494 165.7C291.627 165.233 293.86 164.833 296.194 164.5C298.527 164.167 300.894 163.9 303.294 163.7C305.694 163.5 307.994 163.4 310.194 163.4V160.2C305.127 160.2 299.627 160.667 293.694 161.6C287.827 162.533 282.027 163.967 276.294 165.9V145.1C280.56 143.167 285.294 141.733 290.494 140.8C295.76 139.867 301.927 139.4 308.994 139.4C314.194 139.4 318.627 139.867 322.294 140.8C325.96 141.733 328.96 143.3 331.294 145.5C333.627 147.633 335.327 150.467 336.394 154C337.46 157.533 337.994 161.867 337.994 167V202.5H312.994V199.1C312.994 195.167 312.46 191.433 311.394 187.9C310.327 184.3 308.96 181.333 307.294 179L304.294 180.1C305.16 181.1 305.927 182.4 306.594 184C307.26 185.533 307.827 187.267 308.294 189.2C308.76 191.067 309.127 193.033 309.394 195.1C309.66 197.1 309.794 199 309.794 200.8C307.194 201.733 304.26 202.5 300.994 203.1C297.727 203.7 293.927 204 289.594 204C283.394 204 278.76 202.333 275.694 199C272.627 195.733 271.094 191.4 271.094 186ZM381.568 202.5L370.768 141.4H398.668L401.468 161.3L405.868 141.4H421.968L426.368 161.3L429.168 141.4H457.068L446.268 202.5H418.368L413.968 185.2L409.468 202.5H381.568ZM456.836 186C456.836 180.8 457.836 176.767 459.836 173.9C461.903 171.033 465.136 168.833 469.536 167.3C471.203 166.7 473.103 166.167 475.236 165.7C477.369 165.233 479.603 164.833 481.936 164.5C484.269 164.167 486.636 163.9 489.036 163.7C491.436 163.5 493.736 163.4 495.936 163.4V160.2C490.869 160.2 485.369 160.667 479.436 161.6C473.569 162.533 467.769 163.967 462.036 165.9V145.1C466.303 143.167 471.036 141.733 476.236 140.8C481.503 139.867 487.669 139.4 494.736 139.4C499.936 139.4 504.369 139.867 508.036 140.8C511.703 141.733 514.703 143.3 517.036 145.5C519.369 147.633 521.069 150.467 522.136 154C523.203 157.533 523.736 161.867 523.736 167V202.5H498.736V199.1C498.736 195.167 498.203 191.433 497.136 187.9C496.069 184.3 494.703 181.333 493.036 179L490.036 180.1C490.903 181.1 491.669 182.4 492.336 184C493.003 185.533 493.569 187.267 494.036 189.2C494.503 191.067 494.869 193.033 495.136 195.1C495.403 197.1 495.536 199 495.536 200.8C492.936 201.733 490.003 202.5 486.736 203.1C483.469 203.7 479.669 204 475.336 204C469.136 204 464.503 202.333 461.436 199C458.369 195.733 456.836 191.4 456.836 186ZM563.932 202.5H529.932V124.3H563.932V202.5ZM605.143 202.5H571.143V124.3H605.143V153.9L599.643 167.7L602.343 168.4L613.143 141.4H646.943L632.043 171.9L646.943 202.5H611.943L605.143 188.2V202.5ZM681.414 177.9H652.514L650.514 124.3H683.414L681.414 177.9ZM681.414 206.4H659.614C657.347 206.4 655.581 205.9 654.314 204.9C653.114 203.967 652.514 202.333 652.514 200V180.3H681.414V206.4Z"/>
</mask>
<path d="M62.0375 82.4V84.4H64.0375V82.4H62.0375ZM0.5375 82.4H-1.4625V84.4H0.5375V82.4ZM0.5375 4.3V2.3H-1.4625V4.3H0.5375ZM36.5375 4.3H38.5375V2.3H36.5375V4.3ZM36.5375 54.6H34.5375V56.6H36.5375V54.6ZM62.0375 54.6H64.0375V52.6H62.0375V54.6ZM62.0375 80.4H0.5375V84.4H62.0375V80.4ZM2.5375 82.4V4.3H-1.4625V82.4H2.5375ZM0.5375 6.3H36.5375V2.3H0.5375V6.3ZM34.5375 4.3V54.6H38.5375V4.3H34.5375ZM36.5375 56.6H62.0375V52.6H36.5375V56.6ZM60.0375 54.6V82.4H64.0375V54.6H60.0375ZM67.0508 38.6L65.2002 37.8415V37.8416L67.0508 38.6ZM74.2508 28.3L75.5834 29.7913L75.5853 29.7897L74.2508 28.3ZM85.9508 21.7L86.5832 23.5974L85.9508 21.7ZM120.751 22L120.088 23.8869L120.103 23.8923L120.118 23.8974L120.751 22ZM132.451 29.9H134.451V29.2138L134.029 28.6721L132.451 29.9ZM132.451 60.8V62.8H134.451V60.8H132.451ZM113.051 60.1L112.883 62.0929L112.893 62.0938L112.904 62.0946L113.051 60.1ZM94.1508 57.4L94.547 55.4396L92.1508 54.9553V57.4H94.1508ZM94.1508 60.9H92.1508V62.4528L93.6551 62.8376L94.1508 60.9ZM103.251 62.7L102.962 64.6791L102.982 64.682L103.003 64.6846L103.251 62.7ZM112.951 63.7L112.788 65.6934L112.81 65.6951L112.831 65.6964L112.951 63.7ZM122.851 64.2L122.769 66.1983L122.79 66.1992L122.811 66.1996L122.851 64.2ZM132.451 64.3H134.451V62.3H132.451V64.3ZM132.451 75.1L133.692 76.6686L134.451 76.068V75.1H132.451ZM117.351 82.2L116.932 80.2444L116.918 80.2473L116.904 80.2504L117.351 82.2ZM84.4508 81.9L85.1101 80.0118L85.1013 80.0087L85.0924 80.0057L84.4508 81.9ZM73.8508 75.7L72.4873 77.1632L73.8508 75.7ZM66.9508 65.7L65.0982 66.4536L65.1036 66.467L65.1093 66.4803L66.9508 65.7ZM94.1508 39.2L94.614 37.2544L92.1508 36.6679V39.2H94.1508ZM94.1508 42.1H92.1508V43.6418L93.6418 44.0341L94.1508 42.1ZM98.4508 43L98.122 44.9728L98.1671 44.9803L98.2125 44.9858L98.4508 43ZM103.451 43.6L103.212 45.5858L103.222 45.5868L103.451 43.6ZM108.451 44.1L108.285 46.0931L108.326 46.0965L108.368 46.0983L108.451 44.1ZM112.751 44.2V46.2H114.751V44.2H112.751ZM112.751 41.4H114.751V39.4H112.751V41.4ZM108.451 41.3L108.278 43.2925L108.322 43.2964L108.368 43.2983L108.451 41.3ZM103.651 40.8L103.403 42.7846L103.412 42.7858L103.651 40.8ZM98.7508 40.1L98.4348 42.0749L98.4348 42.0749L98.7508 40.1ZM66.5508 52.2C66.5508 47.4245 67.346 43.1535 68.9014 39.3584L65.2002 37.8416C63.4222 42.1798 62.5508 46.9755 62.5508 52.2H66.5508ZM68.9014 39.3584C70.4586 35.5589 72.6865 32.3801 75.5834 29.7913L72.9181 26.8087C69.5484 29.8199 66.9763 33.5077 65.2002 37.8415L68.9014 39.3584ZM75.5853 29.7897C78.557 27.1275 82.2093 25.0553 86.5832 23.5974L85.3183 19.8026C80.4922 21.4113 76.3446 23.7391 72.9163 26.8103L75.5853 29.7897ZM86.5832 23.5974C90.9396 22.1452 95.9861 21.4 101.751 21.4V17.4C95.6488 17.4 90.162 18.1881 85.3183 19.8026L86.5832 23.5974ZM101.751 21.4C109.356 21.4 115.443 22.2551 120.088 23.8869L121.414 20.1131C116.191 18.2782 109.612 17.4 101.751 17.4V21.4ZM120.118 23.8974C124.804 25.4591 128.351 27.8859 130.872 31.1279L134.029 28.6721C130.951 24.7141 126.698 21.8742 121.383 20.1026L120.118 23.8974ZM130.451 29.9V60.8H134.451V29.9H130.451ZM132.451 58.8C125.898 58.8 119.48 58.5683 113.198 58.1054L112.904 62.0946C119.288 62.565 125.804 62.8 132.451 62.8V58.8ZM113.219 58.1071C106.962 57.5802 100.739 56.6912 94.547 55.4396L93.7545 59.3604C100.096 60.6422 106.472 61.5531 112.883 62.0929L113.219 58.1071ZM92.1508 57.4V60.9H96.1508V57.4H92.1508ZM93.6551 62.8376C96.596 63.5899 99.6988 64.2032 102.962 64.6791L103.539 60.7209C100.403 60.2635 97.4389 59.6768 94.6464 58.9624L93.6551 62.8376ZM103.003 64.6846C106.232 65.0882 109.493 65.4244 112.788 65.6934L113.114 61.7066C109.875 61.4423 106.67 61.1118 103.499 60.7154L103.003 64.6846ZM112.831 65.6964C116.177 65.8972 119.49 66.0645 122.769 66.1983L122.932 62.2017C119.679 62.0689 116.391 61.9028 113.071 61.7036L112.831 65.6964ZM122.811 66.1996C126.156 66.2665 129.37 66.3 132.451 66.3V62.3C129.399 62.3 126.212 62.2668 122.891 62.2004L122.811 66.1996ZM130.451 64.3V75.1H134.451V64.3H130.451ZM131.21 73.5314C126.985 76.8733 122.233 79.1083 116.932 80.2444L117.77 84.1556C123.668 82.8917 128.983 80.3933 133.692 76.6686L131.21 73.5314ZM116.904 80.2504C111.549 81.4763 105.37 82.1 98.3508 82.1V86.1C105.598 86.1 112.086 85.457 117.797 84.1496L116.904 80.2504ZM98.3508 82.1C93.4779 82.1 89.071 81.395 85.1101 80.0118L83.7914 83.7882C88.2306 85.3384 93.0904 86.1 98.3508 86.1V82.1ZM85.0924 80.0057C81.2035 78.6885 77.9224 76.7603 75.2142 74.2368L72.4873 77.1632C75.6458 80.1063 79.4314 82.3115 83.8092 83.7943L85.0924 80.0057ZM75.2142 74.2368C72.4997 71.7073 70.3566 68.6116 68.7923 64.9197L65.1093 66.4803C66.8783 70.6551 69.3352 74.226 72.4873 77.1632L75.2142 74.2368ZM68.8034 64.9464C67.3176 61.2938 66.5508 57.0572 66.5508 52.2H62.5508C62.5508 57.4762 63.384 62.2395 65.0982 66.4536L68.8034 64.9464ZM92.1508 39.2V42.1H96.1508V39.2H92.1508ZM93.6418 44.0341C94.9799 44.3863 96.475 44.6983 98.122 44.9728L98.7796 41.0272C97.2266 40.7684 95.855 40.4804 94.6598 40.1658L93.6418 44.0341ZM98.2125 44.9858C99.8792 45.1858 101.546 45.3858 103.212 45.5858L103.689 41.6142C102.022 41.4142 100.356 41.2142 98.6891 41.0142L98.2125 44.9858ZM103.222 45.5868C104.974 45.789 106.662 45.9579 108.285 46.0931L108.617 42.1069C107.04 41.9755 105.394 41.811 103.68 41.6132L103.222 45.5868ZM108.368 46.0983C109.988 46.1658 111.45 46.2 112.751 46.2V42.2C111.518 42.2 110.113 42.1675 108.534 42.1017L108.368 46.0983ZM114.751 44.2V41.4H110.751V44.2H114.751ZM112.751 39.4C111.518 39.4 110.113 39.3675 108.534 39.3017L108.368 43.2983C109.988 43.3658 111.45 43.4 112.751 43.4V39.4ZM108.624 39.3075C107.114 39.1762 105.536 39.0119 103.889 38.8142L103.412 42.7858C105.099 42.9881 106.721 43.1571 108.278 43.2925L108.624 39.3075ZM103.899 38.8154C102.323 38.6184 100.712 38.3883 99.0668 38.1251L98.4348 42.0749C100.123 42.345 101.779 42.5816 103.403 42.7846L103.899 38.8154ZM99.0668 38.1251C97.4413 37.8651 95.9579 37.5743 94.614 37.2544L93.6875 41.1456C95.1437 41.4923 96.7269 41.8016 98.4348 42.0749L99.0668 38.1251ZM184.623 49.1V51.1H186.623V49.1H184.623ZM180.323 49L180.15 50.9925L180.195 50.9964L180.24 50.9983L180.323 49ZM175.523 48.5L175.275 50.4846L175.285 50.4857L175.523 48.5ZM170.623 47.8L170.307 49.7749L170.623 47.8ZM166.023 46.9L166.487 44.9544L164.023 44.3679V46.9H166.023ZM166.023 49.8H164.023V51.3418L165.514 51.7341L166.023 49.8ZM170.323 50.7L169.995 52.6728L170.04 52.6803L170.085 52.6858L170.323 50.7ZM175.323 51.3L175.085 53.2858L175.094 53.2868L175.323 51.3ZM180.323 51.8L180.157 53.7931L180.199 53.7965L180.24 53.7983L180.323 51.8ZM184.623 51.9H186.623V49.9H184.623V51.9ZM184.623 82.3L185.173 84.223L186.623 83.8086V82.3H184.623ZM175.323 84L175.187 82.0046L175.165 82.0062L175.142 82.0082L175.323 84ZM156.423 82.7L157.067 80.8065L157.05 80.8007L157.033 80.7952L156.423 82.7ZM142.223 70.5L144.044 69.6724L142.223 70.5ZM140.223 46.5H142.223V44.5H140.223V46.5ZM136.023 46.5H134.023V48.5H136.023V46.5ZM136.023 21.4V19.4H134.023V21.4H136.023ZM139.523 21.4V23.4H141.523V21.4H139.523ZM139.523 4.3V2.3H137.523V4.3H139.523ZM173.523 4.3H175.523V2.3H173.523V4.3ZM173.523 21.4H171.523V23.4H173.523V21.4ZM184.623 21.4H186.623V19.4H184.623V21.4ZM184.623 47.1C183.391 47.1 181.986 47.0675 180.407 47.0017L180.24 50.9983C181.861 51.0658 183.323 51.1 184.623 51.1V47.1ZM180.497 47.0075C178.987 46.8762 177.409 46.7119 175.762 46.5142L175.285 50.4857C176.972 50.6881 178.593 50.8571 180.15 50.9925L180.497 47.0075ZM175.772 46.5154C174.195 46.3184 172.585 46.0883 170.939 45.8251L170.307 49.7749C171.996 50.045 173.652 50.2816 175.275 50.4846L175.772 46.5154ZM170.939 45.8251C169.314 45.565 167.831 45.2743 166.487 44.9544L165.56 48.8456C167.016 49.1923 168.6 49.5016 170.307 49.7749L170.939 45.8251ZM164.023 46.9V49.8H168.023V46.9H164.023ZM165.514 51.7341C166.853 52.0863 168.348 52.3983 169.995 52.6728L170.652 48.7272C169.099 48.4684 167.728 48.1804 166.532 47.8658L165.514 51.7341ZM170.085 52.6858C170.275 52.7086 170.52 52.7379 170.71 52.7607C170.9 52.7836 171.145 52.8129 171.335 52.8358C171.525 52.8586 171.77 52.8879 171.96 52.9108C172.15 52.9336 172.395 52.9629 172.585 52.9858C172.965 53.0313 173.455 53.0902 173.835 53.1357C174.215 53.1813 174.705 53.2402 175.085 53.2858L175.562 49.3142C175.372 49.2914 175.127 49.2621 174.937 49.2392C174.747 49.2164 174.502 49.1871 174.312 49.1642C174.122 49.1414 173.877 49.1121 173.687 49.0892C173.497 49.0664 173.252 49.0371 173.062 49.0142C172.682 48.9687 172.192 48.9098 171.812 48.8642C171.432 48.8187 170.942 48.7598 170.562 48.7142L170.085 52.6858ZM175.094 53.2868C176.847 53.489 178.535 53.6579 180.157 53.7931L180.49 49.8069C178.912 49.6755 177.267 49.511 175.553 49.3132L175.094 53.2868ZM180.24 53.7983C181.861 53.8658 183.323 53.9 184.623 53.9V49.9C183.391 49.9 181.986 49.8675 180.407 49.8017L180.24 53.7983ZM182.623 51.9V82.3H186.623V51.9H182.623ZM184.074 80.377C180.922 81.2776 177.961 81.8155 175.187 82.0046L175.459 85.9954C178.552 85.7845 181.792 85.1891 185.173 84.223L184.074 80.377ZM175.142 82.0082C172.254 82.2708 169.683 82.4 167.423 82.4V86.4C169.83 86.4 172.526 86.2626 175.505 85.9918L175.142 82.0082ZM167.423 82.4C163.613 82.4 160.167 81.8604 157.067 80.8065L155.78 84.5935C159.346 85.8062 163.234 86.4 167.423 86.4V82.4ZM157.033 80.7952C153.928 79.8017 151.305 78.3584 149.128 76.4845L146.518 79.5155C149.142 81.7749 152.252 83.465 155.814 84.6049L157.033 80.7952ZM149.128 76.4845C146.952 74.6104 145.26 72.3465 144.044 69.6724L140.403 71.3276C141.854 74.5202 143.895 77.2563 146.518 79.5155L149.128 76.4845ZM144.044 69.6724C142.846 67.0371 142.223 63.9929 142.223 60.5H138.223C138.223 64.4738 138.934 68.0963 140.403 71.3276L144.044 69.6724ZM142.223 60.5V46.5H138.223V60.5H142.223ZM140.223 44.5H136.023V48.5H140.223V44.5ZM138.023 46.5V21.4H134.023V46.5H138.023ZM136.023 23.4H139.523V19.4H136.023V23.4ZM141.523 21.4V4.3H137.523V21.4H141.523ZM139.523 6.3H173.523V2.3H139.523V6.3ZM171.523 4.3V21.4H175.523V4.3H171.523ZM173.523 23.4H184.623V19.4H173.523V23.4ZM182.623 21.4V49.1H186.623V21.4H182.623ZM190.672 4.39999V2.39999H188.672V4.39999H190.672ZM219.272 4.39999L221.27 4.4824L221.356 2.39999H219.272V4.39999ZM218.172 23.7L216.177 23.5546L216.176 23.5649L216.176 23.5752L218.172 23.7ZM216.072 43V45H217.786L218.048 43.3056L216.072 43ZM194.272 43L192.315 42.588L191.807 45H194.272V43ZM194.972 38.6L192.986 38.3617L194.972 38.6ZM195.472 33.6L193.486 33.3617L193.481 33.401L193.478 33.4405L195.472 33.6ZM195.872 28.9L193.879 28.7267L193.876 28.7679L193.874 28.8092L195.872 28.9ZM196.172 25.2L198.167 25.3425L198.32 23.2H196.172V25.2ZM190.672 25.2H188.672V27.2H190.672V25.2ZM190.672 6.39999H219.272V2.39999H190.672V6.39999ZM217.274 4.31759C217.008 10.7634 216.642 17.1757 216.177 23.5546L220.167 23.8454C220.635 17.4243 221.003 10.9699 221.27 4.4824L217.274 4.31759ZM216.176 23.5752C215.78 29.9135 215.086 36.2864 214.095 42.6944L218.048 43.3056C219.057 36.7802 219.764 30.2865 220.168 23.8248L216.176 23.5752ZM216.072 41H194.272V45H216.072V41ZM196.229 43.412C196.511 42.074 196.753 40.5472 196.958 38.8383L192.986 38.3617C192.791 39.9861 192.566 41.3927 192.315 42.588L196.229 43.412ZM196.958 38.8383C197.161 37.1455 197.33 35.4526 197.465 33.7595L193.478 33.4405C193.347 35.0808 193.183 36.7211 192.986 38.3617L196.958 38.8383ZM197.458 33.8383C197.663 32.1294 197.801 30.5131 197.87 28.9908L193.874 28.8092C193.81 30.2202 193.681 31.7373 193.486 33.3617L197.458 33.8383ZM197.864 29.0733C197.998 27.5353 198.099 26.2905 198.167 25.3425L194.177 25.0575C194.111 25.9762 194.012 27.198 193.879 28.7267L197.864 29.0733ZM196.172 23.2H190.672V27.2H196.172V23.2ZM192.672 25.2V4.39999H188.672V25.2H192.672ZM252.556 59.6H254.556V57.8367L252.807 57.6158L252.556 59.6ZM237.356 56.4L236.684 58.2835L236.694 58.2872L237.356 56.4ZM228.656 51.9L227.346 53.4114L227.373 53.4346L227.401 53.4568L228.656 51.9ZM224.656 46.5L222.752 47.112L222.762 47.1425L222.773 47.1727L224.656 46.5ZM226.256 31.6L224.567 30.5289L224.56 30.54L226.256 31.6ZM233.156 24.8L232.11 23.0954L232.101 23.1007L232.093 23.1062L233.156 24.8ZM243.456 20.8L243.887 22.7531L243.902 22.7497L243.918 22.746L243.456 20.8ZM266.056 20L266.321 18.0175L266.056 20ZM274.356 21.7L273.8 23.6211L273.824 23.6279L273.847 23.6341L274.356 21.7ZM281.356 24L280.604 25.8529L280.613 25.8569L280.623 25.8608L281.356 24ZM287.556 26.6H289.556V25.3048L288.374 24.775L287.556 26.6ZM287.556 46L286.456 47.6703L289.556 49.7118V46H287.556ZM279.456 41.9L278.754 43.7727L278.775 43.7804L278.796 43.7877L279.456 41.9ZM271.456 39.8L271.152 41.7768L271.16 41.7779L271.456 39.8ZM263.656 39.1L263.604 41.0993L263.605 41.0993L263.656 39.1ZM256.156 39V37H254.156V39H256.156ZM256.156 42H254.156V44H256.156V42ZM285.956 70.8L284.215 69.8159L284.212 69.8223L284.208 69.8287L285.956 70.8ZM279.056 78.3L277.93 76.6475L277.921 76.6536L277.912 76.6597L279.056 78.3ZM268.756 82.7L268.302 80.7523L268.283 80.7568L268.263 80.7617L268.756 82.7ZM239.756 81.5L239.138 83.4019L239.756 81.5ZM223.756 73.4H221.756V74.4402L222.608 75.0375L223.756 73.4ZM223.756 55.4L224.55 53.5641L221.756 52.3571V55.4H223.756ZM239.156 60.8L238.652 62.7355L238.668 62.7395L238.684 62.7433L239.156 60.8ZM252.556 62.6V64.6H254.556V62.6H252.556ZM252.807 57.6158C246.543 56.8245 241.631 55.7804 238.018 54.5128L236.694 58.2872C240.681 59.6863 245.903 60.7755 252.306 61.5842L252.807 57.6158ZM238.029 54.5165C234.413 53.2251 231.74 51.8178 229.912 50.3432L227.401 53.4568C229.706 55.3155 232.833 56.9082 236.684 58.2835L238.029 54.5165ZM229.966 50.3886C228.142 48.8079 227.058 47.2789 226.54 45.8273L222.773 47.1727C223.588 49.4544 225.17 51.5254 227.346 53.4114L229.966 50.3886ZM226.56 45.888C226.018 44.2015 225.756 42.5746 225.756 41H221.756C221.756 43.0254 222.094 45.0651 222.752 47.112L226.56 45.888ZM225.756 41C225.756 37.7193 226.512 34.9648 227.952 32.66L224.56 30.54C222.667 33.5685 221.756 37.0807 221.756 41H225.756ZM227.945 32.6711C229.512 30.2009 231.594 28.1428 234.22 26.4938L232.093 23.1062C228.986 25.0572 226.467 27.5325 224.567 30.5289L227.945 32.6711ZM234.202 26.5046C236.916 24.8391 240.135 23.5798 243.887 22.7531L243.026 18.8468C238.911 19.7535 235.263 21.1609 232.11 23.0954L234.202 26.5046ZM243.918 22.746C247.683 21.8526 251.76 21.4 256.156 21.4V17.4C251.486 17.4 247.096 17.8808 242.994 18.854L243.918 22.746ZM256.156 21.4C259.684 21.4 262.894 21.5961 265.792 21.9825L266.321 18.0175C263.218 17.6039 259.829 17.4 256.156 17.4V21.4ZM265.792 21.9825C268.707 22.3712 271.375 22.9192 273.8 23.6211L274.912 19.7789C272.271 19.0142 269.405 18.4288 266.321 18.0175L265.792 21.9825ZM273.847 23.6341C276.309 24.2819 278.56 25.0226 280.604 25.8529L282.109 22.1471C279.886 21.2441 277.47 20.4514 274.865 19.7659L273.847 23.6341ZM280.623 25.8608C282.798 26.7175 284.836 27.5723 286.738 28.425L288.374 24.775C286.41 23.8944 284.315 23.0159 282.089 22.1392L280.623 25.8608ZM285.556 26.6V46H289.556V26.6H285.556ZM288.656 44.3297C285.807 42.4533 282.961 41.0075 280.117 40.0123L278.796 43.7877C281.285 44.6591 283.839 45.9467 286.456 47.6703L288.656 44.3297ZM280.159 40.0273C277.368 38.9809 274.566 38.244 271.753 37.8221L271.16 41.7779C273.68 42.156 276.211 42.8191 278.754 43.7727L280.159 40.0273ZM271.76 37.8233C269.078 37.4105 266.393 37.1695 263.708 37.1007L263.605 41.0993C266.119 41.1638 268.635 41.3895 271.152 41.7767L271.76 37.8233ZM263.709 37.1007C261.158 37.0336 258.641 37 256.156 37V41C258.605 41 261.087 41.0331 263.604 41.0993L263.709 37.1007ZM254.156 39V42H258.156V39H254.156ZM256.156 44C266.837 44 274.529 45.4947 279.485 48.2483C281.933 49.6083 283.676 51.2543 284.816 53.154C285.954 55.0507 286.556 57.3095 286.556 60H290.556C290.556 56.6905 289.808 53.6993 288.246 51.096C286.686 48.4957 284.38 46.3917 281.428 44.7517C275.584 41.5053 267.076 40 256.156 40V44ZM286.556 60C286.556 63.8486 285.751 67.0978 284.215 69.8159L287.697 71.7841C289.628 68.3689 290.556 64.4181 290.556 60H286.556ZM284.208 69.8287C282.698 72.5468 280.615 74.8168 277.93 76.6475L280.183 79.9525C283.365 77.7832 285.881 75.0532 287.705 71.7713L284.208 69.8287ZM277.912 76.6597C275.287 78.4913 272.097 79.8668 268.302 80.7523L269.211 84.6477C273.416 83.6666 277.092 82.1087 280.201 79.9403L277.912 76.6597ZM268.263 80.7617C264.506 81.7168 260.473 82.2 256.156 82.2V86.2C260.773 86.2 265.139 85.6832 269.249 84.6383L268.263 80.7617ZM256.156 82.2C250.982 82.2 245.724 81.3381 240.375 79.5981L239.138 83.4019C244.855 85.2619 250.53 86.2 256.156 86.2V82.2ZM240.375 79.5981C235.044 77.8641 229.888 75.2574 224.905 71.7625L222.608 75.0375C227.891 78.7426 233.401 81.5359 239.138 83.4019L240.375 79.5981ZM225.756 73.4V55.4H221.756V73.4H225.756ZM222.963 57.2359C228.441 59.6032 233.672 61.4392 238.652 62.7355L239.66 58.8645C234.907 57.6274 229.871 55.8635 224.55 53.5641L222.963 57.2359ZM238.684 62.7433C243.732 63.9714 248.361 64.6 252.556 64.6V60.6C248.751 60.6 244.447 60.0286 239.629 58.8567L238.684 62.7433ZM254.556 62.6V59.6H250.556V62.6H254.556ZM324.952 36.8L326.835 37.4727L326.839 37.4622L324.952 36.8ZM330.552 27.3L332.003 28.6755L332.012 28.6661L332.021 28.6566L330.552 27.3ZM339.052 21.4L338.309 19.543L338.296 19.5483L339.052 21.4ZM355.352 19.7L355.103 21.6846L355.144 21.6897L355.185 21.6931L355.352 19.7ZM359.752 20.4L359.266 22.3403L359.752 20.4ZM363.552 21.8L362.657 23.5889L362.715 23.618L362.775 23.6433L363.552 21.8ZM367.352 23.8L366.284 25.491L367.665 26.3635L368.796 25.1838L367.352 23.8ZM369.652 21.4V19.4H368.798L368.208 20.0162L369.652 21.4ZM391.652 21.4H393.652V19.4H391.652V21.4ZM383.452 95.8L382.092 94.3331L382.083 94.3415L383.452 95.8ZM343.152 102.3L343.427 100.319L343.417 100.318L343.406 100.316L343.152 102.3ZM329.652 99.3H327.652V100.718L328.989 101.187L329.652 99.3ZM329.652 76.5L330.49 74.6841L327.652 73.3742V76.5H329.652ZM337.852 79.4L338.389 77.4736L338.368 77.4678L338.347 77.4624L337.852 79.4ZM346.352 80.9L346.537 78.9086L346.515 78.9066L346.494 78.9051L346.352 80.9ZM354.552 80.9L354.402 78.9056L354.375 78.9076L354.348 78.9104L354.552 80.9ZM361.652 79.5L362.32 81.3849L363.652 80.9125V79.5H361.652ZM361.652 76.4H363.652V73.7758L361.121 74.4716L361.652 76.4ZM346.552 77.9L346.324 79.8871L346.34 79.8888L346.355 79.8904L346.552 77.9ZM334.252 73.7L333.135 75.3592L333.153 75.3715L333.172 75.3834L334.252 73.7ZM325.952 64.2L324.157 65.0826L324.166 65.1004L324.175 65.118L325.952 64.2ZM368.252 47.4L369.361 49.0641L371.086 47.914L369.875 46.2314L368.252 47.4ZM366.452 44.9L368.075 43.7314L366.991 42.2264L365.409 43.1934L366.452 44.9ZM361.952 47L362.606 48.89L362.626 48.8829L362.646 48.8755L361.952 47ZM356.352 48.6L355.897 46.6523L355.89 46.654L355.882 46.6558L356.352 48.6ZM350.352 49.7L350.096 47.7164L350.352 49.7ZM344.452 50.1V48.1H342.452V50.1H344.452ZM344.452 52.9H342.452V54.9H344.452V52.9ZM350.552 52.6L350.733 54.5918L350.762 54.5891L350.792 54.5855L350.552 52.6ZM363.152 49.8L362.519 47.9026L362.509 47.9059L362.5 47.9093L363.152 49.8ZM324.952 49.7C324.952 45.0122 325.594 40.9473 326.835 37.4727L323.068 36.1273C321.642 40.1194 320.952 44.6544 320.952 49.7H324.952ZM326.839 37.4622C328.093 33.8872 329.825 30.9752 332.003 28.6755L329.1 25.9245C326.478 28.6915 324.477 32.1128 323.064 36.1378L326.839 37.4622ZM332.021 28.6566C334.223 26.2713 336.813 24.4739 339.807 23.2517L338.296 19.5483C334.757 20.9927 331.68 23.1287 329.082 25.9434L332.021 28.6566ZM339.794 23.257C342.87 22.0268 346.248 21.4 349.952 21.4V17.4C345.788 17.4 341.9 18.1066 338.309 19.543L339.794 23.257ZM349.952 21.4C351.887 21.4 353.603 21.4969 355.103 21.6846L355.6 17.7154C353.901 17.5031 352.016 17.4 349.952 17.4V21.4ZM355.185 21.6931C356.695 21.8189 358.054 22.0371 359.266 22.3403L360.237 18.4597C358.783 18.0963 357.208 17.8478 355.518 17.7069L355.185 21.6931ZM359.266 22.3403C360.462 22.6391 361.591 23.0557 362.657 23.5889L364.446 20.0111C363.112 19.3443 361.708 18.8276 360.237 18.4597L359.266 22.3403ZM362.775 23.6433C363.932 24.1303 365.102 24.7445 366.284 25.491L368.42 22.109C367.068 21.2555 365.704 20.5363 364.328 19.9567L362.775 23.6433ZM368.796 25.1838L371.096 22.7838L368.208 20.0162L365.908 22.4162L368.796 25.1838ZM369.652 23.4H391.652V19.4H369.652V23.4ZM389.652 21.4V73.5H393.652V21.4H389.652ZM389.652 73.5C389.652 82.9274 387.032 89.7542 382.092 94.3331L384.811 97.2669C390.804 91.7124 393.652 83.6726 393.652 73.5H389.652ZM382.083 94.3415C377.201 98.922 369.556 101.4 358.752 101.4V105.4C370.08 105.4 378.902 102.811 384.82 97.2585L382.083 94.3415ZM358.752 101.4C353.714 101.4 348.606 101.04 343.427 100.319L342.876 104.281C348.231 105.026 353.523 105.4 358.752 105.4V101.4ZM343.406 100.316C338.306 99.6624 333.949 98.6883 330.314 97.4128L328.989 101.187C332.954 102.578 337.597 103.604 342.897 104.284L343.406 100.316ZM331.652 99.3V76.5H327.652V99.3H331.652ZM328.813 78.3159C331.527 79.5685 334.376 80.5752 337.356 81.3376L338.347 77.4624C335.594 76.7581 332.976 75.8315 330.49 74.6841L328.813 78.3159ZM337.314 81.3264C340.302 82.1603 343.268 82.6848 346.209 82.8949L346.494 78.9051C343.835 78.7152 341.134 78.2397 338.389 77.4736L337.314 81.3264ZM346.166 82.8914C349.15 83.1689 352.014 83.1708 354.756 82.8896L354.348 78.9104C351.889 79.1626 349.287 79.1644 346.537 78.9086L346.166 82.8914ZM354.701 82.8944C357.508 82.6839 360.054 82.1889 362.32 81.3849L360.983 77.6151C359.115 78.2777 356.929 78.7161 354.402 78.9056L354.701 82.8944ZM363.652 79.5V76.4H359.652V79.5H363.652ZM361.121 74.4716C355.986 75.8837 351.201 76.3487 346.748 75.9097L346.355 79.8904C351.369 80.3846 356.65 79.8496 362.182 78.3284L361.121 74.4716ZM346.779 75.9129C342.379 75.4101 338.578 74.0995 335.331 72.0166L333.172 75.3834C336.992 77.8339 341.391 79.3232 346.324 79.8871L346.779 75.9129ZM335.368 72.0408C332.202 69.9096 329.653 67.0072 327.728 63.282L324.175 65.118C326.383 69.3928 329.368 72.8238 333.135 75.3592L335.368 72.0408ZM327.746 63.3174C325.909 59.5824 324.952 55.0646 324.952 49.7H320.952C320.952 55.5354 321.994 60.6843 324.157 65.0826L327.746 63.3174ZM369.875 46.2314L368.075 43.7314L364.828 46.0686L366.628 48.5686L369.875 46.2314ZM365.409 43.1934C364.351 43.84 362.976 44.4877 361.257 45.1245L362.646 48.8755C364.527 48.1789 366.152 47.4267 367.494 46.6066L365.409 43.1934ZM361.297 45.11C359.637 45.6848 357.837 46.1996 355.897 46.6523L356.806 50.5477C358.866 50.0671 360.8 49.5152 362.606 48.89L361.297 45.11ZM355.882 46.6558C354.023 47.1047 352.094 47.4586 350.096 47.7164L350.608 51.6836C352.743 51.4081 354.814 51.0286 356.821 50.5442L355.882 46.6558ZM350.096 47.7164C348.104 47.9734 346.223 48.1 344.452 48.1V52.1C346.413 52.1 348.466 51.9599 350.608 51.6836L350.096 47.7164ZM342.452 50.1V52.9H346.452V50.1H342.452ZM344.452 54.9C346.388 54.9 348.483 54.7963 350.733 54.5918L350.37 50.6082C348.22 50.8037 346.248 50.9 344.452 50.9V54.9ZM350.792 54.5855C353.054 54.3113 355.283 53.9342 357.479 53.4538L356.624 49.5462C354.553 49.9992 352.449 50.3554 350.311 50.6145L350.792 54.5855ZM357.479 53.4538C359.683 52.9716 361.792 52.3844 363.804 51.6907L362.5 47.9093C360.645 48.5489 358.687 49.095 356.624 49.5462L357.479 53.4538ZM363.784 51.6974C365.912 50.988 367.781 50.1172 369.361 49.0641L367.142 45.7359C365.922 46.5494 364.391 47.2787 362.519 47.9026L363.784 51.6974ZM398.403 38.7L400.227 39.5207L400.232 39.5095L398.403 38.7ZM405.803 28.4L407.136 29.8913L407.138 29.8897L405.803 28.4ZM417.103 21.8L417.77 23.6854L417.783 23.6809L417.796 23.6762L417.103 21.8ZM445.303 21.8L444.61 23.6762L444.623 23.6809L444.636 23.6854L445.303 21.8ZM456.503 28.4L455.153 29.8756L455.169 29.8906L455.186 29.9052L456.503 28.4ZM464.003 38.7L462.174 39.5095L462.179 39.5207L464.003 38.7ZM456.503 76.2L457.836 77.6913L457.838 77.6897L456.503 76.2ZM445.303 82.7L444.636 80.8146L444.623 80.8191L444.61 80.8238L445.303 82.7ZM417.103 82.8L417.77 80.9146L417.103 82.8ZM405.803 76.2L404.453 77.6756L404.461 77.6827L404.469 77.6897L405.803 76.2ZM445.003 50.1L446.113 51.7641L447.838 50.614L446.626 48.9314L445.003 50.1ZM443.203 47.6L444.826 46.4314L443.743 44.9264L442.16 45.8934L443.203 47.6ZM438.403 49.7L438.996 51.6101L439.016 51.604L439.036 51.5974L438.403 49.7ZM432.103 51.3L431.7 49.341L431.688 49.3435L432.103 51.3ZM425.403 52.4L425.169 50.4137L425.403 52.4ZM419.203 52.8V50.8H417.203V52.8H419.203ZM419.203 55.6H417.203V57.6H419.203V55.6ZM425.603 55.3L425.769 57.2931L425.797 57.2908L425.824 57.2878L425.603 55.3ZM432.803 54.2L432.421 52.2368L432.803 54.2ZM439.603 52.5L439.023 50.5859L439.015 50.5885L439.007 50.591L439.603 52.5ZM397.703 52.2C397.703 47.4434 398.558 43.2289 400.227 39.5207L396.579 37.8793C394.648 42.1711 393.703 46.9566 393.703 52.2H397.703ZM400.232 39.5095C401.924 35.6873 404.227 32.4909 407.136 29.8913L404.47 26.9087C401.113 29.9091 398.482 33.5793 396.574 37.8905L400.232 39.5095ZM407.138 29.8897C410.13 27.2091 413.666 25.1378 417.77 23.6854L416.436 19.9146C411.874 21.5288 407.876 23.8575 404.469 26.9103L407.138 29.8897ZM417.796 23.6762C421.887 22.1656 426.35 21.4 431.203 21.4V17.4C425.923 17.4 420.986 18.2343 416.41 19.9238L417.796 23.6762ZM431.203 21.4C436.056 21.4 440.519 22.1656 444.61 23.6762L445.996 19.9238C441.42 18.2343 436.483 17.4 431.203 17.4V21.4ZM444.636 23.6854C448.738 25.1368 452.233 27.2044 455.153 29.8756L457.853 26.9244C454.506 23.8622 450.535 21.5299 445.97 19.9146L444.636 23.6854ZM455.186 29.9052C458.157 32.5045 460.487 35.6967 462.174 39.5095L465.832 37.8905C463.92 33.57 461.249 29.8955 457.82 26.8948L455.186 29.9052ZM462.179 39.5207C463.848 43.2289 464.703 47.4434 464.703 52.2H468.703C468.703 46.9566 467.758 42.1711 465.827 37.8793L462.179 39.5207ZM464.703 52.2C464.703 56.9559 463.848 61.2087 462.174 64.9905L465.832 66.6095C467.758 62.2579 468.703 57.4441 468.703 52.2H464.703ZM462.174 64.9905C460.485 68.8073 458.15 72.0395 455.169 74.7103L457.838 77.6897C461.256 74.6272 463.921 70.926 465.832 66.6095L462.174 64.9905ZM455.17 74.7087C452.249 77.3196 448.747 79.3599 444.636 80.8146L445.97 84.5854C450.526 82.9735 454.491 80.6804 457.836 77.6913L455.17 74.7087ZM444.61 80.8238C440.519 82.3344 436.056 83.1 431.203 83.1V87.1C436.483 87.1 441.42 86.2656 445.996 84.5762L444.61 80.8238ZM431.203 83.1C426.341 83.1 421.869 82.3647 417.77 80.9146L416.436 84.6854C421.004 86.3019 425.932 87.1 431.203 87.1V83.1ZM417.77 80.9146C413.666 79.4622 410.13 77.3909 407.138 74.7103L404.469 77.6897C407.876 80.7425 411.874 83.0712 416.436 84.6854L417.77 80.9146ZM407.153 74.7244C404.233 72.0531 401.926 68.8166 400.232 64.9905L396.574 66.6095C398.481 70.9167 401.106 74.6136 404.453 77.6756L407.153 74.7244ZM400.232 64.9905C398.558 61.2087 397.703 56.9559 397.703 52.2H393.703C393.703 57.4441 394.648 62.2579 396.574 66.6095L400.232 64.9905ZM446.626 48.9314L444.826 46.4314L441.58 48.7686L443.38 51.2686L446.626 48.9314ZM442.16 45.8934C441.136 46.5192 439.691 47.1626 437.771 47.8026L439.036 51.5974C441.116 50.9041 442.87 50.1475 444.246 49.3066L442.16 45.8934ZM437.81 47.7899C435.947 48.368 433.911 48.8858 431.7 49.3411L432.506 53.2589C434.828 52.7809 436.992 52.232 438.996 51.6101L437.81 47.7899ZM431.688 49.3435C429.549 49.7973 427.376 50.1541 425.169 50.4137L425.637 54.3863C427.963 54.1126 430.257 53.736 432.518 53.2565L431.688 49.3435ZM425.169 50.4137C422.964 50.6732 420.977 50.8 419.203 50.8V54.8C421.163 54.8 423.309 54.6602 425.637 54.3863L425.169 50.4137ZM417.203 52.8V55.6H421.203V52.8H417.203ZM419.203 57.6C421.138 57.6 423.329 57.4965 425.769 57.2931L425.437 53.3069C423.077 53.5035 421.001 53.6 419.203 53.6V57.6ZM425.824 57.2878C428.279 57.015 430.732 56.6401 433.185 56.1632L432.421 52.2368C430.074 52.6932 427.728 53.0516 425.382 53.3122L425.824 57.2878ZM433.185 56.1632C435.651 55.6838 437.99 55.0996 440.2 54.409L439.007 50.591C436.95 51.2337 434.755 51.7829 432.421 52.2368L433.185 56.1632ZM440.183 54.414C442.507 53.7098 444.502 52.8378 446.113 51.7641L443.894 48.4359C442.704 49.2288 441.099 49.9569 439.023 50.5859L440.183 54.414ZM548.905 46.6V48.6H550.905V46.6H548.905ZM537.805 46.6V44.6H535.805V46.6H537.805ZM537.805 82.5V84.5H539.805V82.5H537.805ZM503.805 82.5H501.805V84.5H503.805V82.5ZM503.805 46.6H505.805V44.6H503.805V46.6ZM500.305 46.6H498.305V48.6H500.305V46.6ZM500.305 21.4V19.4H498.305V21.4H500.305ZM504.505 21.4V23.4H506.169L506.471 21.7628L504.505 21.4ZM513.005 5.79999L511.764 4.23143L511.758 4.23598L511.752 4.24056L513.005 5.79999ZM536.005 0.799999L535.766 2.78575L535.806 2.79047L535.845 2.79363L536.005 0.799999ZM545.605 2.4L545.055 4.32304L545.108 4.33811L545.161 4.35026L545.605 2.4ZM548.905 3.6H550.905V2.50211L549.978 1.91268L548.905 3.6ZM548.905 23.6V25.6H550.905V23.6H548.905ZM539.205 23L538.946 24.9832L538.951 24.9839L539.205 23ZM530.305 21.4L530.758 19.452L528.305 18.8815V21.4H530.305ZM530.305 24.3H528.305V25.891L529.855 26.2488L530.305 24.3ZM539.005 25.8L538.757 27.7846L539.005 25.8ZM548.905 26.4H550.905V24.4H548.905V26.4ZM548.905 44.6H537.805V48.6H548.905V44.6ZM535.805 46.6V82.5H539.805V46.6H535.805ZM537.805 80.5H503.805V84.5H537.805V80.5ZM505.805 82.5V46.6H501.805V82.5H505.805ZM503.805 44.6H500.305V48.6H503.805V44.6ZM502.305 46.6V21.4H498.305V46.6H502.305ZM500.305 23.4H504.505V19.4H500.305V23.4ZM506.471 21.7628C507.673 15.2517 510.314 10.526 514.257 7.35942L511.752 4.24056C506.896 8.14067 503.87 13.815 502.538 21.0372L506.471 21.7628ZM514.245 7.36856C518.24 4.20836 523.976 2.5 531.705 2.5V-1.5C523.433 -1.5 516.702 0.324961 511.764 4.23143L514.245 7.36856ZM531.705 2.5C532.801 2.5 534.15 2.59181 535.766 2.78575L536.243 -1.18575C534.526 -1.39182 533.009 -1.5 531.705 -1.5V2.5ZM535.845 2.79363C537.459 2.92273 539.073 3.11644 540.689 3.37488L541.321 -0.574884C539.603 -0.849776 537.884 -1.05607 536.164 -1.19363L535.845 2.79363ZM540.689 3.37488C542.289 3.63087 543.743 3.94809 545.055 4.32304L546.154 0.476948C544.667 0.0519085 543.054 -0.297544 541.321 -0.574884L540.689 3.37488ZM545.161 4.35026C546.543 4.66425 547.383 5.00211 547.831 5.28732L549.978 1.91268C548.96 1.26455 547.6 0.802408 546.048 0.44973L545.161 4.35026ZM546.905 3.6V23.6H550.905V3.6H546.905ZM548.905 21.6C545.651 21.6 542.503 21.4048 539.458 21.0161L538.951 24.9839C542.173 25.3952 545.491 25.6 548.905 25.6V21.6ZM539.463 21.0168C536.459 20.6249 533.557 20.103 530.758 19.452L529.852 23.348C532.786 24.0303 535.817 24.5751 538.946 24.9832L539.463 21.0168ZM528.305 21.4V24.3H532.305V21.4H528.305ZM529.855 26.2488C532.534 26.8669 535.502 27.3778 538.757 27.7846L539.253 23.8154C536.107 23.4222 533.276 22.9331 530.754 22.3512L529.855 26.2488ZM538.757 27.7846C542.043 28.1954 545.426 28.4 548.905 28.4V24.4C545.583 24.4 542.366 24.2046 539.253 23.8154L538.757 27.7846ZM546.905 26.4V46.6H550.905V26.4H546.905ZM555.141 38.7L556.965 39.5207L556.97 39.5095L555.141 38.7ZM562.541 28.4L563.874 29.8913L563.876 29.8897L562.541 28.4ZM573.841 21.8L574.509 23.6854L574.521 23.6809L574.534 23.6762L573.841 21.8ZM602.041 21.8L601.349 23.6762L601.361 23.6809L601.374 23.6854L602.041 21.8ZM613.241 28.4L611.891 29.8756L611.908 29.8906L611.924 29.9052L613.241 28.4ZM620.741 38.7L618.913 39.5095L618.918 39.5207L620.741 38.7ZM613.241 76.2L614.574 77.6913L614.576 77.6897L613.241 76.2ZM602.041 82.7L601.374 80.8146L601.361 80.8191L601.349 80.8238L602.041 82.7ZM573.841 82.8L574.509 80.9146L573.841 82.8ZM562.541 76.2L561.191 77.6756L561.199 77.6827L561.207 77.6897L562.541 76.2ZM601.741 50.1L602.851 51.7641L604.576 50.614L603.365 48.9314L601.741 50.1ZM599.941 47.6L601.564 46.4314L600.481 44.9264L598.898 45.8934L599.941 47.6ZM595.141 49.7L595.734 51.6101L595.754 51.604L595.774 51.5974L595.141 49.7ZM588.841 51.3L588.438 49.341L588.426 49.3435L588.841 51.3ZM582.141 52.4L581.908 50.4137L582.141 52.4ZM575.941 52.8V50.8H573.941V52.8H575.941ZM575.941 55.6H573.941V57.6H575.941V55.6ZM582.341 55.3L582.508 57.2931L582.535 57.2908L582.562 57.2878L582.341 55.3ZM589.541 54.2L589.16 52.2368L589.541 54.2ZM596.341 52.5L595.761 50.5859L595.753 50.5885L595.745 50.591L596.341 52.5ZM554.441 52.2C554.441 47.4434 555.297 43.2289 556.965 39.5207L553.318 37.8793C551.386 42.1711 550.441 46.9566 550.441 52.2H554.441ZM556.97 39.5095C558.662 35.6873 560.965 32.4909 563.874 29.8913L561.209 26.9087C557.851 29.9091 555.221 33.5793 553.313 37.8905L556.97 39.5095ZM563.876 29.8897C566.868 27.2091 570.404 25.1378 574.509 23.6854L573.174 19.9146C568.612 21.5288 564.615 23.8575 561.207 26.9103L563.876 29.8897ZM574.534 23.6762C578.625 22.1656 583.088 21.4 587.941 21.4V17.4C582.661 17.4 577.724 18.2343 573.149 19.9238L574.534 23.6762ZM587.941 21.4C592.795 21.4 597.258 22.1656 601.349 23.6762L602.734 19.9238C598.159 18.2343 593.222 17.4 587.941 17.4V21.4ZM601.374 23.6854C605.476 25.1368 608.972 27.2044 611.891 29.8756L614.591 26.9244C611.244 23.8622 607.274 21.5299 602.709 19.9146L601.374 23.6854ZM611.924 29.9052C614.895 32.5045 617.225 35.6967 618.913 39.5095L622.57 37.8905C620.658 33.57 617.988 29.8955 614.558 26.8948L611.924 29.9052ZM618.918 39.5207C620.586 43.2289 621.441 47.4434 621.441 52.2H625.441C625.441 46.9566 624.497 42.1711 622.565 37.8793L618.918 39.5207ZM621.441 52.2C621.441 56.9559 620.586 61.2087 618.913 64.9905L622.57 66.6095C624.496 62.2579 625.441 57.4441 625.441 52.2H621.441ZM618.913 64.9905C617.223 68.8073 614.888 72.0395 611.907 74.7103L614.576 77.6897C617.995 74.6272 620.66 70.926 622.57 66.6095L618.913 64.9905ZM611.909 74.7087C608.987 77.3196 605.485 79.3599 601.374 80.8146L602.709 84.5854C607.264 82.9735 611.229 80.6804 614.574 77.6913L611.909 74.7087ZM601.349 80.8238C597.258 82.3344 592.795 83.1 587.941 83.1V87.1C593.222 87.1 598.159 86.2656 602.734 84.5762L601.349 80.8238ZM587.941 83.1C583.079 83.1 578.607 82.3647 574.509 80.9146L573.174 84.6854C577.743 86.3019 582.671 87.1 587.941 87.1V83.1ZM574.509 80.9146C570.404 79.4622 566.868 77.3909 563.876 74.7103L561.207 77.6897C564.615 80.7425 568.612 83.0712 573.174 84.6854L574.509 80.9146ZM563.891 74.7244C560.972 72.0531 558.664 68.8166 556.97 64.9905L553.313 66.6095C555.219 70.9167 557.845 74.6136 561.191 77.6756L563.891 74.7244ZM556.97 64.9905C555.296 61.2087 554.441 56.9559 554.441 52.2H550.441C550.441 57.4441 551.386 62.2579 553.313 66.6095L556.97 64.9905ZM603.365 48.9314L601.564 46.4314L598.318 48.7686L600.118 51.2686L603.365 48.9314ZM598.898 45.8934C597.875 46.5192 596.429 47.1626 594.509 47.8026L595.774 51.5974C597.854 50.9041 599.608 50.1475 600.984 49.3066L598.898 45.8934ZM594.549 47.7899C592.686 48.368 590.65 48.8858 588.438 49.3411L589.245 53.2589C591.566 52.7809 593.73 52.232 595.734 51.6101L594.549 47.7899ZM588.426 49.3435C586.287 49.7973 584.114 50.1541 581.908 50.4137L582.375 54.3863C584.702 54.1126 586.996 53.736 589.256 53.2565L588.426 49.3435ZM581.908 50.4137C579.702 50.6732 577.715 50.8 575.941 50.8V54.8C577.901 54.8 580.047 54.6602 582.375 54.3863L581.908 50.4137ZM573.941 52.8V55.6H577.941V52.8H573.941ZM575.941 57.6C577.877 57.6 580.067 57.4965 582.508 57.2931L582.175 53.3069C579.816 53.5035 577.739 53.6 575.941 53.6V57.6ZM582.562 57.2878C585.017 57.015 587.471 56.6401 589.923 56.1632L589.16 52.2368C586.812 52.6932 584.466 53.0516 582.121 53.3122L582.562 57.2878ZM589.923 56.1632C592.389 55.6838 594.728 55.0996 596.938 54.409L595.745 50.591C593.688 51.2337 591.494 51.7829 589.16 52.2368L589.923 56.1632ZM596.921 54.414C599.246 53.7098 601.24 52.8378 602.851 51.7641L600.632 48.4359C599.443 49.2288 597.837 49.9569 595.761 50.5859L596.921 54.414ZM660.665 25.5L659.144 26.7985L660.297 28.1491L661.774 27.1641L660.665 25.5ZM666.065 22.7L665.343 20.8349L665.332 20.8389L665.322 20.843L666.065 22.7ZM672.365 20.8L671.95 18.8435L671.937 18.8462L672.365 20.8ZM684.965 20.4H686.965V18.7153L685.305 18.4291L684.965 20.4ZM684.965 45.9V47.9H686.965V45.9H684.965ZM679.165 46L679.1 44.001L679.165 46ZM672.865 46.5L672.617 44.5154L672.865 46.5ZM666.465 47.7L666.905 49.6509L666.928 49.6458L666.95 49.6403L666.465 47.7ZM660.565 49.7L659.723 47.886L658.565 48.4235V49.7H660.565ZM660.565 82.5V84.5H662.565V82.5H660.565ZM628.565 82.5H626.565V84.5H628.565V82.5ZM628.565 21.4V19.4H626.565V21.4H628.565ZM657.165 21.4L658.686 20.1015L658.087 19.4H657.165V21.4ZM661.774 27.1641C663.246 26.1828 664.921 25.3116 666.808 24.5569L665.322 20.843C663.209 21.6884 661.283 22.6839 659.555 23.8359L661.774 27.1641ZM666.787 24.5651C668.759 23.8017 670.761 23.1982 672.792 22.7538L671.937 18.8462C669.702 19.3351 667.504 19.9983 665.343 20.8349L666.787 24.5651ZM672.78 22.7565C674.87 22.3131 676.919 22.0618 678.927 21.999L678.802 18.001C676.544 18.0715 674.26 18.3536 671.95 18.8435L672.78 22.7565ZM678.927 21.999C680.938 21.9362 682.836 22.0624 684.625 22.3709L685.305 18.4291C683.227 18.0709 681.059 17.9305 678.802 18.001L678.927 21.999ZM682.965 20.4V45.9H686.965V20.4H682.965ZM684.965 43.9C683.141 43.9 681.185 43.9338 679.1 44.001L679.229 47.999C681.278 47.9329 683.189 47.9 684.965 47.9V43.9ZM679.1 44.001C676.97 44.0698 674.809 44.2415 672.617 44.5154L673.113 48.4846C675.188 48.2252 677.226 48.0636 679.229 47.999L679.1 44.001ZM672.617 44.5154C670.402 44.7923 668.189 45.2073 665.98 45.7597L666.95 49.6403C669.007 49.126 671.061 48.741 673.113 48.4846L672.617 44.5154ZM666.024 45.7491C663.823 46.2461 661.722 46.9578 659.723 47.886L661.407 51.514C663.141 50.7088 664.973 50.0872 666.905 49.6509L666.024 45.7491ZM658.565 49.7V82.5H662.565V49.7H658.565ZM660.565 80.5H628.565V84.5H660.565V80.5ZM630.565 82.5V21.4H626.565V82.5H630.565ZM628.565 23.4H657.165V19.4H628.565V23.4ZM655.644 22.6985L659.144 26.7985L662.186 24.2015L658.686 20.1015L655.644 22.6985ZM274.094 173.9L272.471 172.73L272.462 172.743L272.453 172.756L274.094 173.9ZM283.794 167.3L284.452 169.189L284.462 169.185L284.471 169.182L283.794 167.3ZM289.494 165.7L289.921 167.654L289.494 165.7ZM296.194 164.5L295.911 162.52L296.194 164.5ZM303.294 163.7L303.128 161.707L303.294 163.7ZM310.194 163.4V165.4H312.194V163.4H310.194ZM310.194 160.2H312.194V158.2H310.194V160.2ZM293.694 161.6L293.383 159.624L293.38 159.625L293.694 161.6ZM276.294 165.9H274.294V168.685L276.933 167.795L276.294 165.9ZM276.294 145.1L275.468 143.278L274.294 143.811V145.1H276.294ZM290.494 140.8L290.145 138.831L290.14 138.831L290.494 140.8ZM322.294 140.8L321.8 142.738L322.294 140.8ZM331.294 145.5L329.922 146.955L329.933 146.966L329.944 146.976L331.294 145.5ZM336.394 154L338.308 153.422L336.394 154ZM337.994 202.5V204.5H339.994V202.5H337.994ZM312.994 202.5H310.994V204.5H312.994V202.5ZM311.394 187.9L309.476 188.468L309.479 188.478L311.394 187.9ZM307.294 179L308.921 177.838L308.036 176.598L306.605 177.122L307.294 179ZM304.294 180.1L303.605 178.222L300.884 179.22L302.782 181.41L304.294 180.1ZM306.594 184L304.748 184.769L304.754 184.783L304.76 184.797L306.594 184ZM308.294 189.2L306.35 189.669L306.352 189.677L306.353 189.685L308.294 189.2ZM309.394 195.1L307.41 195.356L307.411 195.364L309.394 195.1ZM309.794 200.8L310.469 202.682L311.794 202.207V200.8H309.794ZM275.694 199L277.166 197.646L277.159 197.638L277.152 197.631L275.694 199ZM273.094 186C273.094 181.02 274.057 177.448 275.734 175.044L272.453 172.756C270.131 176.085 269.094 180.579 269.094 186H273.094ZM275.716 175.07C277.477 172.627 280.317 170.629 284.452 169.189L283.136 165.411C278.47 167.037 274.844 169.439 272.471 172.73L275.716 175.07ZM284.471 169.182C286.04 168.617 287.854 168.106 289.921 167.654L289.066 163.746C286.867 164.227 284.881 164.783 283.116 165.418L284.471 169.182ZM289.921 167.654C292.003 167.198 294.188 166.807 296.477 166.48L295.911 162.52C293.533 162.86 291.251 163.268 289.066 163.746L289.921 167.654ZM296.477 166.48C298.77 166.152 301.098 165.89 303.46 165.693L303.128 161.707C300.689 161.91 298.284 162.181 295.911 162.52L296.477 166.48ZM303.46 165.693C305.81 165.497 308.054 165.4 310.194 165.4V161.4C307.933 161.4 305.578 161.503 303.128 161.707L303.46 165.693ZM312.194 163.4V160.2H308.194V163.4H312.194ZM310.194 158.2C305.006 158.2 299.401 158.678 293.383 159.624L294.005 163.576C299.853 162.656 305.248 162.2 310.194 162.2V158.2ZM293.38 159.625C287.401 160.576 281.492 162.036 275.655 164.005L276.933 167.795C282.562 165.897 288.254 164.491 294.008 163.575L293.38 159.625ZM278.294 165.9V145.1H274.294V165.9H278.294ZM277.119 146.922C281.217 145.065 285.79 143.676 290.847 142.769L290.14 138.831C284.798 139.79 279.903 141.269 275.468 143.278L277.119 146.922ZM290.843 142.769C295.964 141.862 302.009 141.4 308.994 141.4V137.4C301.845 137.4 295.556 137.872 290.145 138.831L290.843 142.769ZM308.994 141.4C314.085 141.4 318.342 141.858 321.8 142.738L322.787 138.862C318.912 137.875 314.303 137.4 308.994 137.4V141.4ZM321.8 142.738C325.197 143.603 327.877 145.027 329.922 146.955L332.666 144.045C330.044 141.573 326.724 139.864 322.787 138.862L321.8 142.738ZM329.944 146.976C331.97 148.828 333.499 151.331 334.479 154.578L338.308 153.422C337.155 149.602 335.284 146.438 332.643 144.024L329.944 146.976ZM334.479 154.578C335.472 157.867 335.994 161.992 335.994 167H339.994C339.994 161.741 339.449 157.2 338.308 153.422L334.479 154.578ZM335.994 167V202.5H339.994V167H335.994ZM337.994 200.5H312.994V204.5H337.994V200.5ZM314.994 202.5V199.1H310.994V202.5H314.994ZM314.994 199.1C314.994 194.984 314.435 191.055 313.308 187.322L309.479 188.478C310.486 191.812 310.994 195.35 310.994 199.1H314.994ZM313.311 187.332C312.2 183.581 310.75 180.398 308.921 177.838L305.666 180.162C307.171 182.269 308.454 185.019 309.476 188.468L313.311 187.332ZM306.605 177.122L303.605 178.222L304.982 181.978L307.982 180.878L306.605 177.122ZM302.782 181.41C303.474 182.208 304.139 183.309 304.748 184.769L308.44 183.231C307.715 181.491 306.847 179.992 305.805 178.79L302.782 181.41ZM304.76 184.797C305.373 186.207 305.905 187.828 306.35 189.669L310.238 188.731C309.749 186.705 309.148 184.86 308.428 183.203L304.76 184.797ZM306.353 189.685C306.8 191.47 307.153 193.36 307.41 195.356L311.377 194.844C311.102 192.707 310.721 190.663 310.234 188.715L306.353 189.685ZM307.411 195.364C307.668 197.287 307.794 199.098 307.794 200.8H311.794C311.794 198.902 311.653 196.913 311.376 194.836L307.411 195.364ZM309.118 198.918C306.638 199.808 303.813 200.549 300.632 201.133L301.355 205.067C304.708 204.451 307.749 203.659 310.469 202.682L309.118 198.918ZM300.632 201.133C297.515 201.706 293.84 202 289.594 202V206C294.014 206 297.94 205.694 301.355 205.067L300.632 201.133ZM289.594 202C283.739 202 279.73 200.433 277.166 197.646L274.222 200.354C277.791 204.234 283.048 206 289.594 206V202ZM277.152 197.631C274.502 194.809 273.094 191.002 273.094 186H269.094C269.094 191.798 270.752 196.658 274.236 200.369L277.152 197.631ZM381.568 202.5L379.599 202.848L379.89 204.5H381.568V202.5ZM370.768 141.4V139.4H368.383L368.798 141.748L370.768 141.4ZM398.668 141.4L400.648 141.121L400.406 139.4H398.668V141.4ZM401.468 161.3L399.487 161.579L403.421 161.732L401.468 161.3ZM405.868 141.4V139.4H404.262L403.915 140.968L405.868 141.4ZM421.968 141.4L423.921 140.968L423.574 139.4H421.968V141.4ZM426.368 161.3L424.415 161.732L428.348 161.579L426.368 161.3ZM429.168 141.4V139.4H427.43L427.187 141.121L429.168 141.4ZM457.068 141.4L459.037 141.748L459.452 139.4H457.068V141.4ZM446.268 202.5V204.5H447.945L448.237 202.848L446.268 202.5ZM418.368 202.5L416.43 202.993L416.813 204.5H418.368V202.5ZM413.968 185.2L415.906 184.707L412.032 184.697L413.968 185.2ZM409.468 202.5V204.5H411.014L411.404 203.003L409.468 202.5ZM383.537 202.152L372.737 141.052L368.798 141.748L379.599 202.848L383.537 202.152ZM370.768 143.4H398.668V139.4H370.768V143.4ZM396.687 141.679L399.487 161.579L403.448 161.021L400.648 141.121L396.687 141.679ZM403.421 161.732L407.821 141.832L403.915 140.968L399.515 160.868L403.421 161.732ZM405.868 143.4H421.968V139.4H405.868V143.4ZM420.015 141.832L424.415 161.732L428.321 160.868L423.921 140.968L420.015 141.832ZM428.348 161.579L431.148 141.679L427.187 141.121L424.387 161.021L428.348 161.579ZM429.168 143.4H457.068V139.4H429.168V143.4ZM455.099 141.052L444.298 202.152L448.237 202.848L459.037 141.748L455.099 141.052ZM446.268 200.5H418.368V204.5H446.268V200.5ZM420.306 202.007L415.906 184.707L412.03 185.693L416.43 202.993L420.306 202.007ZM412.032 184.697L407.532 201.997L411.404 203.003L415.904 185.703L412.032 184.697ZM409.468 200.5H381.568V204.5H409.468V200.5ZM459.836 173.9L458.214 172.73L458.205 172.743L458.196 172.756L459.836 173.9ZM469.536 167.3L470.194 169.189L470.204 169.185L470.213 169.182L469.536 167.3ZM475.236 165.7L475.663 167.654L475.236 165.7ZM481.936 164.5L481.653 162.52L481.936 164.5ZM489.036 163.7L488.87 161.707L489.036 163.7ZM495.936 163.4V165.4H497.936V163.4H495.936ZM495.936 160.2H497.936V158.2H495.936V160.2ZM479.436 161.6L479.125 159.624L479.122 159.625L479.436 161.6ZM462.036 165.9H460.036V168.685L462.675 167.795L462.036 165.9ZM462.036 145.1L461.21 143.278L460.036 143.811V145.1H462.036ZM476.236 140.8L475.887 138.831L475.883 138.831L476.236 140.8ZM508.036 140.8L507.543 142.738L508.036 140.8ZM517.036 145.5L515.664 146.955L515.675 146.966L515.686 146.976L517.036 145.5ZM522.136 154L524.051 153.422L522.136 154ZM523.736 202.5V204.5H525.736V202.5H523.736ZM498.736 202.5H496.736V204.5H498.736V202.5ZM497.136 187.9L495.218 188.468L495.221 188.478L497.136 187.9ZM493.036 179L494.663 177.838L493.778 176.598L492.347 177.122L493.036 179ZM490.036 180.1L489.347 178.222L486.627 179.22L488.525 181.41L490.036 180.1ZM492.336 184L490.49 184.769L490.496 184.783L490.502 184.797L492.336 184ZM494.036 189.2L492.092 189.669L492.094 189.677L492.096 189.685L494.036 189.2ZM495.136 195.1L493.152 195.356L493.153 195.364L495.136 195.1ZM495.536 200.8L496.212 202.682L497.536 202.207V200.8H495.536ZM461.436 199L462.908 197.646L462.901 197.638L462.894 197.631L461.436 199ZM458.836 186C458.836 181.02 459.799 177.448 461.476 175.044L458.196 172.756C455.873 176.085 454.836 180.579 454.836 186H458.836ZM461.458 175.07C463.219 172.627 466.06 170.629 470.194 169.189L468.878 165.411C464.212 167.037 460.586 169.439 458.214 172.73L461.458 175.07ZM470.213 169.182C471.782 168.617 473.596 168.106 475.663 167.654L474.809 163.746C472.609 164.227 470.623 164.783 468.858 165.418L470.213 169.182ZM475.663 167.654C477.745 167.198 479.93 166.807 482.219 166.48L481.653 162.52C479.275 162.86 476.993 163.268 474.809 163.746L475.663 167.654ZM482.219 166.48C484.513 166.152 486.84 165.89 489.202 165.693L488.87 161.707C486.432 161.91 484.026 162.181 481.653 162.52L482.219 166.48ZM489.202 165.693C491.552 165.497 493.796 165.4 495.936 165.4V161.4C493.676 161.4 491.32 161.503 488.87 161.707L489.202 165.693ZM497.936 163.4V160.2H493.936V163.4H497.936ZM495.936 158.2C490.748 158.2 485.143 158.678 479.125 159.624L479.747 163.576C485.596 162.656 490.99 162.2 495.936 162.2V158.2ZM479.122 159.625C473.143 160.576 467.234 162.036 461.397 164.005L462.675 167.795C468.304 165.897 473.996 164.491 479.75 163.575L479.122 159.625ZM464.036 165.9V145.1H460.036V165.9H464.036ZM462.861 146.922C466.96 145.065 471.532 143.676 476.589 142.769L475.883 138.831C470.54 139.79 465.646 141.269 461.21 143.278L462.861 146.922ZM476.585 142.769C481.707 141.862 487.751 141.4 494.736 141.4V137.4C487.587 137.4 481.299 137.872 475.887 138.831L476.585 142.769ZM494.736 141.4C499.827 141.4 504.085 141.858 507.543 142.738L508.529 138.862C504.654 137.875 500.045 137.4 494.736 137.4V141.4ZM507.543 142.738C510.939 143.603 513.619 145.027 515.664 146.955L518.408 144.045C515.786 141.573 512.466 139.864 508.529 138.862L507.543 142.738ZM515.686 146.976C517.712 148.828 519.241 151.331 520.221 154.578L524.051 153.422C522.897 149.602 521.026 146.438 518.385 144.024L515.686 146.976ZM520.221 154.578C521.214 157.867 521.736 161.992 521.736 167H525.736C525.736 161.741 525.191 157.2 524.051 153.422L520.221 154.578ZM521.736 167V202.5H525.736V167H521.736ZM523.736 200.5H498.736V204.5H523.736V200.5ZM500.736 202.5V199.1H496.736V202.5H500.736ZM500.736 199.1C500.736 194.984 500.177 191.055 499.051 187.322L495.221 188.478C496.228 191.812 496.736 195.35 496.736 199.1H500.736ZM499.054 187.332C497.942 183.581 496.492 180.398 494.663 177.838L491.408 180.162C492.913 182.269 494.196 185.019 495.218 188.468L499.054 187.332ZM492.347 177.122L489.347 178.222L490.724 181.978L493.724 180.878L492.347 177.122ZM488.525 181.41C489.216 182.208 489.881 183.309 490.49 184.769L494.182 183.231C493.457 181.491 492.589 179.992 491.547 178.79L488.525 181.41ZM490.502 184.797C491.115 186.207 491.647 187.828 492.092 189.669L495.98 188.731C495.491 186.705 494.891 184.86 494.17 183.203L490.502 184.797ZM492.096 189.685C492.542 191.47 492.895 193.36 493.152 195.356L497.12 194.844C496.844 192.707 496.463 190.663 495.976 188.715L492.096 189.685ZM493.153 195.364C493.41 197.287 493.536 199.098 493.536 200.8H497.536C497.536 198.902 497.395 196.913 497.118 194.836L493.153 195.364ZM494.86 198.918C492.381 199.808 489.555 200.549 486.375 201.133L487.097 205.067C490.45 204.451 493.491 203.659 496.212 202.682L494.86 198.918ZM486.375 201.133C483.257 201.706 479.582 202 475.336 202V206C479.756 206 483.682 205.694 487.097 205.067L486.375 201.133ZM475.336 202C469.481 202 465.472 200.433 462.908 197.646L459.964 200.354C463.533 204.234 468.791 206 475.336 206V202ZM462.894 197.631C460.244 194.809 458.836 191.002 458.836 186H454.836C454.836 191.798 456.494 196.658 459.978 200.369L462.894 197.631ZM563.932 202.5V204.5H565.932V202.5H563.932ZM529.932 202.5H527.932V204.5H529.932V202.5ZM529.932 124.3V122.3H527.932V124.3H529.932ZM563.932 124.3H565.932V122.3H563.932V124.3ZM563.932 200.5H529.932V204.5H563.932V200.5ZM531.932 202.5V124.3H527.932V202.5H531.932ZM529.932 126.3H563.932V122.3H529.932V126.3ZM561.932 124.3V202.5H565.932V124.3H561.932ZM605.143 202.5V204.5H607.143V202.5H605.143ZM571.143 202.5H569.143V204.5H571.143V202.5ZM571.143 124.3V122.3H569.143V124.3H571.143ZM605.143 124.3H607.143V122.3H605.143V124.3ZM605.143 153.9L607.001 154.64L607.143 154.284V153.9H605.143ZM599.643 167.7L597.785 166.96L596.945 169.067L599.141 169.636L599.643 167.7ZM602.343 168.4L601.841 170.336L603.546 170.778L604.2 169.143L602.343 168.4ZM613.143 141.4V139.4H611.789L611.286 140.657L613.143 141.4ZM646.943 141.4L648.74 142.278L650.146 139.4H646.943V141.4ZM632.043 171.9L630.246 171.022L629.818 171.899L630.245 172.776L632.043 171.9ZM646.943 202.5V204.5H650.141L648.741 201.624L646.943 202.5ZM611.943 202.5L610.137 203.359L610.679 204.5H611.943V202.5ZM605.143 188.2L606.949 187.341L603.143 188.2H605.143ZM605.143 200.5H571.143V204.5H605.143V200.5ZM573.143 202.5V124.3H569.143V202.5H573.143ZM571.143 126.3H605.143V122.3H571.143V126.3ZM603.143 124.3V153.9H607.143V124.3H603.143ZM603.285 153.16L597.785 166.96L601.501 168.44L607.001 154.64L603.285 153.16ZM599.141 169.636L601.841 170.336L602.845 166.464L600.145 165.764L599.141 169.636ZM604.2 169.143L615 142.143L611.286 140.657L600.486 167.657L604.2 169.143ZM613.143 143.4H646.943V139.4H613.143V143.4ZM645.146 140.522L630.246 171.022L633.84 172.778L648.74 142.278L645.146 140.522ZM630.245 172.776L645.145 203.376L648.741 201.624L633.841 171.024L630.245 172.776ZM646.943 200.5H611.943V204.5H646.943V200.5ZM613.749 201.641L606.949 187.341L603.337 189.059L610.137 203.359L613.749 201.641ZM603.143 188.2V202.5H607.143V188.2H603.143ZM681.414 177.9V179.9H683.341L683.413 177.975L681.414 177.9ZM652.514 177.9L650.515 177.975L650.587 179.9H652.514V177.9ZM650.514 124.3V122.3H648.438L648.515 124.375L650.514 124.3ZM683.414 124.3L685.413 124.375L685.49 122.3H683.414V124.3ZM681.414 206.4V208.4H683.414V206.4H681.414ZM654.314 204.9L655.553 203.33L655.548 203.326L655.542 203.321L654.314 204.9ZM652.514 180.3V178.3H650.514V180.3H652.514ZM681.414 180.3H683.414V178.3H681.414V180.3ZM681.414 175.9H652.514V179.9H681.414V175.9ZM654.513 177.825L652.513 124.225L648.515 124.375L650.515 177.975L654.513 177.825ZM650.514 126.3H683.414V122.3H650.514V126.3ZM681.415 124.225L679.415 177.825L683.413 177.975L685.413 124.375L681.415 124.225ZM681.414 204.4H659.614V208.4H681.414V204.4ZM659.614 204.4C657.619 204.4 656.349 203.958 655.553 203.33L653.075 206.47C654.813 207.842 657.076 208.4 659.614 208.4V204.4ZM655.542 203.321C655.044 202.934 654.514 202.053 654.514 200H650.514C650.514 202.614 651.184 204.999 653.086 206.479L655.542 203.321ZM654.514 200V180.3H650.514V200H654.514ZM652.514 182.3H681.414V178.3H652.514V182.3ZM679.414 180.3V206.4H683.414V180.3H679.414Z" fill="black" mask="url(#path-1-outside-1_1699_3543)"/>
</svg>
