<svg width="100%" height="auto" viewBox="0 0 1982 762" fill="none" xmlns="http://www.w3.org/2000/svg">

  <defs>
    <style>
      {`
        @keyframes moveBackground {
          0% { background-position: 0% 0%; }
          100% { background-position: 100% 100%; }
        }
        .animate-background {
          animation: moveBackground 10s linear infinite;
        }
      `}
    </style>
  </defs>
  <rect width="100%" height="100%" fill="url(#yourGradient)" class="animate-background"/>

<path d="M27.3086 580.809L36.3225 583.834L33.5166 622.096L48.2992 587.835L57.2013 590.818L35.7882 637.995L24.7729 634.3L27.8248 597.368L12.172 630.084L1.15673 626.389L6.44692 573.807L15.349 576.79L10.8618 614.49L27.3257 580.791L27.3086 580.809Z" fill="white" stroke="#231815"/>
<path d="M93.4252 598.148L83.5873 649.922L74.1455 647.548L78.6424 623.879L63.5164 620.083L59.0195 643.751L49.5778 641.376L59.4156 589.602L68.8733 591.978L64.9903 612.387L80.1163 616.184L83.9992 595.774L93.441 598.149L93.4252 598.148Z" fill="white" stroke="#231815"/>
<path d="M89.9092 651.264L110.071 601.665L121.156 603.249L129.333 656.922L119.809 655.56L118 642.64L104.104 640.645L99.4014 652.643L89.877 651.281L89.9092 651.264ZM107.472 631.945L116.715 633.275L114.177 614.86L107.471 631.964L107.472 631.945Z" fill="white" stroke="#231815"/>
<path d="M164.915 611.966L153.317 612.192L153.38 656.207L143.712 656.395L143.649 612.38L131.813 612.613L131.798 604.911L164.901 604.264L164.915 611.966Z" fill="white" stroke="#231815"/>
<path d="M201.454 602.451L195.853 604.251L203.793 637.812L209.394 636.012L211.451 644.687L190.732 651.378L188.676 642.703L194.277 640.903L186.336 607.342L180.735 609.142L178.99 601.736L199.708 595.045L201.454 602.451Z" fill="white" stroke="#231815"/>
<path d="M206.024 606.504C205.423 604.96 205.126 603.285 205.149 601.479C205.157 599.672 205.508 597.882 206.205 596.071C206.903 594.261 207.972 592.541 209.43 590.894C210.888 589.248 212.774 587.822 215.076 586.581C217.199 585.44 219.242 584.697 221.187 584.351C223.132 584.005 224.917 584.054 226.544 584.459C228.171 584.883 229.607 585.681 230.852 586.854C232.098 588.026 233.077 589.551 233.787 591.428L234.821 594.106L226.262 598.683L225.228 596.006C224.976 595.373 224.644 594.773 224.2 594.223C223.755 593.673 223.227 593.246 222.598 592.961C221.968 592.675 221.253 592.55 220.467 592.586C219.681 592.622 218.79 592.908 217.841 593.41C216.023 594.383 214.804 595.621 214.184 597.125C213.564 598.629 213.581 600.236 214.237 601.946C214.739 603.266 215.462 604.231 216.405 604.842C217.347 605.47 218.378 605.884 219.512 606.121C220.645 606.357 221.801 606.448 223.01 606.414C224.22 606.362 225.304 606.322 226.278 606.277C228.507 606.237 230.495 606.295 232.275 606.452C234.056 606.609 235.623 606.957 236.961 607.495C238.3 608.033 239.485 608.838 240.472 609.852C241.473 610.885 242.288 612.22 242.93 613.893C243.671 615.79 244.019 617.723 243.988 619.693C243.958 621.645 243.555 623.542 242.811 625.35C242.066 627.159 240.951 628.858 239.481 630.431C238.011 632.004 236.205 633.379 234.033 634.535C231.395 635.943 229.002 636.816 226.855 637.115C224.708 637.415 222.817 637.289 221.181 636.737C219.545 636.185 218.131 635.242 216.955 633.926C215.779 632.611 214.85 631.034 214.152 629.212L213.189 626.702L221.845 622.075L222.166 622.911C223.003 625.087 224.191 626.494 225.699 627.095C227.207 627.695 229.006 627.452 231.066 626.345C231.886 625.909 232.556 625.339 233.058 624.669C233.561 623.999 233.925 623.268 234.149 622.512C234.373 621.756 234.457 620.957 234.417 620.152C234.377 619.347 234.21 618.572 233.93 617.865C233.523 616.842 232.996 616.051 232.347 615.527C231.698 615.003 230.9 614.637 229.999 614.448C229.099 614.26 228.083 614.193 226.967 614.232C225.852 614.288 224.595 614.338 223.212 614.4C221.514 614.502 219.803 614.531 218.095 614.505C216.387 614.478 214.784 614.238 213.27 613.747C211.757 613.255 210.368 612.459 209.104 611.34C207.839 610.222 206.803 608.603 205.993 606.502L206.024 606.504Z" fill="white" stroke="#231815"/>
<path d="M291.296 571.283L292.76 573.545C295.506 577.787 296.444 581.907 295.588 585.961C294.733 589.996 291.905 593.974 287.121 597.878C282.32 601.78 278.022 603.624 274.179 603.405C270.351 603.188 267.073 600.949 264.325 596.725L253.582 580.129C250.836 575.887 249.931 571.732 250.871 567.628C251.81 563.524 254.672 559.53 259.457 555.608C264.257 551.705 268.521 549.897 272.264 550.183C276.008 550.469 279.253 552.724 281.999 556.967L282.89 558.331L275.361 564.46L274.275 562.778C272.916 560.684 271.27 559.556 269.349 559.41C267.429 559.265 265.434 560.022 263.395 561.7C261.339 563.378 260.169 565.189 259.848 567.166C259.529 569.125 260.047 571.161 261.421 573.273L271.893 589.439C273.252 591.532 274.848 592.695 276.683 592.927C278.519 593.141 280.448 592.417 282.503 590.757C284.558 589.079 285.712 587.286 285.964 585.378C286.217 583.47 285.665 581.451 284.306 579.358L283.325 577.844L291.327 571.321L291.296 571.283Z" fill="white" stroke="#231815"/>
<path d="M318.128 567.914C313.822 572.326 309.836 574.582 306.2 574.701C302.549 574.82 299.259 572.913 296.316 568.942L284.747 553.36C281.804 549.407 280.627 545.301 281.248 541.079C281.853 536.857 284.316 532.559 288.622 528.147C292.929 523.735 296.915 521.479 300.55 521.36C304.201 521.241 307.491 523.148 310.434 527.119L322.003 542.701C324.946 546.672 326.058 550.812 325.355 555.121C324.652 559.448 322.237 563.712 318.129 567.896L318.128 567.914ZM313.163 561.238C315.062 559.303 316.091 557.327 316.248 555.327C316.405 553.328 315.751 551.345 314.286 549.378L303.011 534.193C301.546 532.226 300.007 531.168 298.364 530.999C296.72 530.83 294.883 531.801 292.837 533.875C290.792 535.949 289.73 537.979 289.638 539.908C289.547 541.838 290.233 543.786 291.698 545.753L302.974 560.938C304.438 562.905 306.042 563.911 307.784 563.975C309.524 564.058 311.314 563.121 313.163 561.238Z" fill="white" stroke="#231815"/>
<path d="M333.175 527.49L343.917 540.612L336.943 548.414L306.625 511.387L318.426 498.171C322.354 493.766 326.119 491.491 329.719 491.349C333.319 491.206 336.728 493.101 339.946 497.034C343.135 500.928 344.598 504.981 344.32 509.172C344.042 513.382 341.931 517.67 338.003 522.076L333.175 527.49ZM333.938 516.056C335.453 514.358 336.059 512.542 335.757 510.592C335.456 508.641 334.582 506.793 333.138 505.009C331.499 503.014 329.855 501.774 328.192 501.289C326.528 500.805 324.938 501.43 323.391 503.146L318.115 509.055L328.663 521.928L333.94 516.019L333.938 516.056Z" fill="white" stroke="#231815"/>
<path d="M354.629 457.472L359.208 462.981L345.704 478.778L353.536 488.182L366.155 473.427L370.734 478.936L358.115 493.691L366.529 503.795L380.484 487.458L385.854 493.921L364.972 518.344L334.181 481.374L354.613 457.471L354.629 457.472Z" fill="white" stroke="#231815"/>
<path d="M385.351 433.963L376.814 443.404L403.498 474.538L396.376 482.396L369.691 451.263L360.984 460.879L356.318 455.433L380.684 428.516L385.351 433.963Z" fill="white" stroke="#231815"/>
<path d="M410.577 396.279L417.768 389.291L444.412 412.209L427.327 379.997L434.433 373.097L457.38 418.454L448.571 427.008L423.058 404.569L438.517 436.777L429.708 445.332L393.897 412.472L401.002 405.573L426.3 429.792L410.561 396.278L410.577 396.279Z" fill="white" stroke="#231815"/>
<path d="M470.183 344.601L495.442 387.334L487.321 393.859L475.783 374.333L462.792 384.781L474.33 404.307L466.209 410.833L440.95 368.099L449.071 361.574L459.02 378.418L472.011 367.97L462.062 351.126L470.183 344.601Z" fill="white" stroke="#231815"/>
<path d="M495.913 384.465L488.684 331.432L498.871 325.431L532.132 363.115L523.378 368.27L515.513 359.076L502.753 366.599L504.651 379.309L495.897 384.464L495.913 384.465ZM501.329 357.436L509.819 352.432L498.63 339.318L501.329 357.436Z" fill="white" stroke="#231815"/>
<path d="M547.98 310.833L536.979 315.447L549.131 357.351L539.956 361.192L527.805 319.289L516.595 323.987L514.472 316.659L545.857 303.506L547.98 310.833Z" fill="white" stroke="#231815"/>
<path d="M591.736 302.409L586.013 303.36L589.967 338.031L595.689 337.079L596.708 346.04L575.545 349.595L574.527 340.634L580.249 339.683L576.296 305.012L570.573 305.964L569.7 298.325L590.863 294.77L591.736 302.409Z" fill="white" stroke="#231815"/>
<path d="M598.661 304.945C598.696 303.194 599.066 301.495 599.756 299.831C600.446 298.166 601.449 296.666 602.782 295.349C604.098 294.031 605.74 292.971 607.707 292.187C609.673 291.404 611.942 291.027 614.528 291.075C616.922 291.113 619.076 291.458 620.989 292.127C622.903 292.796 624.53 293.75 625.871 294.97C627.212 296.19 628.234 297.674 628.924 299.404C629.614 301.134 629.941 303.052 629.905 305.158L629.843 308.177L620.25 308.058L620.313 305.039C620.33 304.331 620.236 303.599 620.046 302.863C619.856 302.127 619.518 301.458 619.047 300.876C618.576 300.294 617.972 299.818 617.234 299.447C616.496 299.076 615.573 298.883 614.496 298.869C612.455 298.847 610.855 299.368 609.726 300.453C608.582 301.536 607.996 303.038 607.953 304.957C607.916 306.429 608.226 307.693 608.851 308.748C609.476 309.804 610.268 310.737 611.227 311.528C612.17 312.319 613.215 313.003 614.329 313.578C615.46 314.154 616.48 314.668 617.391 315.122C619.445 316.226 621.259 317.301 622.849 318.346C624.424 319.391 625.737 320.516 626.773 321.722C627.809 322.927 628.582 324.251 629.108 325.712C629.634 327.173 629.876 328.845 629.835 330.726C629.782 332.869 629.382 334.846 628.605 336.655C627.828 338.465 626.759 340 625.378 341.315C623.998 342.611 622.343 343.614 620.395 344.342C618.447 345.071 616.262 345.396 613.836 345.356C610.864 345.308 608.343 344.89 606.259 344.083C604.175 343.275 602.491 342.188 601.188 340.839C599.885 339.491 598.948 337.898 598.375 336.08C597.802 334.263 597.524 332.328 597.574 330.26L597.643 327.447L607.364 327.572L607.352 328.504C607.299 330.964 607.853 332.855 609.027 334.198C610.201 335.54 611.938 336.22 614.252 336.236C615.184 336.243 615.996 336.076 616.721 335.7C617.446 335.324 618.048 334.849 618.542 334.257C619.036 333.665 619.423 332.975 619.685 332.185C619.948 331.396 620.097 330.619 620.119 329.818C620.142 328.663 619.948 327.665 619.554 326.826C619.143 325.986 618.566 325.268 617.809 324.617C617.051 323.984 616.147 323.4 615.095 322.865C614.043 322.331 612.865 321.752 611.577 321.113C609.974 320.328 608.39 319.489 606.824 318.612C605.258 317.718 603.877 316.664 602.666 315.431C601.453 314.217 600.494 312.754 599.754 311.059C599.014 309.364 598.676 307.352 598.724 304.986L598.661 304.945Z" fill="white" stroke="#231815"/>
<path d="M684.774 340.061L684.197 342.847C683.119 348.072 680.997 351.673 677.876 353.654C674.74 355.634 670.458 355.856 665.028 354.34C659.599 352.824 655.784 350.33 653.613 346.858C651.442 343.386 650.895 339.048 651.972 333.823L656.216 313.349C657.293 308.125 659.446 304.525 662.673 302.568C665.901 300.61 670.229 300.39 675.657 301.924C681.086 303.44 684.855 305.933 686.936 309.363C689.016 312.812 689.517 317.149 688.44 322.373L688.099 324.06L679.576 321.675L680.013 319.604C680.55 317.02 680.284 314.841 679.216 313.069C678.147 311.297 676.452 310.106 674.118 309.44C671.797 308.794 669.898 308.981 668.434 310.041C666.971 311.101 665.962 312.922 665.425 315.507L661.283 335.468C660.745 338.052 660.965 340.228 661.928 341.958C662.89 343.688 664.54 344.877 666.859 345.542C669.18 346.189 671.049 345.982 672.436 344.918C673.823 343.855 674.801 342.013 675.339 339.429L675.736 337.541L684.804 340.081L684.774 340.061Z" fill="white" stroke="#231815"/>
<path d="M700.425 365.298C694.953 363.416 691.232 360.714 689.247 357.193C687.262 353.672 686.945 349.418 688.314 344.397L693.678 324.703C695.046 319.699 697.419 316.367 700.828 314.707C704.237 313.047 708.661 313.166 714.117 315.048C719.573 316.93 723.31 319.632 725.295 323.153C727.28 326.674 727.596 330.946 726.228 335.949L720.864 355.644C719.496 360.647 717.046 363.958 713.529 365.577C709.996 367.195 705.634 367.096 700.425 365.298ZM702.726 356.858C705.137 357.694 707.118 357.643 708.654 356.724C710.206 355.806 711.308 354.108 711.991 351.616L717.221 332.42C717.905 329.928 717.863 327.833 717.126 326.139C716.39 324.445 714.723 323.139 712.143 322.241C709.562 321.344 707.534 321.374 706.075 322.315C704.617 323.255 703.546 324.972 702.878 327.466L697.648 346.661C696.964 349.154 697.068 351.269 697.928 353.005C698.788 354.759 700.393 356.026 702.727 356.84L702.726 356.858Z" fill="white" stroke="#231815"/>
<path d="M737.416 358.482L732.188 375.135L723.025 371.689L737.773 324.679L753.289 330.517C758.451 332.462 761.914 335.195 763.662 338.733C765.411 342.27 765.497 346.526 763.935 351.519C762.375 356.459 759.936 359.745 756.57 361.357C753.204 362.969 748.948 362.802 743.787 360.857L737.449 358.466L737.416 358.482ZM746.566 354.097C748.559 354.847 750.23 354.625 751.579 353.449C752.944 352.274 753.967 350.568 754.682 348.299C755.472 345.768 755.689 343.563 755.299 341.685C754.925 339.807 753.709 338.491 751.686 337.722L744.752 335.108L739.617 351.465L746.551 354.079L746.566 354.097Z" fill="white" stroke="#231815"/>
<path d="M802.456 349.635L800.087 356.842L781.785 349.481L777.753 361.781L794.852 368.663L792.483 375.87L775.384 368.988L771.047 382.209L789.959 389.819L787.188 398.272L758.893 386.879L774.786 338.51L802.471 349.654L802.456 349.635Z" fill="white" stroke="#231815"/>
<path d="M833.88 371.29L822.838 366.628L809.11 407.765L799.9 403.889L813.628 362.752L802.365 358.007L804.769 350.8L836.283 364.102L833.879 371.308L833.88 371.29Z" fill="white" stroke="#231815"/>
<path d="M872.795 380.929L881.544 384.635L876.315 421.827L893.168 389.55L901.806 393.215L877.561 437.578L866.858 433.052L872.251 397.196L854.63 427.89L843.928 423.364L852.548 372.387L861.186 376.052L854.32 412.565L872.809 380.985L872.795 380.929Z" fill="white" stroke="#231815"/>
<path d="M936.637 408.205L921.225 456.555L912.571 452.668L919.616 430.577L905.758 424.364L898.712 446.455L890.058 442.568L905.471 394.218L914.124 398.105L908.043 417.151L921.902 423.364L927.983 404.318L936.637 408.205Z" fill="white" stroke="#231815"/>
<path d="M924.856 458.255L954.233 414.644L964.893 419.137L962.777 474.224L953.623 470.364L954.297 457.142L940.942 451.511L934.012 462.096L924.857 458.236L924.856 458.255ZM945.895 443.827L954.783 447.58L955.788 428.739L945.895 443.827Z" fill="white" stroke="#231815"/>
<path d="M1005.14 443.945L993.934 439.539L980.901 481.121L971.555 477.449L984.588 435.866L973.172 431.376L975.447 424.103L1007.42 436.672L1005.14 443.945Z" fill="white" stroke="#231815"/>
<path d="M1042.31 457.817L1036.8 455.845L1027.32 488.697L1032.83 490.67L1030.38 499.166L1010.03 491.901L1012.47 483.405L1017.98 485.378L1027.46 452.525L1021.95 450.553L1024.03 443.314L1044.39 450.578L1042.31 457.817Z" fill="white" stroke="#231815"/>
<path d="M1042.69 463.094C1043.13 461.385 1043.88 459.823 1044.95 458.391C1046.02 456.959 1047.34 455.785 1048.94 454.891C1050.55 453.998 1052.41 453.459 1054.5 453.311C1056.6 453.163 1058.93 453.483 1061.45 454.325C1063.8 455.101 1065.82 456.11 1067.55 457.371C1069.27 458.631 1070.66 460.066 1071.68 461.693C1072.72 463.32 1073.38 465.1 1073.66 467.015C1073.95 468.949 1073.82 470.94 1073.3 472.987L1072.54 475.936L1063.14 472.829L1063.9 469.861C1064.08 469.166 1064.17 468.41 1064.14 467.629C1064.11 466.829 1063.95 466.08 1063.62 465.361C1063.3 464.642 1062.82 463.972 1062.17 463.39C1061.53 462.789 1060.68 462.331 1059.61 461.976C1057.61 461.311 1055.93 461.345 1054.55 462.059C1053.19 462.774 1052.25 464.08 1051.77 465.958C1051.39 467.404 1051.39 468.755 1051.78 469.99C1052.14 471.224 1052.71 472.392 1053.45 473.473C1054.2 474.554 1055.06 475.545 1056.03 476.466C1057.01 477.387 1057.89 478.208 1058.68 478.949C1060.44 480.668 1061.98 482.3 1063.29 483.826C1064.6 485.352 1065.61 486.864 1066.36 488.364C1067.1 489.863 1067.56 491.425 1067.73 493.03C1067.92 494.636 1067.77 496.36 1067.29 498.2C1066.75 500.304 1065.89 502.127 1064.72 503.668C1063.54 505.21 1062.12 506.397 1060.47 507.27C1058.82 508.123 1056.96 508.605 1054.88 508.716C1052.81 508.808 1050.59 508.475 1048.21 507.697C1045.3 506.741 1042.93 505.526 1041.06 504.087C1039.21 502.649 1037.79 501.042 1036.82 499.304C1035.85 497.565 1035.3 495.695 1035.16 493.73C1035.01 491.764 1035.2 489.758 1035.72 487.748L1036.43 484.987L1045.94 488.118L1045.7 489.039C1045.08 491.443 1045.19 493.502 1046.02 495.176C1046.86 496.851 1048.41 498.066 1050.67 498.819C1051.58 499.11 1052.43 499.188 1053.22 499.054C1054.02 498.921 1054.72 498.631 1055.35 498.186C1055.98 497.759 1056.51 497.195 1056.96 496.513C1057.4 495.83 1057.71 495.084 1057.93 494.296C1058.23 493.151 1058.27 492.106 1058.08 491.166C1057.88 490.225 1057.48 489.312 1056.88 488.447C1056.28 487.582 1055.53 486.729 1054.62 485.887C1053.71 485.045 1052.7 484.104 1051.57 483.061C1050.18 481.798 1048.81 480.478 1047.48 479.103C1046.15 477.728 1045.04 476.268 1044.14 474.686C1043.23 473.102 1042.63 471.362 1042.29 469.464C1041.95 467.566 1042.09 465.461 1042.69 463.132L1042.69 463.094Z" fill="white" stroke="#231815"/>
<path d="M1122.91 506.303L1122.42 509.118C1121.5 514.397 1119.53 518.105 1116.49 520.223C1113.44 522.341 1109.21 522.771 1103.8 521.495C1098.37 520.218 1094.55 517.885 1092.29 514.533C1090.03 511.162 1089.36 506.827 1090.28 501.548L1093.86 480.854C1094.78 475.575 1096.79 471.887 1099.93 469.773C1103.07 467.659 1107.33 467.249 1112.75 468.527C1118.18 469.804 1121.96 472.116 1124.12 475.464C1126.29 478.812 1126.92 483.126 1126 488.405L1125.71 490.116L1117.2 488.118L1117.56 486.02C1118.02 483.409 1117.68 481.241 1116.58 479.52C1115.46 477.798 1113.75 476.678 1111.43 476.123C1109.12 475.587 1107.25 475.87 1105.83 476.989C1104.41 478.109 1103.47 479.974 1103.03 482.605L1099.53 502.766C1099.08 505.378 1099.35 507.542 1100.37 509.222C1101.37 510.92 1103.03 512.037 1105.35 512.574C1107.66 513.11 1109.5 512.826 1110.84 511.684C1112.19 510.543 1113.08 508.675 1113.54 506.045L1113.87 504.15L1122.91 506.285L1122.91 506.303Z" fill="white" stroke="#231815"/>
<path d="M1146.6 527.598C1140.86 527.252 1136.66 525.598 1133.98 522.635C1131.31 519.673 1130.12 515.495 1130.43 510.099L1131.62 488.872C1131.92 483.477 1133.58 479.452 1136.56 476.832C1139.56 474.214 1143.92 473.077 1149.66 473.424C1155.4 473.771 1159.59 475.425 1162.28 478.387C1164.94 481.349 1166.13 485.528 1165.83 490.942L1164.63 512.169C1164.33 517.564 1162.61 521.586 1159.49 524.199C1156.37 526.812 1152.07 527.951 1146.6 527.617L1146.6 527.598ZM1147.11 518.482C1149.64 518.64 1151.56 518.04 1152.89 516.686C1154.21 515.331 1154.96 513.314 1155.1 510.635L1156.27 489.948C1156.43 487.269 1155.96 485.176 1154.89 483.689C1153.83 482.184 1151.93 481.366 1149.21 481.2C1146.49 481.034 1144.52 481.631 1143.29 482.99C1142.06 484.349 1141.36 486.368 1141.22 489.047L1140.05 509.735C1139.89 512.413 1140.42 514.509 1141.63 516.021C1142.83 517.533 1144.66 518.347 1147.11 518.501L1147.11 518.482Z" fill="white" stroke="#231815"/>
<path d="M1186.34 504.862L1191.31 521.88L1182.55 525.701L1168.55 477.685L1183.36 471.228C1188.3 469.07 1192.36 468.788 1195.57 470.346C1198.77 471.922 1201.11 475.247 1202.59 480.339C1204.06 485.394 1203.97 489.773 1202.3 493.456C1200.64 497.139 1197.33 500.068 1192.39 502.227L1186.34 504.862ZM1190.88 494.832C1192.78 494.009 1193.93 492.639 1194.33 490.722C1194.72 488.805 1194.58 486.698 1193.91 484.402C1193.15 481.809 1192.13 479.916 1190.84 478.687C1189.56 477.475 1187.94 477.271 1186.01 478.129L1179.38 481.029L1184.26 497.732L1190.88 494.832Z" fill="white" stroke="#231815"/>
<path d="M1230.52 450.704L1232.73 457.742L1215.05 465.26L1218.84 477.271L1235.35 470.238L1237.56 477.276L1221.06 484.291L1225.13 497.216L1243.4 489.438L1246 497.683L1218.68 509.299L1203.79 462.061L1230.52 450.686L1230.52 450.704Z" fill="white" stroke="#231815"/>
<path d="M1266.19 442.613L1255.22 447.54L1268.37 489.008L1259.22 493.107L1246.08 451.639L1234.91 456.667L1232.61 449.415L1263.87 435.36L1266.17 442.613L1266.19 442.613Z" fill="white" stroke="#231815"/>
<path d="M1299.57 418.441L1308.18 414.262L1326.49 446.522L1319.61 408.719L1328.11 404.592L1336.77 457.416L1326.23 462.527L1308.83 431.145L1314.2 468.364L1303.66 473.476L1279.61 428.111L1288.11 423.983L1304.82 457.02L1299.55 418.441L1299.57 418.441Z" fill="white" stroke="#231815"/>
<path d="M1363.29 389.352L1380.62 436.511L1371.61 440.987L1363.69 419.436L1349.28 426.614L1357.2 448.165L1348.19 452.641L1330.86 405.483L1339.87 401.007L1346.71 419.586L1361.11 412.408L1354.28 393.829L1363.29 389.352Z" fill="white" stroke="#231815"/>
<path d="M1384 433.809L1379.15 379.28L1389.38 373.682L1420.37 413.907L1411.59 418.715L1404.27 408.927L1391.46 415.932L1392.79 429.001L1384.01 433.81L1384 433.809ZM1390.45 406.499L1398.97 401.827L1388.56 387.843L1390.45 406.499Z" fill="white" stroke="#231815"/>
<path d="M1432.98 358.284L1422.59 364.225L1438.64 403.269L1430 408.214L1413.95 369.169L1403.38 375.228L1400.57 368.389L1430.17 351.463L1432.97 358.302L1432.98 358.284Z" fill="white" stroke="#231815"/>
<path d="M1466.88 338.083L1461.73 341.22L1476 371.784L1481.16 368.646L1484.86 376.541L1465.76 388.171L1462.06 380.258L1467.22 377.121L1452.94 346.557L1447.79 349.695L1444.64 342.947L1463.74 331.317L1466.89 338.064L1466.88 338.083Z" fill="white" stroke="#231815"/>
<path d="M1471.47 341.216C1470.74 339.73 1470.29 338.092 1470.15 336.285C1470.01 334.478 1470.21 332.631 1470.77 330.747C1471.32 328.862 1472.27 327.014 1473.62 325.223C1474.96 323.412 1476.75 321.77 1478.99 320.296C1481.06 318.924 1483.07 317.953 1485.01 317.403C1486.95 316.852 1488.77 316.699 1490.47 316.926C1492.16 317.172 1493.68 317.814 1495.04 318.852C1496.4 319.89 1497.53 321.321 1498.4 323.108L1499.67 325.686L1491.35 331.208L1490.09 328.631C1489.78 328.028 1489.39 327.459 1488.89 326.957C1488.38 326.455 1487.81 326.097 1487.15 325.864C1486.49 325.649 1485.76 325.596 1484.95 325.723C1484.15 325.85 1483.28 326.232 1482.34 326.849C1480.58 328.015 1479.44 329.394 1478.94 330.969C1478.43 332.543 1478.58 334.149 1479.39 335.786C1480.02 337.047 1480.83 337.93 1481.84 338.437C1482.85 338.963 1483.94 339.272 1485.1 339.382C1486.26 339.492 1487.46 339.457 1488.67 339.276C1489.89 339.095 1491 338.927 1491.99 338.79C1494.24 338.511 1496.27 338.35 1498.1 338.308C1499.92 338.265 1501.52 338.433 1502.94 338.85C1504.36 339.248 1505.61 339.913 1506.72 340.829C1507.81 341.745 1508.75 343.002 1509.54 344.601C1510.44 346.426 1510.96 348.325 1511.09 350.279C1511.22 352.233 1510.97 354.168 1510.37 356.069C1509.77 357.97 1508.77 359.778 1507.41 361.515C1506.05 363.251 1504.33 364.823 1502.22 366.211C1499.65 367.908 1497.29 369.046 1495.14 369.587C1492.99 370.128 1491.06 370.202 1489.35 369.827C1487.64 369.452 1486.13 368.664 1484.83 367.481C1483.52 366.299 1482.44 364.833 1481.58 363.083L1480.4 360.694L1488.82 355.102L1489.21 355.893C1490.25 357.981 1491.56 359.256 1493.15 359.681C1494.74 360.124 1496.54 359.676 1498.54 358.338C1499.34 357.806 1499.97 357.174 1500.42 356.442C1500.87 355.71 1501.19 354.954 1501.34 354.153C1501.5 353.37 1501.53 352.563 1501.42 351.75C1501.32 350.936 1501.08 350.19 1500.74 349.513C1500.25 348.515 1499.66 347.808 1498.93 347.332C1498.22 346.876 1497.4 346.598 1496.46 346.498C1495.54 346.418 1494.5 346.442 1493.36 346.627C1492.23 346.794 1490.96 346.991 1489.56 347.218C1487.83 347.504 1486.11 347.735 1484.36 347.891C1482.63 348.066 1480.97 347.987 1479.39 347.655C1477.81 347.323 1476.34 346.684 1474.96 345.7C1473.59 344.716 1472.4 343.208 1471.41 341.195L1471.47 341.216Z" fill="white" stroke="#231815"/>
<path d="M1554.93 304.807L1556.21 307.124C1558.62 311.462 1559.34 315.63 1558.37 319.61C1557.41 323.589 1554.6 327.41 1549.93 331.087C1545.28 334.766 1541.15 336.393 1537.55 336.006C1533.96 335.619 1530.96 333.239 1528.55 328.9L1519.11 311.882C1516.7 307.543 1516.01 303.341 1517.06 299.311C1518.1 295.263 1520.94 291.408 1525.61 287.748C1530.26 284.07 1534.35 282.476 1537.86 282.932C1541.37 283.387 1544.34 285.784 1546.74 290.122L1547.51 291.53L1540.2 297.285L1539.24 295.561C1538.05 293.411 1536.55 292.22 1534.75 291.99C1532.95 291.761 1531.05 292.429 1529.06 293.995C1527.07 295.561 1525.88 297.329 1525.5 299.26C1525.12 301.21 1525.54 303.251 1526.74 305.402L1535.93 321.976C1537.13 324.126 1538.58 325.35 1540.28 325.666C1541.99 325.963 1543.85 325.329 1545.83 323.763C1547.81 322.196 1548.97 320.464 1549.29 318.565C1549.61 316.667 1549.16 314.642 1547.97 312.491L1547.09 310.934L1554.87 304.804L1554.93 304.807Z" fill="white" stroke="#231815"/>
<path d="M1581.77 305.404C1577.17 309.374 1573.06 311.227 1569.44 310.964C1565.83 310.701 1562.72 308.413 1560.13 304.083L1549.92 287.123C1547.32 282.811 1546.49 278.565 1547.43 274.366C1548.35 270.184 1551.13 266.091 1555.74 262.12C1560.34 258.15 1564.45 256.297 1568.06 256.561C1571.67 256.824 1574.78 259.112 1577.38 263.442L1587.58 280.402C1590.18 284.714 1590.95 289.012 1589.91 293.299C1588.87 297.586 1586.16 301.608 1581.77 305.404ZM1577.39 298.13C1579.43 296.381 1580.6 294.499 1580.91 292.503C1581.22 290.507 1580.73 288.435 1579.46 286.29L1569.51 269.766C1568.22 267.62 1566.77 266.389 1565.16 266.036C1563.55 265.702 1561.66 266.461 1559.48 268.35C1557.3 270.239 1556.08 272.137 1555.85 274.082C1555.62 276.027 1556.14 278.063 1557.42 280.19L1567.36 296.714C1568.66 298.86 1570.15 300.056 1571.87 300.304C1573.59 300.551 1575.44 299.827 1577.41 298.131L1577.39 298.13Z" fill="white" stroke="#231815"/>
<path d="M1600.06 267.352L1609.24 281.723L1601.54 288.336L1575.64 247.763L1588.66 236.565C1593.01 232.838 1596.96 231.159 1600.52 231.545C1604.07 231.931 1607.24 234.274 1609.98 238.572C1612.71 242.852 1613.7 247.013 1612.99 251.075C1612.27 255.136 1609.73 259.039 1605.4 262.766L1600.07 267.352L1600.06 267.352ZM1602.04 256.3C1603.71 254.857 1604.51 253.173 1604.41 251.23C1604.32 249.286 1603.66 247.352 1602.41 245.408C1601.01 243.221 1599.53 241.774 1597.95 241.065C1596.37 240.355 1594.72 240.73 1593.02 242.19L1587.19 247.205L1596.19 261.315L1602.02 256.3L1602.04 256.3Z" fill="white" stroke="#231815"/>
<path d="M1630.65 200.35L1634.4 206.626L1618.95 219.553L1625.37 230.255L1639.8 218.188L1643.55 224.463L1629.12 236.531L1636.03 248.053L1651.99 234.705L1656.4 242.068L1632.53 262.029L1607.27 219.908L1630.63 200.368L1630.65 200.35Z" fill="white" stroke="#231815"/>
<path d="M1665.26 182.912L1655.36 190.393L1675.92 227.279L1667.66 233.503L1647.11 196.617L1637.01 204.236L1633.41 197.783L1661.66 176.46L1665.26 182.912Z" fill="white" stroke="#231815"/>
<path d="M1698.51 152.948L1706.52 147.83L1727.45 176.403L1717.19 141.042L1725.11 135.992L1738.52 185.541L1728.71 191.802L1708.75 163.953L1717.5 198.949L1707.69 205.21L1679.92 164.804L1687.84 159.754L1707.27 189.283L1698.49 152.965L1698.51 152.948Z" fill="white" stroke="#231815"/>
<path d="M1762.23 116.015L1780.45 161.08L1771.95 165.844L1763.63 145.244L1750.01 152.86L1758.33 173.459L1749.82 178.224L1731.6 133.159L1740.11 128.394L1747.28 146.15L1760.9 138.535L1753.73 120.779L1762.23 116.015Z" fill="white" stroke="#231815"/>
<path d="M1784.28 160.516L1779.93 105.936L1790 100.424L1820.09 140.923L1811.44 145.663L1804.34 135.81L1791.72 142.713L1792.92 155.795L1784.28 160.535L1784.28 160.516ZM1790.8 133.247L1799.19 128.662L1789.1 114.6L1790.8 133.265L1790.8 133.247Z" fill="white" stroke="#231815"/>
<path d="M1835.54 85.2898L1824.84 90.621L1839.4 130.501L1830.48 134.949L1815.92 95.0697L1805.02 100.519L1802.47 93.538L1832.99 78.3092L1835.54 85.2898Z" fill="white" stroke="#231815"/>
<path d="M1873.33 68.1502L1867.85 70.734L1879.04 104.162L1884.51 101.579L1887.4 110.226L1867.16 119.781L1864.27 111.133L1869.75 108.55L1858.56 75.1213L1853.08 77.7051L1850.61 70.3366L1870.85 60.7817L1873.33 68.1502Z" fill="white" stroke="#231815"/>
<path d="M1878.6 70.8854C1878.09 69.2949 1877.89 67.6094 1878.01 65.8115C1878.12 64.0136 1878.57 62.2494 1879.37 60.5023C1880.16 58.7545 1881.34 57.1161 1882.88 55.6045C1884.43 54.0748 1886.38 52.8013 1888.75 51.7478C1890.95 50.777 1893.01 50.2009 1894.96 50.002C1896.92 49.8213 1898.7 49.9967 1900.3 50.5281C1901.9 51.0778 1903.29 51.9813 1904.45 53.2569C1905.61 54.5325 1906.51 56.1234 1907.12 58.047L1907.99 60.8026L1899.21 64.685L1898.33 61.9294C1898.13 61.2822 1897.81 60.6661 1897.42 60.0644C1897.01 59.4802 1896.5 59.0188 1895.89 58.6802C1895.27 58.3415 1894.58 58.1628 1893.78 58.1431C1892.98 58.1053 1892.09 58.3365 1891.12 58.7638C1889.24 59.5858 1887.95 60.7269 1887.26 62.1876C1886.54 63.6476 1886.47 65.247 1887.03 67.0041C1887.45 68.3539 1888.12 69.3695 1889.03 70.0683C1889.94 70.7671 1890.95 71.2704 1892.04 71.5956C1893.16 71.9217 1894.31 72.1037 1895.51 72.1608C1896.72 72.2179 1897.81 72.2698 1898.78 72.2794C1901 72.421 1902.98 72.6242 1904.76 72.9087C1906.51 73.1924 1908.06 73.6664 1909.38 74.3118C1910.69 74.9571 1911.81 75.8299 1912.75 76.9308C1913.68 78.0316 1914.42 79.4326 1914.96 81.1526C1915.59 83.1133 1915.83 85.0555 1915.67 87.0155C1915.52 88.9573 1915.02 90.8101 1914.17 92.5549C1913.32 94.2998 1912.11 95.9004 1910.56 97.3567C1909 98.813 1907.12 100.036 1904.9 101.005C1902.18 102.206 1899.75 102.874 1897.59 103.009C1895.44 103.143 1893.57 102.873 1891.96 102.195C1890.36 101.518 1889 100.47 1887.92 99.0708C1886.83 97.6709 1886 96.0285 1885.39 94.1601L1884.58 91.5893L1893.46 87.6568L1893.73 88.5077C1894.44 90.7455 1895.55 92.2369 1897.02 92.9442C1898.49 93.6697 1900.3 93.555 1902.41 92.6169C1903.26 92.2382 1903.96 91.7429 1904.49 91.0942C1905.04 90.4643 1905.43 89.7725 1905.7 89.0203C1905.97 88.268 1906.1 87.4909 1906.11 86.6715C1906.12 85.8522 1906 85.0814 1905.77 84.3418C1905.42 83.2872 1904.95 82.463 1904.32 81.8866C1903.68 81.3102 1902.94 80.8922 1902.04 80.6311C1901.16 80.3708 1900.15 80.2317 1899.04 80.1791C1897.91 80.1257 1896.67 80.1035 1895.28 80.0557C1893.57 80.0112 1891.87 79.9304 1890.18 79.7776C1888.5 79.6249 1886.9 79.2395 1885.41 78.6405C1883.93 78.0423 1882.6 77.1228 1881.4 75.9184C1880.2 74.6959 1879.27 73.0119 1878.58 70.8483L1878.6 70.8854Z" fill="white" stroke="#231815"/>
<path d="M1967.35 55.7072L1968.1 58.346C1969.51 63.2788 1969.27 67.5233 1967.4 71.0616C1965.52 74.5998 1961.85 77.4063 1956.36 79.4984C1950.88 81.5905 1946.39 81.8807 1942.91 80.3688C1939.42 78.8749 1936.97 75.6522 1935.56 70.7194L1930.04 51.3889C1928.63 46.4561 1928.92 42.1959 1930.87 38.6256C1932.82 35.0553 1936.55 32.2331 1942.03 30.141C1947.52 28.0489 1951.96 27.7923 1955.35 29.3176C1958.73 30.8608 1961.14 34.0812 1962.55 39.032L1963 40.6153L1954.39 43.8881L1953.83 41.9226C1953.14 39.4838 1951.91 37.8631 1950.17 37.0807C1948.43 36.2976 1946.38 36.3445 1944.04 37.2386C1941.69 38.1328 1940.11 39.4585 1939.3 41.2156C1938.49 42.9728 1938.42 45.0704 1939.12 47.5279L1944.5 66.3672C1945.19 68.8059 1946.36 70.4595 1948 71.2732C1949.64 72.1049 1951.63 72.0737 1953.96 71.1787C1956.3 70.2838 1957.86 68.9754 1958.6 67.251C1959.35 65.5267 1959.37 63.4268 1958.68 60.988L1958.18 59.2047L1967.32 55.7236L1967.35 55.7072Z" fill="white" stroke="#231815"/>
<path d="M1992.67 67.0715C1987.06 68.9695 1982.54 69.0671 1979.11 67.3825C1975.69 65.6796 1973.35 62.286 1972.09 57.1828L1967.11 37.1403C1965.85 32.037 1966.28 27.7109 1968.39 24.1428C1970.51 20.5755 1974.37 17.8424 1979.98 15.9261C1985.59 14.0281 1990.11 13.9306 1993.54 15.6152C1996.96 17.3181 1999.3 20.7116 2000.56 25.8149L2005.54 45.8574C2006.8 50.9606 2006.3 55.3203 2004.07 58.9372C2001.82 62.5534 1998.02 65.2712 1992.67 67.0715ZM1990.53 58.4789C1993 57.6425 1994.68 56.3466 1995.57 54.5729C1996.45 52.8175 1996.58 50.6598 1995.95 48.1356L1991.11 28.613C1990.48 26.0888 1989.44 24.3341 1987.98 23.3663C1986.53 22.3985 1984.46 22.374 1981.81 23.2753C1979.16 24.1766 1977.43 25.4886 1976.63 27.2294C1975.84 28.9528 1975.76 31.0945 1976.37 33.6179L1981.21 53.1405C1981.84 55.6646 1982.95 57.3858 1984.53 58.3231C1986.12 59.2603 1988.12 59.3001 1990.53 58.4972L1990.53 58.4789Z" fill="white" stroke="#231815"/>
</svg>
